<?xml version="1.0" encoding="UTF-8" standalone="no"?>
<svg
   version="1.1"
   viewBox="0 0 530 210">
  <g transform="matrix(0.52714811,0,0,0.52714811,40.179584,-145.68327)">
    <path
       d="m 703.73665,652.42352 c -4.02594,-0.9267 -7.5582,-0.9666 -24.71222,-0.2793 -15.17792,0.6082 -23.52974,0.5905 -34.55921,-0.073 -11.46892,-0.6903 -22.0194,-0.6793 -49.89539,0.052 -19.44307,0.5099 -36.95754,0.6944 -38.92105,0.41 -1.96351,-0.2844 -26.97298,-0.495 -55.57661,-0.468 -51.52672,0.049 -66.2338,-0.4238 -69.24069,-2.2238 -0.93694,-0.5609 -4.02555,-0.9429 -7.76807,-0.9607 -4.50953,-0.021 -6.12942,-0.26617 -5.9089,-0.89277 0.16709,-0.4747 -0.20792,-1.0092 -0.83335,-1.1878 -0.62543,-0.1786 0.0708,-0.3771 1.54706,-0.4412 l 2.68421,-0.1164 -2.68421,-1.5131 c -3.30391,-1.86242 -3.24377,-1.8037 -2.74465,-2.6786 0.25397,-0.4452 1.86482,-0.1636 4.24192,0.7415 2.10785,0.8026 3.91587,1.1856 4.01782,0.8511 0.10195,-0.3344 2.63644,-0.5002 5.6322,-0.3684 7.7121,0.3394 8.64877,-0.016 8.64877,-3.2793 0,-1.5535 0.73536,-4.0078 1.77865,-5.9364 1.71494,-3.1702 1.75211,-3.4719 1.03774,-8.424 -0.44433,-3.0802 -1.55519,-6.761 -2.77516,-9.19531 -1.11884,-2.2325 -2.47215,-6.5385 -3.00735,-9.5689 -0.5352,-3.0303 -1.61272,-6.8679 -2.39447,-8.528 -1.02357,-2.1735 -1.49802,-4.7855 -1.6952,-9.3324 -0.2457,-5.6658 -0.21182,-5.9001 0.33,-2.2825 0.3321,2.2175 1.37732,6.5279 2.3227,9.5789 0.94538,3.0509 1.71888,6.2569 1.71888,7.1245 0,2.3545 1.9944,9.336 2.82609,9.8928 0.49094,0.3287 0.57456,-0.1636 0.25908,-1.5253 -1.1262,-4.8611 -0.93762,-6.1903 0.31275,-2.2045 1.74022,5.5472 3.3126,13.52911 3.3126,16.81571 0,1.3995 0.27943,3.1103 0.62095,3.8016 0.46069,0.9325 0.10143,2.09291 -1.39197,4.4958 l -2.01293,3.2388 2.23079,0.3635 c 1.91024,0.3113 2.20398,0.6246 2.04417,2.1809 -0.41831,4.0739 1.19204,-0.6763 1.79628,-5.2986 0.34011,-2.6017 0.9475,-5.3966 1.34975,-6.2108 1.01414,-2.0529 0.86467,-6.4741 -0.33589,-9.9363 -1.38394,-3.99101 -2.94299,-9.31751 -2.95178,-10.08491 -0.004,-0.3488 0.42508,-0.2455 0.9535,0.2296 0.79647,0.7161 0.9973,0.4516 1.17435,-1.5467 0.38031,-4.2924 1.53605,-1.8255 1.31604,2.809 -0.22782,4.7994 1.15567,13.19941 1.94586,11.81431 0.34724,-0.6087 0.599,-0.6142 0.93762,-0.021 0.25461,0.4463 -0.2806,2.8529 -1.18934,5.3481 -0.96665,2.6542 -1.76368,6.573 -1.92072,9.4438 l -0.26844,4.9071 19.1568,-0.1817 c 10.53623,-0.0999 26.19549,0.11443 34.79832,0.4766 l 15.64152,0.6585 3.95848,-2.0497 c 2.17717,-1.1273 3.80241,-2.3232 3.61165,-2.6576 -0.19076,-0.3344 -0.027,-0.6079 0.36382,-0.6079 1.23879,0 0.78197,0.86593 -1.80579,3.4229 l -2.51645,2.4865 12.08238,-0.3996 c 6.6453,-0.21978 16.58226,-0.6212 22.08214,-0.8919 l 9.99976,-0.4923 -0.39157,-47.49861 c -0.37594,-45.60162 -0.34279,-47.49862 0.82962,-47.49862 0.67165,0 1.40448,0.5174 1.62851,1.1499 0.22403,0.6324 0.40732,7.2851 0.40732,14.7835 0,7.49852 0.19953,28.35892 0.44342,46.35632 l 0.44343,32.72261 5.41573,1.3317 c 6.09625,1.49904 16.27054,1.555 81.94084,0.4514 36.513,-0.6135 38.29152,-0.5882 46.97368,0.6706 3.35327,0.4862 26.14965,0.8453 60.73022,0.9565 48.5039,0.1561 55.77747,0.3217 58.71704,1.3369 1.8454,0.6372 5.7711,1.4247 8.7237,1.7499 l 5.3684,0.59117 -4.0263,0.3831 c -3.2472,0.3089 -2.0137,0.5173 6.375,1.0772 5.7208,0.3818 12.2132,0.648 14.4277,0.5915 3.8509,-0.098 17.0824,-1.3333 17.7829,-1.6599 1.0724,-0.5001 -5.5474,-1.23907 -8.1808,-0.91327 -3.0082,0.37207 -3.1303,0.3165 -2.7516,-1.2523 l 0.3963,-1.6416 12.9971,0.3226 c 9.5183,0.23625 13.2185,0.5773 13.824,1.2739 0.676,0.7777 0.3068,0.8808 -2.025,0.5651 -1.5686,-0.2124 -3.0208,-0.09 -3.2272,0.2716 -0.2063,0.3618 0.2287,0.6578 0.9669,0.6578 0.7382,0 1.534,0.33637 1.7686,0.74757 0.2346,0.4111 1.3848,1.232 2.5561,1.8241 l 42.1295,11.0765 -2.0868,-0.3316 c -8.6403,-1.37297 -48.9856,-11.3739 -48.9856,-10.022 0,1.2384 -1.4526,1.2771 -30.0892,0.8016 -16.5491,-0.2748 -31.87427,-0.8163 -34.05594,-1.2034 -5.6023,-0.9939 -34.5106,-0.8659 -40.2034,0.1781 -2.5836,0.4737 -10.7369,0.9276 -18.11846,1.0086 -7.38158,0.081 -20.66842,0.3253 -29.52632,0.5428 -12.79209,0.3141 -17.0716,0.173 -20.80263,-0.6858 z m 10.23355,-0.8029 c -0.64588,-0.1829 -1.70279,-0.1829 -2.34868,0 -0.64589,0.1828 -0.11743,0.3324 1.17434,0.3324 1.29178,0 1.82023,-0.1496 1.17434,-0.3324 z m 24.32566,-0.8817 c 1.60599,-0.4891 -18.05368,-0.2475 -20.13158,0.2474 -0.55361,0.1319 3.37204,0.2451 8.72369,0.2516 5.35164,0.01 10.4852,-0.218 11.40789,-0.499 z m 26.8421,-0.1083 c -1.6609,-0.3201 -4.0766,-0.5632 -5.36841,-0.5402 l -2.34869,0.042 2.34869,0.5356 c 1.29181,0.2945 3.70751,0.5376 5.36841,0.5402 l 3.0197,0 -3.0197,-0.5821 z m -161.10854,-1.1513 c 0.15378,-0.146 -9.05642,-0.2605 -20.46711,-0.2544 -14.00554,0.01 -20.41964,0.2464 -19.74013,0.7352 0.92727,0.6671 39.48393,0.206 40.20724,-0.4808 z m 56.42434,0.4389 c -11.916,-1.84757 -36.94941,-2.66157 -44.96053,-1.46177 -2.5834,0.38687 0.53743,0.60897 10.40132,0.74037 7.75066,0.1033 17.11184,0.4226 20.80263,0.7095 3.69079,0.287 9.12632,0.5358 12.07895,0.553 5.24237,0.031 5.28176,0.018 1.67763,-0.5411 z m -184.87501,-0.6124 3.35526,-0.5076 -2.63915,-0.57707 c -1.45153,-0.3173 -5.52817,-0.3182 -9.05921,0 -5.35404,0.47957 -5.97436,0.65307 -3.73585,1.04517 3.63697,0.6371 8.04231,0.6522 12.07895,0.042 z m 272.96344,0.1581 c -0.45433,-0.1991 -1.36025,-0.2112 -2.01316,-0.027 -0.65292,0.1843 -0.28119,0.3473 0.82604,0.3621 1.10724,0.015 1.64144,-0.136 1.18712,-0.3351 z m -141.95438,-0.6893 c -0.22299,-0.24157 -0.80178,-0.26737 -1.28619,-0.057 -0.53532,0.232 -0.37631,0.4043 0.40543,0.4392 0.7074,0.032 1.10374,-0.1403 0.88076,-0.3818 z m 82.52702,-1.28897 c 0.73497,-0.7962 -20.82345,-2.2702 -22.40051,-1.5316 -1.64438,0.7702 2.64439,1.7024 8.16707,1.7751 2.21447,0.029 4.41398,0.3195 4.88778,0.6452 0.76536,0.52607 8.73965,-0.2322 9.34566,-0.8887 z m -183.82885,-0.4569 c 1.07909,-0.3521 -4.65005,-0.5999 -13.93749,-0.6029 -8.67336,0 -15.46777,0.1287 -15.09869,0.2923 3.60183,1.5961 24.4138,1.8187 29.03618,0.3106 z m 69.60857,-0.037 c 5.13487,-0.3734 0.27192,-0.4463 -13.42105,-0.2014 -11.81053,0.2113 -23.43652,0.6398 -25.83553,0.9524 -5.37941,0.7008 28.0967,0.06 39.25658,-0.751 z m -104.01317,-0.7171 c 4.0247,-0.7479 -14.34371,-0.1456 -23.48684,0.7701 -4.29011,0.4297 -2.24919,0.4961 7.04605,0.2292 7.19704,-0.2067 14.5954,-0.6563 16.44079,-0.9993 z m 189.39064,1.0458 c -0.22299,-0.2416 -0.80178,-0.2674 -1.28619,-0.057 -0.53532,0.232 -0.37631,0.4043 0.40543,0.4392 0.7074,0.032 1.10374,-0.1403 0.88076,-0.3818 z m -6.68873,-0.7873 c -0.64158,-0.1819 -1.84948,-0.1885 -2.68421,-0.015 -0.83473,0.1739 -0.3098,0.3228 1.16652,0.3308 1.47632,0.01 2.15928,-0.1342 1.51769,-0.3161 z m -202.89812,-1.7163 c 4.39341,-0.3703 8.16808,-0.8838 8.38816,-1.141 0.47655,-0.5571 -18.46588,0.1903 -22.63631,0.8931 -4.27327,0.7202 -2.02452,1.9132 2.56936,1.3632 2.02994,-0.2431 7.28539,-0.745 11.67879,-1.1153 z m 391.62383,2.8325 c -6.9868,-0.6887 -13.0788,-1.6164 -20.8027,-3.1677 -2.7681,-0.5559 -6.69367,-1.2077 -8.72364,-1.4483 -2.0299,-0.2405 -7.4654,-1.2296 -12.0789,-2.1979 -4.6135,-0.9683 -12.271,-2.4301 -17.0167,-3.2485 -4.7457,-0.8184 -9.8792,-1.7898 -11.4079,-2.1587 -1.5286,-0.3689 -5.9472,-1.0212 -9.8191,-1.4495 -3.87183,-0.4283 -10.96821,-1.8963 -15.76972,-3.2622 -4.8015,-1.3659 -11.74974,-2.8617 -15.44053,-3.3241 -3.69079,-0.4623 -9.42829,-1.7601 -12.75,-2.8841 -5.19138,-1.7565 -7.54719,-2.1007 -16.77632,-2.4514 -19.28555,-0.7328 -24.0867,-1.3349 -32.54605,-4.08171 -3.50625,-1.1386 -8.48881,-2.4491 -11.07237,-2.9123 -2.58355,-0.4632 -7.26414,-1.4436 -10.40131,-2.1786 -3.13717,-0.735 -6.83635,-1.5456 -8.2204,-1.8013 -2.18361,-0.4035 -2.51644,-0.7257 -2.51644,-2.436 0,-1.0841 0.31153,-3.1138 0.69227,-4.5106 0.96959,-3.5569 2.63595,-16.4086 2.6507,-20.4432 0.0197,-5.3821 0.21375,-5.4211 14.23332,-2.8598 6.75705,1.2345 14.24838,2.7616 16.64739,3.3935 2.39901,0.6319 6.0227,1.417 8.05263,1.7447 2.02994,0.3278 5.80461,0.9901 8.38816,1.472 2.58355,0.4818 6.81118,1.08269 9.39474,1.3353 l 4.69736,0.4593 0.18115,2.5444 c 0.32373,4.5471 0.79106,5.8158 2.14227,5.8158 1.68245,0 3.38053,-2.6765 3.38053,-5.3283 0,-1.7156 0.2136,-2 1.17434,-1.5639 1.99411,0.9053 6.93706,1.676 13.42559,2.0935 5.86776,0.3775 13.2187,1.9656 15.66605,3.3845 0.6086,0.3529 4.69231,0.9967 9.07489,1.4306 4.38259,0.434 9.93117,1.2407 12.33018,1.7927 2.39897,0.552 6.62667,1.228 9.39477,1.5022 2.7681,0.2743 7.7506,1.4203 11.0723,2.5468 8.1333,2.7583 13.8469,3.7758 18.0262,3.2101 2.3058,-0.3121 4.8594,-0.082 7.585,0.683 2.2599,0.6344 5.1222,1.1585 6.3607,1.1648 2.98137,0.015 13.00714,2.3473 19.69914,4.5825 8.8262,2.948 15.9199,4.7919 19.125,4.9712 3.4732,0.1943 9.3691,2.32661 10.1939,3.68671 0.3082,0.5083 0.3988,1.5784 0.2013,2.3781 -1.3118,5.312 -3.6847,18.1519 -3.6847,19.9382 0,1.3998 -0.5213,2.5477 -1.4914,3.2838 -1.6127,1.2236 -3.4342,1.264 -13.2717,0.2944 z m 7.3815,-1.3437 c 0,-0.3998 -0.6945,-0.727 -1.5434,-0.727 -0.8489,0 -1.9057,-0.3924 -2.3484,-0.8721 -0.626,-0.6781 -0.3313,-1.0419 1.3252,-1.6356 2.7655,-0.9913 3.1474,-2.3955 0.8235,-3.0273 -1.4412,-0.3919 -2.1042,-0.1446 -3.0675,1.1441 -1.5531,2.078 -1.5397,2.6003 0.1133,4.3909 1.3855,1.501 4.6973,2.0135 4.6973,0.727 z m -9.7589,-1.4037 c 0.2124,-0.3722 0.079,-0.8822 -0.2959,-1.1334 -0.9529,-0.638 -0.8096,-6.3937 0.2986,-11.9954 0.8767,-4.4313 0.8707,-5.8898 -0.02,-4.9246 -0.8106,0.8782 -3.0936,15.205 -2.6962,16.9203 0.415,1.7913 1.9683,2.4399 2.7138,1.1331 z m -5.3398,-1.5042 c 0.4604,0 -0.1315,-0.732 -0.7992,-0.7381 -0.6676,-0.01 -1.6474,-0.3083 -2.1773,-0.6716 -0.7985,-0.5473 -0.8131,-0.8566 -0.086,-1.8063 0.4828,-0.6302 1.4699,-1.1458 2.1937,-1.1458 1.7182,0 1.1946,-1.7483 -0.6103,-2.0379 -1.9728,-0.3166 -3.5541,1.7453 -3.5541,4.6342 0,2.3558 0.1266,2.4925 2.309,2.4925 1.27,0 2.4957,-0.3271 2.7238,-0.727 z m -13.7565,-7.4087 c 0,-2.8211 -0.8695,-3.6977 -1.6059,-1.619 -0.224,0.6325 -0.3977,2.5135 -0.3859,4.1801 0.02,2.8222 0.089,2.9333 1.0065,1.619 0.5419,-0.7761 0.9853,-2.6571 0.9853,-4.1801 z m 3.3139,3.8575 c 0.3724,-0.7537 1.4399,-1.5778 2.3723,-1.8313 2.2158,-0.6025 2.232,-2.1679 0.018,-1.7093 -1.1249,0.233 -1.6776,0.021 -1.6776,-0.6422 0,-1.2415 -1.2952,-1.3054 -1.6406,-0.081 -1.2775,4.5274 -0.6426,7.4434 0.9282,4.2637 z m -9.04937,-1.6543 c 2.7916,-1.3779 2.1885,-2.8914 -0.9365,-2.3501 -2.47057,0.428 -2.73687,0.2963 -4.02377,-1.9906 -2.0022,-3.5578 -1.7404,-5.2014 1.303,-8.18 3.08287,-3.0174 3.16287,-3.041 4.81437,-1.4219 1.7987,1.7634 2.0083,0.9199 0.3241,-1.3039 -2.0974,-2.7694 -3.90587,-3.1371 -6.12587,-1.2453 -3.2754,2.7911 -5.2824,9.5885 -3.9456,13.3626 0.2406,0.6792 1.675,1.8438 3.1875,2.5879 3.28,1.6137 3.2385,1.6096 5.40277,0.5413 z m -16.71207,-3.0878 c 0.2724,-1.5727 0.8938,-2.6091 1.7017,-2.838 1.1776,-0.3336 1.1983,-0.5151 0.2766,-2.4296 -0.5479,-1.138 -0.998,-2.4972 -1.0003,-3.0206 0,-0.5234 -0.3061,-0.7495 -0.6752,-0.5024 -0.369,0.2471 -0.671,1.0636 -0.671,1.8143 0,1.0037 -0.5773,1.4316 -2.1809,1.6167 l -2.181,0.2517 1.7767,0.9676 c 1.5763,0.85851 1.7109,1.2158 1.1938,3.1692 -0.3206,1.2109 -0.4228,2.4822 -0.2272,2.8252 0.7445,1.305 1.5737,0.5313 1.9868,-1.8541 z m -6.0837,-0.8852 c 1.341,-1.4527 1.0845,-4.5782 -0.4616,-5.6268 -0.8997,-0.6102 -1.509,-0.4046 -2.852,0.9621 -2.1112,2.1487 -2.1919,4.2286 -0.1979,5.0969 2.1097,0.9186 2.2844,0.8971 3.5115,-0.4322 z m -2.5426,-2.191 c -0.5361,-0.5808 0.07,-1.716 0.9161,-1.716 0.3473,0 0.6315,0.4907 0.6315,1.0905 0,1.1242 -0.7919,1.4442 -1.5476,0.6255 z m -9.1893,1.2402 c 0,-0.3733 0.8,-0.7822 1.7777,-0.9087 3.5857,-0.464 3.8261,-5.4101 0.2553,-5.2542 -1.5919,0.069 -1.5893,0.1568 -0.2784,-9.33361 0.2182,-1.5796 0.099,-2.7262 -0.2838,-2.7262 -0.7857,0 -2.8162,11.40831 -2.8143,15.81171 7e-4,1.6993 0.3034,3.0897 0.6725,3.0897 0.369,0 0.671,-0.3055 0.671,-0.6787 z m 1.3421,-3.2768 c 0,-0.6233 0.302,-1.1334 0.6711,-1.1334 0.369,0 0.671,0.3079 0.671,0.6841 0,0.3762 -0.302,0.8863 -0.671,1.1334 -0.3691,0.2471 -0.6711,-0.061 -0.6711,-0.6841 z m -5.0329,-1.808 c 0,-2.9549 -0.1635,-3.2665 -1.9919,-3.7962 -4.1471,-1.2016 -6.9123,3.6918 -3.5443,6.2721 0.8305,0.6362 2.4158,1.0637 3.5231,0.9499 1.905,-0.1956 2.0131,-0.3797 2.0131,-3.4258 z m -3.5871,0.3565 c 0.1275,-0.6669 0.5338,-1.1953 0.9029,-1.1742 0.996,0.057 0.8131,1.6834 -0.2318,2.0607 -0.5645,0.2038 -0.816,-0.1285 -0.6711,-0.8865 z m 49.26504,1.6908 c 0.5784,-1.014 -1.1683,-2.2655 -1.9619,-1.4057 -0.6455,0.6993 -0.024,2.214 0.9089,2.214 0.3255,0 0.7994,-0.3637 1.053,-0.8083 z m -60.77664,-2.8695 c 0,-2.6387 0.4246,-2.6658 2.8197,-0.18 1.3719,1.4239 2.0879,1.7399 2.6246,1.1585 0.5367,-0.5814 -0.014,-1.5354 -2.0176,-3.4966 -3.2336,-3.1649 -3.4948,-4.2732 -0.859,-3.646 4.1599,0.9898 8.416,-3.02731 6.9359,-6.54651 -1.0893,-2.5901 -4.6867,-4.7649 -7.4904,-4.5284 -1.9812,0.1671 -2.3623,0.4824 -2.4359,2.0155 -0.048,0.9996 -0.4608,4.3427 -0.91734,7.42921 -0.83925,5.6736 -0.4681,11.143 0.70294,10.3589 0.3504,-0.2346 0.6371,-1.3887 0.6371,-2.5646 z m 2.6842,-10.86171 c 0,-1.1969 0.3479,-1.5016 1.5099,-1.3228 0.8304,0.1278 1.5099,0.723 1.5099,1.3228 0,0.5997 -0.6795,1.195 -1.5099,1.3228 -1.162,0.1787 -1.5099,-0.126 -1.5099,-1.3228 z m -16.6948,8.79621 c 1.61605,-1.5595 2.70676,-3.0916 2.4238,-3.4047 -0.28296,-0.3131 -0.8718,-0.1821 -1.30855,0.291 -1.16328,1.2602 -1.86776,1.0525 -1.86776,-0.5508 0,-0.7761 -0.34796,-1.644 -0.77326,-1.9288 -0.55832,-0.3738 -0.6561,0.276 -0.35178,2.3377 0.34767,2.3554 0.18932,3.0124 -0.90438,3.7523 -1.34996,0.9134 -1.80164,2.3387 -0.7411,2.3387 0.32162,0 1.90698,-1.276 3.52303,-2.8354 z m -8.80514,-3.0233 c 0,-1.5758 -0.30198,-2.865 -0.67106,-2.865 -0.36908,0 -0.67105,1.4914 -0.67105,3.3143 0,2.0244 0.26117,3.1394 0.67105,2.865 0.36908,-0.2472 0.67106,-1.7386 0.67106,-3.3143 z m 4.02631,2.3016 c 0,-0.7569 0.51999,-1.5924 1.15553,-1.8566 0.92824,-0.3858 0.97617,-0.6004 0.24366,-1.0909 -0.55471,-0.3714 -0.78093,-1.3527 -0.57754,-2.5053 0.40924,-2.31921 -0.54943,-2.52581 -1.2024,-0.259 -0.25916,0.8996 -0.69397,1.7992 -0.96626,1.9991 -0.67274,0.494 0.007,5.0888 0.75212,5.0888 0.32719,0 0.59489,-0.6192 0.59489,-1.3761 z m -9.78515,0.2079 c -1.5703,0 1.33211,-1.6973 -0.39761,-3.692 l -1.45908,-1.6825 2.26434,0 c 1.61902,0 2.05815,-0.2234 1.54083,-0.78381 -0.91853,-0.9951 -4.38936,-0.5871 -4.73575,0.55661 -0.1438,0.4748 0.36136,1.538 1.12259,2.3627 1.77085,1.9184 1.7647,2.4982 -0.0155,1.466 -1.72384,-0.9994 -2.44222,-0.3872 -1.29809,1.1062 0.93425,1.2195 1.39862,1.3235 2.97832,0.6668 z m -7.13512,-4.8293 c 0.56266,-0.6997 1.58016,-1.27221 2.26112,-1.27221 0.68095,0 1.2381,-0.3271 1.2381,-0.727 0,-0.3998 -0.90592,-0.7269 -2.01316,-0.7269 -1.11842,0 -2.01316,-0.3878 -2.01316,-0.8724 0,-2.08 -1.24218,0.719 -1.35505,3.05331 -0.15696,3.2462 0.019,4.2926 0.48902,2.9079 0.20356,-0.5998 0.83047,-1.663 1.39313,-2.3627 z m -4.57222,0.9367 c 1.05433,-0.7223 1.11977,-0.6665 -1.99435,-1.7011 -0.68834,-0.2287 -0.40771,-0.59241 0.88764,-1.15021 1.25003,-0.5383 1.81823,-1.2477 1.67078,-2.0859 -0.31156,-1.7709 -3.27363,-2.0919 -4.36622,-0.4732 -2.33145,3.45421 0.58987,7.61121 3.80215,5.41041 z m -2.32988,-4.38981 c -0.2281,-0.3998 -0.0949,-0.727 0.29592,-0.727 0.39086,0 0.71066,0.3272 0.71066,0.727 0,0.3998 -0.13316,0.727 -0.29592,0.727 -0.16276,0 -0.48255,-0.3272 -0.71066,-0.727 z m -4.61143,-0.907 c 1.22027,-2.5564 0.0965,-2.6047 -1.60839,-0.069 l -1.29887,1.9316 -0.44751,-1.9316 c -0.24616,-1.06249 -0.74374,-1.9317 -1.10579,-1.9317 -0.88143,0 -0.83857,3.3655 0.0662,5.1969 0.70368,1.42441 0.76341,1.42831 2.08186,0.13571 0.74658,-0.73201 1.78721,-2.23121 2.31252,-3.33171 z m -7.14226,-0.6858 c 0.0117,-3.0667 -1.12536,-4.3878 -1.62688,-1.89 -0.64633,3.219 -0.67272,4.5824 -0.10761,5.5596 0.85531,1.47891 1.72179,-0.3543 1.73449,-3.6696 z m -4.99469,0.5539 c 1.66852,0.64174 0.24581,-3.5701 0.001,-3.9983 -0.66421,-1.1642 -2.44259,-0.9407 -3.90244,0.4905 -1.23598,1.2118 -1.28385,1.207 -1.05943,-0.1063 0.12928,-0.7565 -0.14241,-1.5184 -0.60376,-1.6932 -0.60591,-0.2295 -0.83882,0.8093 -0.83882,3.7412 0,4.5964 0.55292,5.06831 2.01316,1.7181 1.51593,-3.4778 2.68421,-3.4346 2.68421,0.099 0,3.96021 1.14598,3.79131 1.70556,-0.2512 z m -7.60532,-1.6202 c 0.36872,-3.4215 -0.84575,-4.4516 -1.93616,-1.6422 -1.24444,3.2063 -3.12377,2.6044 -3.61593,-1.158 l -0.37947,-2.9009 -0.79487,2.0465 c -0.95311,2.45389 -0.94228,2.1641 -0.16325,4.3839 0.54625,1.5565 1.03679,1.7931 3.62967,1.7506 2.88907,-0.047 3.00758,-0.1375 3.26001,-2.4799 z m 45.15633,1.3263 c 0,-1.3148 -1.31345,-1.0748 -1.57395,0.2877 -0.14494,0.758 0.10662,1.0903 0.67105,0.8865 0.4966,-0.1793 0.9029,-0.7077 0.9029,-1.1742 z m -58.04605,-1.2116 c 0,-0.7221 -0.66665,-1.0904 -1.97355,-1.0904 -2.53208,0 -3.22159,-1.161 -1.04155,-1.7538 2.36433,-0.6428 2.3548,-3.849 -0.0134,-4.4929 -3.17773,-0.864 -5.33425,3.4258 -3.3617,6.6871 0.81835,1.353 1.64673,1.7404 3.72141,1.7404 1.92485,0 2.66874,-0.3039 2.66874,-1.0904 z m -5.03583,-4.7304 c 0,0.46361 0.0675,-0.9338 0.6604,-1.1803 1.28483,-0.5341 2.00089,0.054 1.38329,1.137 -0.55723,0.9768 -1.49974,0.9967 -2.04369,0.043 z m -5.02996,2.913 c 2.70224,-2.9274 0.96545,-8.0051 -2.54706,-7.4466 -1.81472,0.2885 -1.98514,0.1108 -2.38062,-2.4824 -0.23428,-1.5362 -0.42929,-4.0198 -0.43335,-5.5192 -0.004,-1.4994 -0.30936,-2.7262 -0.67844,-2.7262 -1.14147,0 -0.36382,13.3837 1.06657,18.3561 0.49791,1.7308 3.30203,1.6284 4.9729,-0.1817 z m -3.09117,-1.757 c -0.57303,-1.6177 0.1663,-3.3318 1.43705,-3.3318 0.76778,0 1.01193,0.5517 0.85988,1.9431 -0.24318,2.2254 -1.6906,3.1005 -2.29693,1.3887 z m -5.80027,0.8281 c 0.46134,-0.3867 0.83881,-1.9601 0.83881,-3.4964 0,-4.1006 -2.50853,-5.1307 -5.53618,-2.2734 -1.55827,1.4706 -1.48669,3.8804 0.17256,5.8098 1.32707,1.5432 2.65014,1.5315 4.52481,-0.04 z m -3.85856,-2.2535 c 0,-0.5508 0.46576,-1.4202 1.03502,-1.932 1.28267,-1.1532 2.55289,-0.023 1.93492,1.7214 -0.5161,1.457 -2.96994,1.631 -2.96994,0.2106 z m -4.33114,0.9476 c 0.24499,-0.4294 -0.15148,-1.4926 -0.88104,-2.3626 -0.72956,-0.8701 -2.17564,-2.9975 -3.21352,-4.7277 -1.57848,-2.6314 -1.7297,-3.263 -0.92475,-3.8627 0.52926,-0.3943 2.36739,-1.6861 4.08472,-2.8707 2.84912,-1.9653 4.40654,-4.016 3.66232,-4.8222 -0.1611,-0.1745 -2.20653,1.0027 -4.5454,2.6161 l -4.2525,2.9333 -0.33553,-5.4289 c -0.34615,-5.6007 -1.35715,-7.3096 -2.10153,-3.5522 -0.23314,1.1768 -0.45962,6.5015 -0.50329,11.8327 -0.0611,7.459 0.11393,9.6241 0.75943,9.3941 0.46134,-0.1643 0.9328,-1.689 1.04769,-3.3881 l 0.20888,-3.0893 2.68003,4.0545 c 2.70546,4.09297 3.50222,4.6976 4.31449,3.2737 z m 53.98904,-2.1271 c 0,-0.7996 -0.30198,-1.4539 -0.67106,-1.4539 -0.36907,0 -0.67105,0.1368 -0.67105,0.304 0,0.1672 -0.18329,0.8215 -0.40732,1.454 -0.26729,0.7546 -0.0366,1.1499 0.67105,1.1499 0.63101,0 1.07838,-0.6032 1.07838,-1.454 z m -190.32691,28.58031 c -2.13733,-1.1546 -4.59086,-5.8721 -6.35732,-12.2234 -0.44481,-1.5993 -1.18395,-3.5622 -1.64252,-4.3618 -0.45858,-0.7997 -1.01021,-3.41681 -1.22585,-5.81581 l -0.39208,-4.3618 1.22923,5.0888 c 2.41573,10.00071 5.82108,17.02491 10.18024,20.99851 2.30631,2.1024 1.44837,2.4258 -1.7917,0.6755 z m -5.35966,-2.097 c 0.22564,-0.637 0.41024,-1.3143 0.41024,-1.5051 0,-0.1908 0.30198,-0.1447 0.67106,0.1024 0.99597,0.6668 0.81419,1.6024 -0.41025,2.1114 -0.79141,0.329 -0.97131,0.139 -0.67105,-0.7087 z m -61.84387,-13.5341 c 0.41476,-1.3479 1.85938,-1.5715 1.85938,-0.2877 0,0.633 -0.47813,1.151 -1.0625,1.151 -0.58438,0 -0.94297,-0.3885 -0.79688,-0.8633 z m 4.31991,-2.52921 c -0.24606,-0.2666 -0.44738,-0.8227 -0.44738,-1.2359 0,-0.4555 0.31256,-0.4126 0.79408,0.1091 0.43675,0.4731 0.63807,1.0292 0.44737,1.2358 -0.19069,0.2066 -0.54803,0.1575 -0.79407,-0.109 z m 52.67173,-10.42 c 0,-0.9996 0.15232,-1.4085 0.33848,-0.9087 0.18615,0.4998 0.18615,1.3177 0,1.8175 -0.18616,0.4997 -0.33848,0.091 -0.33848,-0.9088 z m -33.65858,-2.2238 c 0,-0.4234 0.30197,-0.5677 0.67105,-0.3206 0.36908,0.2471 0.67106,0.5936 0.67106,0.7699 0,0.1763 -0.30198,0.3206 -0.67106,0.3206 -0.36908,0 -0.67105,-0.3465 -0.67105,-0.7699 z m 24.69996,-1.0475 c -13.70071,0 -4.73934,-17.1308 -23.28757,-41.43762 -4.99527,-6.546 -6.87291,-9.3516 -8.02751,-11.9949 -0.66654,-1.526 -0.65713,-1.596 0.0587,-0.4368 3.04609,4.9333 9.3471,12.6718 14.04712,17.25212 5.68966,5.5447 12.62026,14.9097 14.40554,19.4656 1.42612,3.6394 3.71409,15.214 3.45267,17.4668 -0.21155,1.823 -0.22637,1.8158 -0.64891,-0.3152 z m -13.66173,-3.9634 c -1.02298,-2.8247 -2.86672,-6.41 -4.0972,-7.9673 -3.79512,-4.8032 -11.0431,-18.5773 -18.82053,-35.76632 -8.03686,-17.76259 -10.17191,-21.48749 -14.4983,-25.29433 -1.54714,-1.3613 -2.25984,-2.2609 -1.58376,-1.9991 0.67607,0.2617 1.50563,0.4759 1.84346,0.4759 1.14376,0 5.88076,5.14634 7.89789,8.58034 1.1032,1.87819 2.51457,5.37759 3.13636,7.77659 0.62179,2.3991 2.52095,7.1426 4.22037,10.5412 1.69941,3.3985 4.07089,8.3844 5.26994,11.07972 2.94935,6.6297 7.09038,13.1415 11.58747,18.2212 2.05498,2.3212 4.27688,5.5732 4.93755,7.2267 1.06343,2.6615 2.63439,11.4542 2.1509,12.0387 -0.1013,0.1224 -1.02115,-2.0886 -2.04415,-4.9133 z m 19.71109,-1.605 c -4.72674,-10.8677 -13.4905,-23.3365 -24.69959,-35.14192 -2.79095,-2.9394 -5.6904,-7.2066 -8.8912,-13.0854 -2.61233,-4.798 -5.60846,-10.0912 -6.65806,-11.76259 -1.0496,-1.6714 -1.90836,-3.5215 -1.90836,-4.1113 0,-2.13774 -4.8395,-7.41364 -8.94116,-9.74734 -2.27941,-1.2969 -3.81188,-2.3601 -3.4055,-2.3627 1.32116,-0.01 7.2777,3.6547 8.67462,5.3344 1.08389,1.3034 1.9102,1.5797 4.06006,1.3576 2.67282,-0.2761 11.61581,2.0791 9.67777,2.5487 -0.55362,0.1342 -1.53222,1.2379 -2.17466,2.45274 -0.64972,1.2285 -1.49053,1.9928 -1.89468,1.7222 -0.45951,-0.3076 -0.21513,-0.8746 0.66479,-1.5423 1.93238,-1.46624 1.73699,-2.42724 -0.49351,-2.42724 -1.0367,0 -2.47107,-0.4803 -3.1875,-1.0674 -1.14294,-0.9365 -4.32234,-1.5623 -4.32234,-0.8508 0,0.5905 5.50363,10.88293 10.744,20.09253 4.75249,8.3522 6.9974,11.389 15.07039,20.38692 5.21732,5.8151 10.86651,12.6851 12.55375,15.2665 4.2046,6.433 8.08636,14.8205 7.79408,16.841 -0.18503,1.2791 -0.80223,0.3744 -2.6629,-3.9036 z m -32.70447,-1.0786 c -0.87572,-3.0562 -3.16816,-9.0354 -5.0943,-13.2871 -5.184,-11.4429 -5.09,-12.2363 0.39439,-3.3288 4.96868,8.0699 7.94799,15.466 7.97984,19.81 0.0309,4.2055 -1.62046,2.5974 -3.27993,-3.1941 z m -27.10555,4.3649 c -0.53613,-0.5808 0.0699,-1.716 0.9161,-1.716 0.34729,0 0.63144,0.4907 0.63144,1.0905 0,1.1242 -0.79181,1.4442 -1.54754,0.6255 z m 21.85393,-3.3517 c -1.27319,-1.7515 -4.54933,-9.816 -3.87352,-9.5351 0.9238,0.384 4.8125,6.7729 5.36127,8.8081 0.47629,1.7664 -0.41541,2.2022 -1.48775,0.727 z m 236.08116,-4.8151 c -0.47098,-0.9534 -0.71649,-10.6834 -0.71649,-28.39622 0,-23.4671 -0.12995,-26.94569 -1.00658,-26.94569 -0.84105,0 -1.00657,-1.4943 -1.00657,-9.08724 l 0,-9.0871 4.02631,0 4.02632,0 0,9.0024 c 0,8.37294 -0.0933,9.02884 -1.33408,9.38034 -1.29814,0.3677 -1.3388,1.127 -1.50986,28.19451 -0.13027,20.6127 -0.38127,27.8908 -0.96919,28.103 -0.43635,0.1575 -1.11579,-0.3663 -1.50986,-1.164 z m 1.96772,-1.8665 c 0,-0.5761 -0.27033,-1.2285 -0.60074,-1.4498 -0.69078,-0.4625 -1.52372,1.4075 -0.91881,2.0628 0.72006,0.7801 1.51955,0.4575 1.51955,-0.613 z m 126.15782,-0.043 0,-1.8174 14.7632,0 14.7631,0 0,1.8174 0,1.8174 -14.7631,0 -14.7632,0 z m 22.8158,-8.9304 0,-5.0116 -6.6964,-6.1146 -6.6963,-6.11452 -0.014,-3.8527 c -0.011,-3.0705 0.1733,-3.7346 0.9095,-3.2713 0.5081,0.3198 5.0397,4.3434 10.0703,8.94152 l 9.1465,8.3602 -0.1722,5.8158 -0.1722,5.8158 -3.1875,0.2215 -3.1875,0.2216 0,-5.0117 z m -8.8911,-18.51292 c -0.4228,-1.3756 -2.5168,-1.5711 -2.5168,-0.235 0,0.6743 0.5738,1.1437 1.398,1.1437 0.82,0 1.2826,-0.3757 1.1188,-0.9087 z m -416.0344,7.45152 c -0.25794,-0.9996 -0.81517,-3.7803 -1.2383,-6.17932 -0.94279,-5.3452 -2.8128,-9.9562 -5.51519,-13.5992 -3.04362,-4.103 -1.92906,-3.9302 2.33203,0.3615 3.29162,3.3154 3.85656,4.2989 4.53466,7.895 0.83275,4.4164 0.73081,14.79282 -0.1132,11.52202 z m 414.7357,-12.98002 -3.1437,-2.6498 -0.2115,-9.8142 -0.2116,-9.81409 -23.31907,-0.1912 -23.31897,-0.1912 0,-2.89844 0,-2.8985 4.3618,0 4.3618,0 0,-43.61843 0,-43.6185 4.6974,0 4.6974,0 -0.01,21.264 c -0.009,19.9961 -0.084,21.394 -1.3377,23.4449 l -1.3333,2.1809 -0.01,-21.9909 0,-21.991 -2.3486,0 -2.3487,0 0,41.4375 0,41.43763 2.3487,0 2.3486,0 0,-12.7525 c 0,-11.7476 0.1058,-12.8754 1.3422,-14.3131 l 1.3421,-1.5606 0,15.0545 0,15.0545 14.25974,-0.1962 14.2599,-0.1962 0,-17.0839 0,-17.08393 -1.8632,-3.4338 c -3.5236,-6.4936 -11.5107,-9.5666 -16.9757,-6.5312 -3.1524,1.7508 -4.33997,3.1332 -9.02974,10.5103 -1.9699,3.09873 -3.9214,5.63403 -4.3368,5.63403 -1.4047,0 -3.2458,-1.9623 -2.8608,-3.0492 0.2101,-0.59313 2.6969,-4.73033 5.5262,-9.19373 5.63607,-8.8911 8.52404,-11.5936 14.41424,-13.4886 4.5484,-1.4633 7.7706,-1.4767 11.5089,-0.048 3.9169,1.4972 6.1313,3.94618 8.4201,9.3124 l 1.9073,4.4719 0.1977,20.17353 0.1976,20.1735 11.0425,0 11.0425,0 0,-18.4939 0,-18.49403 2.5164,-0.2256 2.5165,-0.2256 0.1942,-6.3829 0.1941,-6.3828 -2.3751,-2.4267 c -3.3935,-3.46723 -3.2414,-7.5357 0.3571,-9.5516 2.6692,-1.4953 4.2899,-1.3289 6.4238,0.6596 2.732,2.5458 2.602,6.5398 -0.2981,9.1626 -2.1295,1.926 -2.1473,1.9974 -2.1473,8.6137 0,6.5887 0.02,6.6716 1.638,6.6716 0.9009,0 1.8823,0.4089 2.1809,0.9087 0.2986,0.4998 0.6939,8.76003 0.8784,18.35613 l 0.3356,17.4474 3.1875,0.2215 3.1875,0.2216 0,2.8681 0,2.86804 -20.4517,0 -20.4516,0 -0.1832,12.64579 -0.1833,12.6456 -3.1437,-2.6497 z m 33.4539,-32.51213 c 0.4863,-1.3728 -1.3529,-3.5938 -2.3971,-2.8947 -0.8103,0.5426 -0.9926,2.7935 -0.288,3.5568 0.804,0.8711 2.2701,0.5095 2.6851,-0.6621 z m -0.019,-10.1187 c -0.2339,-0.6603 -0.9511,-1.0908 -1.5939,-0.9567 -1.4546,0.3035 -1.9668,2.7497 -0.7468,3.5668 1.2116,0.8115 2.8898,-1.0599 2.3407,-2.6101 z m -0.094,-8.3628 c 0,-1.1351 -0.4335,-1.888 -1.1763,-2.043 -1.3284,-0.2771 -2.1922,1.4636 -1.5817,3.1872 0.64,1.8068 2.758,0.9281 2.758,-1.1442 z m 0,-8.7237 c 0,-1.18133 -0.4324,-1.88773 -1.2616,-2.06073 -1.6331,-0.3407 -2.5207,1.2439 -1.666,2.97413 0.9479,1.9188 2.9276,1.3011 2.9276,-0.9134 z m -66.76964,-1.80013 c 0,-0.5621 -0.3309,-1.2436 -0.7354,-1.5144 -1.0567,-0.7074 -2.8807,1.5295 -2.386,2.926 0.3317,0.93653 0.6946,1.01743 1.7693,0.39433 0.7437,-0.43123 1.3521,-1.24383 1.3521,-1.80593 z m -242.45655,54.32416 c 0.0337,0.33692 -0.80322,-2.2627 -1.43564,-4.3619 l -1.14986,-3.8166 -3.4691,-0.01 c -1.908,0 -4.9871,-0.204 -6.84244,-0.4455 l -3.37333,-0.4392 -1.24209,4.492 -1.24209,4.4921 -2.76615,-0.4856 c -4.29843,-0.7546 -13.25842,-4.1105 -13.60771,-5.0965 -0.17262,-0.4874 0.13004,-2.7276 0.67259,-4.9784 l 0.98644,-4.09229 -3.12584,-1.9112 c -1.71922,-1.0511 -4.29729,-2.71564 -5.72907,-3.69894 -1.43178,-0.9832 -2.79066,-1.484 -3.01974,-1.1127 -0.22907,0.3712 -1.58094,2.1974 -3.00413,4.05814 -2.33881,3.0578 -2.71133,3.2892 -3.8742,2.4068 -2.84567,-2.159 -11.32108,-10.26954 -11.32108,-10.83334 0,-0.3317 1.20453,-2.5245 2.67671,-4.8731 l 2.67673,-4.2701 -3.80069,-5.7974 -3.80069,-5.7973 -3.63542,1.9289 -3.63543,1.9289 -1.57004,-2.131 c -1.59231,-2.16122 -3.99753,-8.52513 -4.73813,-12.53673 -0.38036,-2.0603 -0.17178,-2.3425 3.30045,-4.4654 l 3.70649,-2.2662 -0.66955,-2.6269 c -0.36828,-1.44489 -0.87502,-4.6449 -1.12617,-7.1113 l -0.45663,-4.4842 -4.1389,-0.3635 c -2.2764,-0.19992 -4.36906,-0.6132 -4.65037,-0.9184 -0.77977,-0.846 -1.11811,-12.1502 -0.46153,-15.4203 l 0.58018,-2.8896 4.33531,-0.2446 c 2.38442,-0.1345 4.5202,-0.4698 4.74617,-0.7452 0.22598,-0.2754 0.89722,-2.659 1.49167,-5.2969 0.59444,-2.6379 1.26885,-5.3271 1.49868,-5.976 0.31967,-0.9024 -0.47784,-1.6089 -3.39304,-3.0055 -3.73788,-1.7909 -3.80185,-1.8714 -3.33674,-4.2017 0.52452,-2.628 3.14454,-8.58301 5.09382,-11.5776 l 1.2576,-1.932 4.19252,1.3812 c 2.30589,0.7597 4.21956,1.3837 4.25261,1.3868 0.033,0 1.48898,-1.98779 3.23539,-4.4241 l 3.17532,-4.4297 -1.80956,-2.8287 c -1.70838,-2.6707 -1.74997,-2.9273 -0.74394,-4.5907 1.5681,-2.5926 7.88096,-9.1654 8.803,-9.1654 0.4371,0 1.98659,1.10529 3.44335,2.4561 l 2.64863,2.456 4.35045,-2.8035 c 2.39273,-1.54192 4.78273,-3.0776 5.31108,-3.4126 0.82001,-0.5199 0.8303,-1.1134 0.0703,-4.0541 -0.52132,-2.0172 -0.64135,-3.6989 -0.28958,-4.0575 0.97547,-0.9944 10.98722,-5.1238 12.42262,-5.1238 0.85806,0 2.05056,1.2747 3.41182,3.6469 1.42076,2.476 2.43531,3.5381 3.15978,3.3079 0.58689,-0.1865 3.21226,-0.5567 5.83414,-0.8226 l 4.76706,-0.4834 0.60136,-3.3696 0.60137,-3.36969 5.70394,0.19229 c 8.72981,0.2943 8.72369,0.29114 8.72369,4.5189 l 0,3.593 2.85197,0.7772 c 1.56859,0.4274 4.44712,1.3876 6.39674,2.1338 l 3.54476,1.3566 1.31078,-2.7834 c 0.72094,-1.5309 1.61946,-2.9902 1.99675,-3.2428 0.37728,-0.2526 3.41999,1.1024 6.76157,3.0111 6.47116,3.6963 6.3578,3.4845 4.43647,8.2869 l -1.03108,2.5772 3.75185,3.2386 c 7.68945,6.63754 6.43941,6.1873 9.93777,3.5798 3.54133,-2.6396 2.70749,-3.18594 8.17746,5.3573 l 3.18316,4.9716 -2.57951,2.5609 -2.57952,2.561 1.77003,3.3721 c 0.97353,1.85469 2.26089,4.63789 2.86084,6.185 l 1.09081,2.8129 3.55812,-0.453 3.55813,-0.4531 1.28917,4.5465 c 0.70902,2.5005 1.49655,5.8953 1.75003,7.544 l 0.46086,2.9976 -3.11447,1.3642 c -3.0181,1.32198 -3.10278,1.443 -2.73623,3.9086 0.20803,1.3995 0.38156,4.8927 0.38562,7.7629 l 0.007,5.2184 3.77608,0.9155 3.77607,0.9155 -0.38675,4.4072 c -0.21272,2.424 -0.75592,6.1247 -1.20711,8.2238 l -0.82037,3.8166 -3.78848,0 -3.78849,0 -2.58728,6.9355 -2.58727,6.93543 3.22936,3.5519 3.22937,3.5519 -2.38857,3.5069 c -1.31372,1.9288 -3.48085,4.6461 -4.81586,6.0383 l -2.4273,2.5314 -3.16262,-1.9101 -3.16262,-1.9102 -4.82662,4.8528 -4.82664,4.8528 1.92976,3.5795 c 1.06135,1.9688 1.79281,3.81964 1.62545,4.11304 -0.48077,0.8427 -10.30756,7.16699 -11.13624,7.16699 -0.41024,0 -2.09813,-1.2004 -3.75086,-2.66749 l -3.00497,-2.6676 -3.10361,1.3064 c -1.707,0.7185 -4.25985,1.6662 -5.67302,2.10609 l -2.56939,0.7997 0.21995,4.1365 c 0.12098,2.2752 0.0354,4.3365 -0.19003,4.5808 -0.34117,0.3696 -12.41168,2.5832 -14.08583,2.5832 -0.28719,0 -0.65076,-0.2453 -0.80793,-0.5452 z m -5.83291,-18.58873 0,-2.4135 -6.06172,-0.8743 c -23.29215,-3.35949 -42.83108,-22.0857 -49.04457,-47.00433 -1.95631,-7.8456 -2.09952,-23.7098 -0.28208,-31.2487 2.86028,-11.8647 8.02256,-21.6831 15.84702,-30.14 23.11406,-24.9825 60.32126,-25.0389 83.19624,-0.1261 10.62762,11.5744 16.37093,25.5566 17.20515,41.8865 1.70758,33.4256 -20.63994,62.4775 -51.29754,66.68703 l -6.20723,0.8523 0,2.4976 0,2.49764 5.06417,-0.4972 c 15.50192,-1.52198 32.28,-11.13004 42.21046,-24.17244 10.71294,-14.07023 15.58981,-29.58573 14.93072,-47.50143 -0.3962,-10.7695 -1.98774,-18.048 -5.87026,-26.846 -8.41406,-19.0668 -24.0346,-32.9654 -42.71182,-38.0035 -7.91004,-2.1337 -21.59745,-2.285 -29.31998,-0.324 -12.71718,3.2291 -21.60628,8.7133 -31.27698,19.2965 -7.9979,8.7525 -11.7154,15.1049 -15.22409,26.0146 -11.97889,37.2465 7.73432,78.21853 42.95928,89.28683 4.78612,1.50384 9.25285,2.34724 13.03126,2.46054 2.79842,0.084 2.85197,0.04 2.85197,-2.32804 z m 0,-9.9451 c 0,-2.6171 0.16777,-2.9079 1.67764,-2.9079 1.50986,0 1.67763,0.2908 1.67763,2.9079 0,2.7987 0.0819,2.9075 2.18092,2.8953 5.0539,-0.029 14.7697,-2.9516 20.82262,-6.2632 33.59969,-18.3823 41.02019,-66.80683 14.63554,-95.50823 -8.84121,-9.6175 -18.06158,-14.8222 -30.38633,-17.1522 -26.97691,-5.1 -53.99369,13.3035 -62.0099,42.2405 -1.55819,5.6247 -1.82148,7.9198 -1.87648,16.3569 -0.0678,10.3965 0.64144,14.6541 3.89408,23.3779 4.70678,12.62393 14.88629,24.49563 26.23297,30.59383 6.26044,3.3646 15.29866,6.1186 20.63487,6.2875 2.50074,0.079 2.51644,0.062 2.51644,-2.8283 z m -4.69736,-5.8459 c -7.77948,-1.0074 -15.43409,-4.4753 -22.29124,-10.0989 -7.67354,-6.2931 -13.0002,-14.46283 -16.38428,-25.12923 -1.63948,-5.1675 -1.84635,-6.8692 -1.85575,-15.2664 -0.0115,-10.3273 0.76046,-14.32 4.36839,-22.5925 5.7779,-13.2481 18.04721,-23.9564 31.50838,-27.4998 6.3571,-1.6734 16.55643,-1.5186 23.14982,0.3513 28.62829,8.1191 43.3616,42.6887 30.49411,71.5502 -9.00272,20.19293 -28.12158,31.38773 -48.98943,28.68533 z m 3.27626,-13.2073 c 0.88838,-4.6595 2.22863,-8.12803 3.459,-8.95183 1.46346,-0.9798 3.84216,1.8882 5.98794,7.21973 1.22165,3.0354 2.62219,5.5189 3.1123,5.5189 0.8296,0 7.72154,-2.7425 8.20411,-3.2647 0.11948,-0.1293 -0.23105,-1.1742 -0.77897,-2.3221 -1.76648,-3.70063 -3.15488,-10.58743 -2.34705,-11.64193 1.27674,-1.6666 3.18245,-1.03063 8.08283,2.6976 l 4.78875,3.6433 1.62696,-1.6441 c 0.89484,-0.9043 2.22716,-2.5516 2.96073,-3.6609 l 1.33375,-2.0167 -3.74804,-4.3857 c -3.69105,-4.31901 -4.30505,-5.8591 -3.13445,-7.8619 0.47119,-0.8061 1.76963,-0.91118 6.31891,-0.5113 l 5.72587,0.5033 0.41606,-3.1235 c 0.90545,-6.7975 0.8189,-7.4665 -0.99549,-7.6973 -5.63562,-0.7166 -8.82134,-1.8182 -9.76366,-3.3762 -1.53387,-2.5361 -0.5921,-3.8394 4.80694,-6.6527 2.72619,-1.4205 4.94427,-2.9688 4.92906,-3.4407 -0.0673,-2.0865 -3.05244,-7.3866 -4.00447,-7.1099 -0.55042,0.16 -2.633,0.896 -4.62796,1.6357 -4.21558,1.5629 -6.18675,1.6903 -7.31096,0.4724 -1.46154,-1.5833 -0.84215,-4.5928 1.87894,-9.1295 1.47632,-2.4613 2.68422,-4.5973 2.68422,-4.7466 0,-0.1493 -1.332,-1.3078 -2.96,-2.5743 l -2.95998,-2.3029 -3.91831,4.4399 c -4.32556,4.90136 -5.97701,5.9189 -7.86459,4.8458 -1.13648,-0.6461 -1.22945,-1.3934 -0.93417,-7.5092 0.37608,-7.789 0.5166,-7.5949 -5.49689,-7.5949 l -3.89259,0 -0.48435,5.6341 c -0.59052,6.869 -1.16655,8.1784 -3.59771,8.1784 -2.06391,0 -3.99398,-1.93877 -7.41554,-7.4492 l -2.14275,-3.4509 -2.82117,1.5347 c -1.55165,0.84408 -3.8012,2.3308 -4.99901,3.3036 l -2.17785,1.7689 3.09128,6.408 c 4.78237,9.91351 3.47139,11.5968 -6.36353,8.1705 -4.42667,-1.5422 -6.25595,-1.8967 -6.69206,-1.2969 -0.76498,1.0521 -3.46289,8.9497 -3.46289,10.1369 0,0.4933 2.42447,2.1558 5.38771,3.6945 7.61797,3.9558 8.76231,7.2825 3.15578,9.174 -6.24956,2.1085 -9.25658,3.7896 -8.93851,4.9972 1.99302,7.5669 1.94452,7.4655 3.36724,7.0404 3.16415,-0.9454 10.46655,-1.9411 11.10426,-1.5141 1.59758,1.0696 0.58018,4.50421 -2.68381,9.0599 l -3.3585,4.6876 2.83316,3.1273 c 1.55828,1.72007 3.20788,3.12743 3.66587,3.12743 0.45799,0 1.61259,-1.10773 2.56578,-2.46153 2.44671,-3.4752 6.66019,-6.4973 8.28137,-5.9398 1.70548,0.5864 2.13623,3.2572 1.40639,8.72023 -0.32379,2.4235 -0.59477,4.9696 -0.60219,5.6578 -0.0146,1.3558 2.87835,2.5688 6.395,2.6814 1.98043,0.063 2.07451,-0.081 2.90724,-4.4482 z m 1.4211,-16.66933 c 0,-5.3156 -0.18066,-6.4419 -1.03331,-6.4419 -1.79583,0 -6.1137,-2.7595 -7.88381,-5.0385 -3.86633,-4.9778 -4.19963,-13.0798 -0.75598,-18.3761 5.94604,-9.1451 18.99656,-8.2672 23.59745,1.5873 2.77309,5.9397 1.63358,13.7393 -2.61891,17.9256 -1.91109,1.8814 -5.48928,3.9017 -6.91027,3.9017 -0.85647,0 -1.0399,1.075 -1.0399,6.0945 0,5.9235 -0.047,6.1043 -1.67763,6.442 l -1.67764,0.3474 z m 4.86699,-16.6081 c 2.22229,-1.8937 2.79889,-4.5769 1.54707,-7.1994 -1.11147,-2.3285 -2.24541,-2.9897 -5.12684,-2.9897 -4.51487,0 -6.50976,7.027 -2.87435,10.1249 2.22196,1.8934 4.28349,1.9139 6.45412,0.064 z m -115.94014,78.47736 c -0.32701,-0.5732 -1.61082,-0.6956 -3.96081,-0.3775 -3.09008,0.4183 -3.6224,0.2848 -4.784,-1.1994 -1.30139,-1.6628 -1.30124,-1.6648 0.0351,-0.4606 1.00623,0.9068 2.13983,1.1105 4.52961,0.8142 3.29157,-0.4082 4.02528,-1.4559 2.18092,-3.1141 -0.55362,-0.4978 -1.00658,-1.5408 -1.00658,-2.3178 0,-0.777 -0.35141,-2.1272 -0.78092,-3.00059 -0.70592,-1.4354 -0.67371,-1.4921 0.33553,-0.5901 0.61405,0.5487 1.11644,1.45919 1.11644,2.02329 0,0.5641 0.77524,2.683 1.72275,4.7086 0.94751,2.0256 1.5817,3.8358 1.40931,4.0226 -0.1724,0.1867 -0.53118,-0.042 -0.7973,-0.5086 z m 14.82024,-1.9434 c -0.36417,-1.0361 -0.28709,-1.1196 0.37565,-0.407 0.45861,0.4932 0.66479,1.0798 0.45818,1.3036 -0.20661,0.2238 -0.58183,-0.1797 -0.83383,-0.8966 z m -20.63522,-4.0071 c -0.99143,-1.112 -1.57252,-2.0218 -1.29132,-2.0218 0.63677,0 3.76303,3.5524 3.37617,3.8363 -0.15524,0.114 -1.09342,-0.7026 -2.08485,-1.8145 z m 17.02186,-2.9305 c -4.37282,-8.58393 -8.70806,-13.11013 -14.54821,-15.18903 -1.17508,-0.4183 -1.13333,-0.4848 0.33553,-0.5343 3.93513,-0.1325 11.45177,5.0881 12.73479,8.8448 0.43858,1.28424 1.26457,3.47994 1.83555,4.87934 3.67984,9.01919 3.55992,9.68939 -0.35766,1.99919 z m -44.41005,3.8166 c 0,-0.3998 0.30197,-0.727 0.67105,-0.727 0.36908,0 0.67106,0.3272 0.67106,0.727 0,0.3998 -0.30198,0.727 -0.67106,0.727 -0.36908,0 -0.67105,-0.3272 -0.67105,-0.727 z m -2.01316,-2.9079 c 0,-0.3998 0.3198,-0.727 0.71066,-0.727 0.39086,0 0.52403,0.3272 0.29592,0.727 -0.2281,0.3998 -0.5479,0.727 -0.71065,0.727 -0.16276,0 -0.29593,-0.3272 -0.29593,-0.727 z m -2.59233,-7.07259 c -2.0063,-4.30564 -4.48207,-13.13084 -3.86976,-13.79414 0.54735,-0.593 2.21059,3.5712 3.10788,7.7812 0.46872,2.1991 1.43623,5.2568 2.15002,6.79494 0.7138,1.5382 1.14554,2.9616 0.95942,3.1632 -0.18612,0.2017 -1.24252,-1.5737 -2.34756,-3.9452 z m 215.31602,-0.92414 0,-2.9079 5.87614,0 c 6.22629,0 10.12089,-0.831 11.01049,-2.3494 0.29711,-0.5071 0.54482,-9.3573 0.55047,-19.6671 0.0102,-18.63543 0.0183,-18.74063 1.37802,-17.95223 0.75226,0.4361 2.63563,0.693 4.18527,0.5708 2.56318,-0.2021 2.96977,-0.5175 4.50397,-3.4936 l 1.68643,-3.2713 0.1772,23.08143 0.17718,23.0814 2.67479,0 c 2.67321,0 2.67478,0 2.67478,2.9079 l 0,2.90794 -17.44737,0 -17.44737,0 z m 114.47716,-9.9572 c -0.23105,-7.1184 -0.60011,-17.4406 -0.82013,-22.9384 l -0.40003,-9.99593 2.06274,0 c 2.27566,0 1.90233,-0.8883 4.73539,11.26813 2.83529,12.166 6.89666,20.1844 11.80032,23.2974 7.5688,4.8049 15.7015,1.9184 19.3046,-6.8516 1.8624,-4.533 2.3,-13.2688 0.922,-18.404 -1.4397,-5.36503 -4.0423,-7.76663 -11.5811,-10.68683 -17.61064,-6.8214 -21.59195,-10.58712 -24.67742,-23.3402 l -0.4397,-1.8174 1.19295,1.8174 c 3.57693,5.44928 7.96226,8.3073 18.97587,12.3668 12.8845,4.7491 17.6106,8.6908 21.7403,18.1317 1.8687,4.27193 2.0769,5.43033 2.0318,11.30253 -0.038,4.9738 -0.4142,7.552 -1.5679,10.7512 -2.3779,6.5943 -6.6352,12.89718 -10.4056,15.40544 l -3.3001,2.1954 -14.57697,0.2205 -14.57693,0.2205 z m 7.52021,9.0848 c 0,-3.35808 -0.40087,-6.5785 -3.22105,-4.9434 -1.6661,0.966 -1.76797,4.0209 -0.16776,5.0306 1.562,0.9856 2.41892,0.9635 3.38881,-0.087 z m -2.55,-2.399 c 0,-0.5997 0.45296,-1.0904 1.00658,-1.0904 0.55362,0 1.00658,0.4907 1.00658,1.0904 0,0.5998 -0.45296,1.0905 -1.00658,1.0905 -0.55362,0 -1.00658,-0.4907 -1.00658,-1.0905 z m -51.67105,2.0265 c 0,-2.1936 0.43341,-1.74553 -12.58224,-13.0111 l -8.89144,-7.6959 0.006,-14.64993 0.006,-14.6499 3.18151,-4.4076 c 1.74983,-2.42419 5.27482,-7.0627 7.83331,-10.3079 3.98209,-5.0508 4.81283,-5.7768 5.77009,-5.043 2.23408,1.7125 8.7031,8.3991 8.7031,8.9958 0,0.3368 -3.01978,3.87146 -6.71053,7.8548 l -6.71053,7.2425 0,12.4559 c 0,14.21283 -0.78562,11.94313 7.86975,22.73553 4.46167,5.5632 4.88025,6.3582 4.88025,9.2689 0,2.91144 -0.14353,3.18384 -1.67763,3.18384 -1.37714,0 -1.67763,-0.3532 -1.67764,-1.97194 z m -7.38158,-13.1855 c 0,-0.3399 -0.96684,-2.05731 -2.14854,-3.8166 l -2.14854,-3.1987 -0.25101,-13.08563 -0.251,-13.0855 5.75481,-6.7368 c 3.16512,-3.70521 5.75481,-7.0037 5.75481,-7.3298 0,-0.3262 -1.18438,-1.6241 -2.63196,-2.8844 l -2.63196,-2.2913 -6.44168,8.2707 -6.44168,8.2707 0.18219,14.422 0.18219,14.42203 4.9389,3.8306 c 4.85869,3.76839 6.13347,4.4361 6.13347,3.2127 z m -7.18871,-5.3914 -2.82686,-2.3509 -0.0251,-13.88643 -0.0251,-13.8864 5.53619,-6.9656 c 3.04486,-3.83103 5.86685,-6.9874 6.27099,-7.0141 0.40415,-0.027 1.27434,0.5974 1.93377,1.3867 1.16791,1.3981 1.05763,1.60302 -4.25783,7.9106 l -5.4568,6.4753 0,13.4923 c 0,8.16203 0.26367,13.66883 0.66744,13.93913 0.92938,0.6223 2.17999,3.2764 1.53709,3.2621 -0.2898,-0.01 -1.79899,-1.0696 -3.35377,-2.3627 z m 27.32029,17.7821 c -2.9442,0 1.26293,-5.2263 5.8501,-10.5711 1.42514,-1.6605 3.69761,-4.6002 5.04993,-6.5327 l 2.45876,-3.5134 -0.0159,-11.753 -0.0159,-11.75303 -7.08327,-7.7366 c -3.89583,-4.25516 -6.89744,-8.0624 -6.67033,-8.4605 0.22711,-0.3981 2.48263,-2.71157 5.01219,-5.1411 l 4.59927,-4.4174 4.97011,6.3296 c 2.73351,3.48122 6.25349,8.1067 7.82208,10.2787 l 2.85197,3.9492 0,15.0558 0,15.05573 -1.84539,1.3057 c -2.44688,1.7311 -14.68715,12.3406 -17.44737,15.1228 -1.24224,1.2522 -2.18092,2.9192 -2.18092,3.8731 0,1.30194 -0.37363,1.67494 -1.67764,1.67494 -1.49559,0 -1.67763,-0.3002 -1.67763,-2.76674 z m 17.04901,-15.5023 5.09573,-3.7294 0,-14.53273 0,-14.5327 -6.45148,-8.3391 -6.45146,-8.339 -2.59753,2.7478 c -3.00583,3.17972 -3.38038,2.21539 4.24845,10.9388 l 4.54149,5.1931 0,13.2115 c 0,12.77173 -0.053,13.28853 -1.59343,15.52563 -2.19525,3.1882 -3.27656,5.5856 -2.51932,5.5856 0.3475,0 2.92488,-1.67832 5.72755,-3.7295 z m -2.95691,0.4716 c 0,-0.2397 0.64444,-1.3802 1.43209,-2.5343 1.3068,-1.9148 1.45632,-3.232 1.70929,-15.05523 l 0.27722,-12.9569 -2.83384,-3.2714 c -1.55857,-1.79922 -4.19474,-4.8153 -5.85807,-6.7024 -2.96676,-3.3658 -3.0008,-3.4591 -1.79119,-4.9071 0.67817,-0.8118 1.56371,-1.4574 1.96785,-1.4346 0.40414,0.023 3.2261,3.1702 6.271,6.9943 l 5.53618,6.9529 0,14.0268 0,14.02693 -2.51645,2.12 c -3.05258,2.57166 -4.19408,3.3177 -4.19408,2.741 z m -295.12888,14.0171 c -1.20215,-1.3023 -0.97702,-2.9046 0.36908,-2.6266 0.64589,0.1333 1.27084,0.9752 1.38878,1.8707 0.2357,1.7898 -0.50825,2.1097 -1.75786,0.7559 z m 377.66841,-15.1816 c 0,-9.6119 0.1896,-12.3509 0.8388,-12.117 0.6163,0.222 0.8877,3.5174 1.0228,12.4191 0.1588,10.4586 0.044,12.117 -0.8388,12.117 -0.8764,0 -1.0228,-1.777 -1.0228,-12.4191 z m -358.50986,6.8488 c 0.46135,-0.2016 1.21629,-0.2016 1.67763,0 0.46135,0.2017 0.0839,0.3667 -0.83881,0.3667 -0.9227,0 -1.30017,-0.165 -0.83882,-0.3667 z m -5.99753,-1.4691 c 0.48441,-0.21 1.0632,-0.1841 1.28619,0.057 0.22298,0.2416 -0.17336,0.4134 -0.88076,0.3818 -0.78174,-0.035 -0.94075,-0.2071 -0.40543,-0.4392 z m -9.93997,-1.3208 c -1.39967,0 -3.10362,-1.0165 -4.02631,-1.0613 -1.72267,-0.084 -4.02284,-1.9244 -6.3798,-5.1055 -1.33645,-1.8037 -1.33645,-1.8042 0.005,-0.7614 0.73816,0.5739 1.94605,1.6108 2.68421,2.3043 0.73816,0.6935 3.75789,2.2442 6.71053,3.4461 2.95263,1.2018 4.91546,2.179 4.36184,2.1714 -0.55362,-0.01 -2.06349,-0.4547 -3.35527,-0.9936 z m -23.04654,-3.1586 c 0.23865,-1.0616 1.29413,-3.2977 2.34549,-4.9691 1.05137,-1.6714 1.91158,-3.3695 1.91158,-3.7737 0,-1.4445 1.56154,-1.7463 2.42399,-0.4685 0.75669,1.121 0.66405,1.4838 -0.66913,2.6198 -0.85107,0.7253 -2.05985,2.7723 -2.68616,4.5489 -0.68208,1.9349 -1.6643,3.3792 -2.44922,3.6016 -1.12633,0.319 -1.24949,0.1 -0.87655,-1.559 z m 397.6773,-44.39783 c 0.1168,-18.088 0.3471,-23.6367 0.991,-23.869 1.3492,-0.4869 1.2018,44.096 -0.1522,46.0241 -0.8795,1.2523 -0.9739,-1.2418 -0.8388,-22.1551 z m -157.8142,16.984 c -2.65109,-1.2464 -4.04138,-2.9819 -4.07153,-5.0823 -0.0117,-0.8178 2.94546,-7.197 6.57154,-14.176 3.62608,-6.979 9.23883,-17.8415 12.4728,-24.1389 3.23395,-6.2974 6.08961,-11.4498 6.34589,-11.4498 0.25629,0 2.22728,1.9282 4.38,4.2849 l 3.91403,4.2849 -11.92888,23.1584 c -6.56088,12.7371 -12.2573,23.3987 -12.65872,23.6924 -1.07644,0.7877 -2.46753,0.629 -5.02513,-0.5736 z m 7.29152,-9.0001 c 0.46908,-0.9495 0.47664,-2.0278 0.0233,-3.3196 -0.528,-1.5045 -1.04944,-1.8641 -2.44042,-1.6833 -3.99831,0.5199 -4.26368,6.4093 -0.2888,6.4093 1.30169,0 2.25627,-0.4961 2.70594,-1.4064 z m 130.04168,6.6423 c -1.985,-3.2495 -7.3212,-8.1579 -11.1993,-10.3012 -1.3195,-0.7293 -5.2061,-2.3202 -8.6368,-3.5354 -7.83038,-2.7736 -11.25456,-4.9394 -15.06145,-9.5264 -3.7268,-4.4905 -5.14436,-7.6604 -6.08434,-13.6052 -1.68718,-10.6705 4.12522,-24.9345 11.93585,-29.2913 3.14232,-1.7528 4.01434,-1.87345 15.17064,-2.0988 l 11.8366,-0.2391 0.4198,6.7819 c 0.23088,3.73 0.5903,12.0161 0.7987,18.4134 0.2083,6.3974 0.5292,12.6948 0.713,13.9943 0.3238,2.2893 0.2603,2.3626 -2.0449,2.3626 -2.0221,0 -2.3791,-0.2462 -2.3791,-1.6408 0,-0.9024 -0.7263,-4.5004 -1.6139,-7.9955 -3.9536,-15.5674 -9.2313,-22.3505 -17.3903,-22.3505 -12.7617,0 -17.16552,25.6414 -5.89449,34.3206 1.40728,1.0837 6.25419,3.2991 10.77089,4.9232 4.5168,1.6241 9.051,3.4227 10.0762,3.997 3.0699,1.7198 7.9035,8.1488 9.4132,12.5199 1.9048,5.5154 1.5043,7.0934 -0.8303,3.2713 z m -4.2258,-59.6566 c 0,-3.32773 -1.5069,-5.2077 -4.0909,-3.3735 -1.8037,1.2803 -1.8359,1.4009 -0.8884,3.3189 0.9315,1.8856 4.4316,1.924 4.9793,0.055 z m -3.1952,-0.5673 c -0.5361,-0.5808 0.07,-1.716 0.9161,-1.716 0.3473,0 0.6315,0.4907 0.6315,1.0905 0,1.1242 -0.7919,1.4442 -1.5476,0.6255 z m -131.83199,19.7219 0.17561,-29.0712 5.70395,0 5.70394,0 0.1801,17.3537 0.1801,17.3536 -2.28426,4.4556 c -1.25635,2.45059 -3.57594,7.0727 -5.15466,10.2714 -5.08184,10.2965 -4.70041,12.0208 -4.50478,-20.3631 z m 49.43194,15.0631 c -9.71164,-11.0079 -23.15892,-26.5886 -25.00555,-28.9727 -2.06779,-2.6697 -2.22169,-4.6488 -0.59618,-7.6671 1.1723,-2.1767 5.21148,-4.95 7.20946,-4.95 1.26374,0 1.45616,0.2083 20.00573,21.6598 15.78003,18.2487 15.38937,17.5579 12.46986,22.0507 -1.3401,2.0623 -5.03079,4.2698 -7.13868,4.2698 -0.76826,0 -3.62998,-2.6334 -6.94464,-6.3905 z m 10.35968,0.224 c 0,1.48502 0.80536,-3.6829 -0.34699,-4.4544 -0.34551,-0.2314 -1.36596,-0.22 -2.26769,0.025 -1.26674,0.3444 -1.63949,0.9247 -1.63949,2.5522 0,2.8694 2.37204,3.916 4.25417,1.877 z m -2.91206,-1.8836 c 0,-1.8629 2.22107,-1.6516 2.55794,0.2434 0.15508,0.8724 -0.20629,1.2639 -1.16664,1.2639 -0.96033,0 -1.3913,-0.4669 -1.3913,-1.5073 z m -22.84914,-28.9581 c 1.0153,-2.0552 -1.38489,-5.1309 -3.11211,-3.988 -1.52731,1.0107 -1.90919,2.9417 -0.8541,4.3189 1.13509,1.4817 3.15398,1.3132 3.96621,-0.3309 z m 2.26416,-8.8069 c -2.95238,-3.0765 -3.25146,-3.6192 -1.99471,-3.6192 2.61472,0 6.41167,3.5289 6.45308,5.9976 0.0325,1.938 -0.68193,1.5569 -4.45837,-2.3784 z M 352.97136,543.62653 c -0.49734,-1.6975 -1.67763,-1.9533 -1.67763,-0.3635 0,0.7222 -0.66665,1.0905 -1.97355,1.0905 -2.36262,0 -2.90971,-0.762 -2.33333,-3.2498 0.42369,-1.82881 0.5127,-1.85409 4.88566,-1.38799 2.44977,0.26112 4.52646,0.53569 4.61489,0.61009 0.0884,0.074 0.35265,1.1747 0.58717,2.445 0.40468,2.192 0.32189,2.3097 -1.62542,2.3097 -1.46246,0 -2.17418,-0.4176 -2.47779,-1.454 z m 5.70395,0.059 c 0,-0.7669 -0.15901,-1.8433 -0.35334,-2.392 -0.26317,-0.7429 0.75507,-1.17849 3.99015,-1.70675 4.18711,-0.68372 4.36895,-0.64871 5.05071,0.97225 0.99998,2.3776 0.8975,2.8436 -0.72655,3.3037 -0.97361,0.2758 -1.82792,-0.1053 -2.66188,-1.1874 l -1.22812,-1.5936 -0.0223,1.5579 c -0.0218,1.5223 -1.18692,2.4404 -3.09693,2.4404 -0.52342,0 -0.95169,-0.6275 -0.95169,-1.3945 z m -16.60855,-1.2595 c -0.46135,-0.2063 -0.83882,-1.0021 -0.83882,-1.7684 0,-1.54063 -0.70322,-1.79471 -1.76967,-0.63938 -0.47761,0.51738 -1.26345,0.52028 -2.50448,0.009 -1.77873,-0.73263 -1.79092,-0.78168 -0.74096,-2.98127 0.58714,-1.23002 1.27629,-2.12796 1.53145,-1.99543 0.25516,0.13254 2.06273,0.88946 4.01684,1.68206 3.2988,1.33802 3.53878,1.59664 3.35526,3.61602 -0.19339,2.1281 -1.2802,2.8684 -3.04962,2.0773 z m 27.10722,-1.1215 c -0.22801,-0.9222 -0.41868,-2.02551 -0.42372,-2.45173 -0.009,-0.73491 7.25572,-4.41524 7.60578,-3.85328 0.0913,0.14651 0.51996,1.15978 0.95265,2.2517 0.69065,1.74289 0.61848,2.08286 -0.591,2.7841 -1.09054,0.63231 -1.64583,0.53591 -2.66399,-0.4623 -1.23699,-1.21276 -1.28629,-1.18712 -1.28629,0.66901 0,1.0616 -0.27727,1.9301 -0.61616,1.9301 -0.3389,0 -1.05415,0.1821 -1.58944,0.4046 -0.62617,0.2603 -1.12113,-0.1934 -1.38783,-1.2722 z m -248.82774,-3.67597 -1.72508,-3.81661 -6.05819,0 -6.0582,0 -1.11549,3.35939 -1.11548,3.35939 -3.15122,-0.3675 c -4.5611,-0.53182 -10.17687,-2.93397 -10.29662,-4.40434 -0.24725,-3.03586 -0.2194,-4.24801 0.13591,-5.91569 0.32249,-1.51362 -0.19144,-2.26986 -3.35085,-4.93072 -5.90172,-4.97043 -6.82887,-5.58292 -7.31205,-4.83045 -0.24531,0.38202 -1.04997,0.68329 -1.78813,0.66949 -1.00496,-0.0188 -1.34997,-0.52976 -1.37341,-2.03403 -0.0196,-1.25791 -0.62062,-2.4561 -1.60768,-3.20508 -0.867,-0.65787 -2.05242,-1.79846 -2.63427,-2.53465 -0.58185,-0.73618 -1.41749,-1.33851 -1.85697,-1.33851 -0.49139,0 -0.72915,-0.90973 -0.61749,-2.36266 0.26253,-3.41578 0.2773,-3.45313 1.36651,-3.45313 1.03255,0 2.09244,-3.06902 1.44924,-4.19646 -0.20215,-0.35433 -0.69517,-2.86601 -1.0956,-5.5815 -0.74624,-5.06059 -2.62119,-8.03754 -4.58826,-7.28502 -0.49068,0.18771 -1.66276,0.13176 -2.60462,-0.12433 -1.66963,-0.45397 -1.70242,-0.58243 -1.31023,-5.13233 0.22124,-2.56668 0.91844,-6.44067 1.54933,-8.60886 l 1.14707,-3.94217 2.73293,0.3858 c 1.5031,0.21219 3.56335,0.52573 4.57832,0.69677 1.01496,0.17103 1.84539,0.0529 1.84539,-0.26254 0,-0.31542 1.39319,-2.82394 3.09599,-5.57448 l 3.09598,-5.00099 -1.76734,-3.90383 c -0.97203,-2.1471 -1.60655,-4.18565 -1.41004,-4.53011 0.47477,-0.83221 8.48477,-7.35271 9.6174,-7.829 0.48871,-0.20551 2.17981,0.9992 3.75798,2.67713 l 2.86941,3.05078 3.95912,-1.42685 c 2.17753,-0.78477 4.55479,-1.54358 5.28282,-1.68624 1.04383,-0.20453 1.47055,-1.18033 2.01826,-4.6151 l 0.69456,-4.35573 6.70543,0.2023 c 3.68798,0.11127 7.0829,0.34635 7.54425,0.52241 0.54567,0.20824 0.83881,1.85243 0.83881,4.70478 0,3.56267 0.20443,4.38465 1.09043,4.38465 0.59974,0 2.86865,0.86452 5.04203,1.92116 4.42393,2.15078 3.78455,2.35525 9.09424,-2.90824 l 2.14116,-2.12254 1.88515,1.73656 c 1.03683,0.9551 3.35823,3.45099 5.15866,5.54642 l 3.2735,3.80987 -2.46809,3.88219 -2.46809,3.88219 2.7759,5.57521 2.77591,5.57521 4.25023,0 c 4.83959,0 4.41621,-0.67697 5.68315,9.08717 1.01811,7.84654 1.19643,7.41012 -3.48817,8.53736 l -4.17504,1.00463 -0.76654,3.95269 c -0.4216,2.17398 -0.97984,4.80261 -1.24054,5.8414 -0.41266,1.64434 -0.0377,2.28442 2.89781,4.94699 3.96227,3.59385 3.94305,3.81315 -0.9839,11.23274 l -3.15347,4.74889 -3.81446,-2.08599 -3.81446,-2.08599 -3.86072,3.38885 -3.86072,3.38885 0.49868,3.28189 c 1.04037,6.84683 1.17969,6.58857 -4.75554,8.81544 -2.95263,1.10784 -5.83442,2.03344 -6.40398,2.05694 -0.60234,0.025 -1.75721,-1.55389 -2.76062,-3.77387 z m 0.7154,-16.462 c 18.0248,-6.07744 26.52116,-28.08753 17.9221,-46.42771 -9.33552,-19.91089 -34.86386,-23.81714 -48.95979,-7.49165 -11.08656,12.84014 -11.18546,31.86788 -0.23319,44.86017 3.76707,4.46875 6.53673,6.45525 12.15539,8.71828 5.32698,2.14557 13.33935,2.28846 19.11549,0.34091 z m -11.89427,-13.94053 c -7.96677,-1.69343 -13.99114,-11.01062 -12.55304,-19.41431 2.73068,-15.957 21.71636,-20.05925 29.5235,-6.37916 1.7681,3.09813 2.02833,4.22452 2.01097,8.70446 -0.0148,3.8235 -0.38701,5.89307 -1.44841,8.05372 -3.4671,7.05782 -10.2914,10.57459 -17.53302,9.03529 z m 8.06829,-4.87425 2.48799,-1.25315 -3.03072,-4.54358 c -1.66689,-2.49897 -3.2566,-4.54359 -3.53268,-4.54359 -0.27608,0 -1.53262,2.308 -2.7923,5.12888 -1.93444,4.33191 -2.13706,5.23389 -1.30398,5.80465 1.54948,1.0616 5.44812,0.77859 8.17169,-0.59321 z m -8.33595,-5.62875 c 1.18645,-2.60651 2.15718,-4.89647 2.15718,-5.08882 0,-0.19234 -2.41579,-0.34972 -5.36842,-0.34972 -3.24296,0 -5.36842,0.29707 -5.36842,0.75032 0,2.64084 4.22202,9.42731 5.86494,9.42731 0.30664,0 1.52826,-2.13259 2.71472,-4.73909 z m 14.34342,-0.37712 c 0.67915,-1.37188 1.23481,-3.2355 1.23481,-4.14136 0,-1.55453 -0.2638,-1.64703 -4.69736,-1.64703 -2.58356,0 -4.69737,0.1776 -4.69737,0.39468 0,1.00167 5.64277,8.35109 6.2449,8.13365 0.37411,-0.13509 1.23586,-1.36807 1.91502,-2.73994 z m -13.00593,-7.12744 c 0.64527,-0.4436 0.33677,-1.29683 -1.24451,-3.44199 -1.15634,-1.5687 -2.51509,-3.48395 -3.01943,-4.2561 -0.9061,-1.38724 -0.93427,-1.38724 -2.37114,0 -1.53235,1.47942 -3.28207,5.3159 -3.28207,7.19635 0,0.89153 0.90398,1.11159 4.5296,1.10268 2.49129,-0.006 4.91569,-0.27655 5.38755,-0.60094 z m 14.24074,-1.24146 c 0,-2.35783 -4.73291,-9.31722 -5.62177,-8.26638 -0.14225,0.16817 -1.20469,2.35038 -2.36099,4.84935 l -2.10235,4.54359 5.04256,0 c 4.10672,0 5.04255,-0.20908 5.04255,-1.12656 z m -9.38127,-4.71812 c 1.12527,-2.41491 1.89083,-4.66261 1.70126,-4.99492 -0.97808,-1.71444 -8.99285,-1.28378 -10.03279,0.5391 -0.29208,0.51198 5.37396,8.84655 6.01409,8.84655 0.14933,0 1.19217,-1.97583 2.31744,-4.39073 z m -41.95425,26.19994 c 0.2281,-0.39983 -0.056,-0.72697 -0.63145,-0.72697 -0.5754,0 -1.04618,0.32714 -1.04618,0.72697 0,0.39984 0.28415,0.72697 0.63144,0.72697 0.3473,0 0.81808,-0.32713 1.04619,-0.72697 z m -5.70395,-25.44408 c 0,-0.39983 -0.30197,-0.72697 -0.67105,-0.72697 -0.36908,0 -0.67105,0.32714 -0.67105,0.72697 0,0.39984 0.30197,0.72698 0.67105,0.72698 0.36908,0 0.67105,-0.32714 0.67105,-0.72698 z m 265.2308,53.40376 c -1.13421,-0.86101 -1.4098,-1.59211 -1.10159,-2.9224 0.46402,-2.00289 0.149,-2.16161 -1.74589,-0.87962 -1.08075,0.73119 -1.5122,0.68862 -2.36304,-0.23312 -0.9405,-1.01887 -0.90394,-1.31626 0.37893,-3.08308 l 1.41983,-1.95544 1.79114,1.44118 c 5.35205,4.30636 5.19781,4.06196 4.11929,6.52703 -0.94441,2.15856 -1.04992,2.20523 -2.49867,1.10545 z m 45.87031,-1.64571 c -0.95906,-2.00918 -0.92686,-2.075 2.27648,-4.65383 l 3.2493,-2.61584 1.52704,1.76092 c 1.44067,1.66132 1.46215,1.83124 0.37966,3.00394 -0.98183,1.06365 -1.35249,1.10426 -2.56872,0.28141 -1.31961,-0.89279 -1.39879,-0.8339 -1.10643,0.82295 0.21247,1.2041 -0.0827,2.05352 -0.9074,2.6115 -1.67311,1.13195 -1.74638,1.10081 -2.84993,-1.21105 z m -439.27217,0.81056 c -1.60446,-0.62764 -2.68421,-2.52173 -2.68421,-4.70862 0,-3.60847 2.79889,-4.55044 14.76316,-4.96854 l 10.40131,-0.36349 0.20635,-3.08964 c 0.26537,-3.97333 1.47128,-4.03902 1.47128,-0.0801 0,3.68835 1.40048,5.15619 3.78,3.96182 1.52574,-0.76583 1.57813,-1.0761 1.58319,-9.37688 0.003,-5.53674 0.2435,-8.42532 0.67629,-8.13555 0.38139,0.25535 0.67105,3.89235 0.67105,8.42591 0,6.44955 0.19434,8.05742 1.01512,8.39863 2.54868,1.05952 2.97365,-0.84436 3.16376,-14.17373 0.13823,-9.69198 0.38516,-12.78505 1.00998,-12.65096 1.60766,0.34501 1.76805,-3.45033 0.268,-6.34172 -1.36319,-2.62759 -1.43054,-3.69431 -1.43054,-22.65708 0,-19.70668 0.0143,-19.90933 1.47419,-20.89703 l 1.47419,-0.99737 -1.47419,-1.29321 c -1.89167,-1.65943 -2.08159,-5.78548 -0.2663,-5.78548 3.34524,0 3.88716,-4.89236 0.80526,-7.26973 -1.66585,-1.28505 -2.01315,-2.05765 -2.01315,-4.47842 0,-1.8247 0.505,-3.62098 1.3421,-4.77387 0.73816,-1.01662 1.34211,-2.63793 1.34211,-3.60291 0,-0.96498 -0.60395,-3.10871 -1.34211,-4.76384 -1.71159,-3.8378 -1.92183,-12.71849 -0.31688,-13.38569 2.15891,-0.89749 2.38187,-2.87741 0.63759,-5.66194 -1.58652,-2.53269 -1.66379,-3.16166 -1.68402,-13.70855 l -0.0212,-11.05406 -1.49311,1.83404 c -1.77619,2.18174 -4.52098,4.34524 -5.51272,4.34524 -0.39058,0 -1.0448,-0.96048 -1.45382,-2.1344 -0.58655,-1.68346 -0.53854,-2.45166 0.22728,-3.63614 0.53403,-0.82596 0.78993,-1.81907 0.56867,-2.20691 -0.22126,-0.38785 0.10412,-1.54246 0.72307,-2.56582 0.61896,-1.02336 0.94703,-2.05386 0.72906,-2.29 -0.39698,-0.43005 1.49948,-4.61455 4.56219,-10.0664 1.47963,-2.63384 1.63395,-3.6958 1.63749,-11.26809 l 0.004,-8.3602 -2.37624,2.90789 c -6.49013,7.94221 -12.08433,17.83523 -14.33619,25.3527 -1.20594,4.02581 -4.54875,9.58889 -6.26542,10.42685 -3.09069,1.50865 -6.22813,2.57302 -7.84018,2.65977 -1.57199,0.0846 -1.67768,-0.13353 -1.67839,-3.46401 -7.4e-4,-3.46173 -0.075,-3.59326 -2.85197,-5.05029 -1.71858,-0.90173 -2.8512,-1.99414 -2.8512,-2.74999 0,-0.68969 0.90592,-4.13943 2.01315,-7.66608 1.10724,-3.52666 2.01316,-6.49929 2.01316,-6.60585 0,-0.10657 1.63617,0.0145 3.63594,0.26919 l 3.63593,0.46294 1.90025,-3.82567 c 1.04514,-2.10412 2.30154,-4.61614 2.792,-5.58229 0.81815,-1.61164 0.69006,-2.02329 -1.55185,-4.98724 l -2.4436,-3.2306 3.04755,-4.18399 c 1.67615,-2.30119 3.79747,-5.15529 4.71403,-6.34244 l 1.66648,-2.15846 3.0831,2.35427 3.08311,2.35427 4.15603,-3.81947 c 2.28582,-2.10071 4.27543,-3.89934 4.42136,-3.99696 0.14594,-0.0976 -0.19397,-1.92662 -0.75534,-4.06443 l -1.02068,-3.88692 1.92776,-1.3991 c 1.85215,-1.34422 2.35565,-3.08453 2.04185,-7.05758 -0.0563,-0.71315 0.34879,-1.48421 0.90026,-1.71347 1.33179,-0.55364 1.27514,-2.42954 -0.10644,-3.52396 -0.61,-0.48322 -0.89323,-1.25695 -0.62941,-1.71941 0.57418,-1.00645 6.55422,-0.79957 7.24676,0.2507 0.3035,0.46029 0.77655,0.39459 1.30855,-0.18174 1.26252,-1.36774 9.89217,-1.21171 10.3879,0.18782 0.21245,0.59975 0.79629,1.09046 1.29744,1.09046 1.29106,0 2.30049,2.37145 2.30049,5.40451 0,1.72367 0.31136,2.5922 0.92927,2.5922 0.62116,0 1.07954,-1.30316 1.38256,-3.93055 0.52643,-4.56453 0.29559,-4.43828 9.49031,-5.19036 l 6.09817,-0.4988 0.8412,3.25483 0.84119,3.25483 5.07306,0.46456 c 8.1583,0.7471 7.91696,0.8132 8.80916,-2.41281 0.43766,-1.58255 1.05767,-3.05273 1.37778,-3.26705 0.68388,-0.45788 7.16935,0.75681 9.11125,1.70648 0.73816,0.36099 2.34357,1.06518 3.56757,1.56487 2.11277,0.86252 2.21607,1.07399 2.03998,4.17619 l -0.18549,3.26766 5.47264,2.73761 5.47264,2.7376 2.30757,-3.02381 2.30758,-3.02382 4.63583,3.42729 c 7.52591,5.56394 9.18661,8.48524 5.42886,9.54981 -1.15412,0.32695 -1.25871,0.59063 -0.58378,1.47165 0.45224,0.59032 0.75199,1.50651 0.66609,2.03597 -0.0859,0.52946 1.69133,3.081 3.94938,5.6701 l 4.10553,4.70744 3.16434,-1.66547 3.16435,-1.66547 1.53197,1.68335 c 2.08161,2.28731 6.30364,10.03071 6.30364,11.56117 0,0.68181 -1.06921,2.25667 -2.37601,3.49967 l -2.37599,2.26 2.20823,6.21423 2.20824,6.21423 4.10543,-0.44979 c 3.57339,-0.3915 4.16608,-0.27876 4.57345,0.86998 0.718,2.0247 2.29138,14.21118 1.95675,15.15587 -0.16281,0.45963 -1.7165,1.13305 -3.45266,1.49651 l -3.15666,0.66083 0,6.88188 0,6.88188 3.35527,1.45129 c 1.84539,0.7982 3.4469,1.50819 3.5589,1.57776 0.30796,0.19126 -1.92106,12.66835 -2.61793,14.65397 -0.57055,1.62574 -0.83626,1.7039 -4.23081,1.24444 -3.29593,-0.44612 -3.66233,-0.35264 -4.06986,1.03837 -0.24631,0.84075 -0.91821,1.52863 -1.49309,1.52863 -0.80883,0 -0.95203,0.5049 -0.63312,2.2323 0.25373,1.37438 0.0282,3.03659 -0.58687,4.3251 -0.97908,2.05112 -0.94888,2.13254 1.51717,4.08861 1.38387,1.0977 2.78095,2.23531 3.1046,2.52803 0.66285,0.5995 -3.39791,8.84286 -6.01745,12.21543 l -1.71405,2.20678 -3.14989,-1.72918 -3.14988,-1.72918 -3.75455,4.8628 -3.75455,4.86279 1.93076,3.01931 1.93076,3.01932 -4.54034,3.94157 c -6.99812,6.07523 -7.27958,6.17025 -9.95517,3.36087 l -2.25148,-2.36408 -4.21948,2.39604 c -2.32071,1.31781 -4.44777,2.61509 -4.72681,2.88283 -0.27903,0.26774 -0.23703,2.05423 0.0933,3.96997 l 0.60068,3.48318 -2.44202,1.11452 c -1.34311,0.61299 -4.40485,1.72798 -6.80386,2.47776 -4.79844,1.49968 -4.50362,1.62837 -6.87203,-2.99954 -0.64245,-1.25535 -1.4861,-2.06952 -1.87479,-1.80928 -0.38869,0.26024 -1.07095,0.16052 -1.51613,-0.2216 -0.44518,-0.38212 -1.93815,-0.91507 -3.31771,-1.18433 -1.49492,-0.29178 -2.79919,-1.07839 -3.2283,-1.94703 -0.39601,-0.8016 -1.48728,-1.77348 -2.42506,-2.15974 -1.04704,-0.43125 -1.56702,-1.09194 -1.34739,-1.71197 0.19671,-0.55534 -0.065,-1.61398 -0.5815,-2.35256 -1.60021,-2.28811 -1.12165,-3.05158 2.20567,-3.5188 15.95061,-2.23978 28.0062,-8.30439 38.91341,-19.57553 l 5.73871,-5.93018 -4.62669,-3.73391 -4.62669,-3.73389 -1.84932,2.4305 c -6.75458,8.87733 -22.75976,17.97752 -31.87456,18.12314 -2.65106,0.0424 -3.4415,0.29755 -3.18605,1.0286 0.87741,2.51091 1.14071,6.66095 0.42262,6.66095 -0.41626,0 -0.75682,-0.75531 -0.75682,-1.67848 0,-0.92317 -0.44336,-2.31351 -0.98524,-3.08964 -0.54188,-0.77613 -0.99484,-1.94865 -1.00658,-2.60558 -0.0117,-0.65693 -0.4743,-1.38272 -1.02792,-1.61288 -1.54676,-0.643 -1.27064,-4.72471 0.41994,-6.20773 l 1.42652,-1.25139 -1.81482,-6.83388 c -1.01777,-3.83253 -1.98435,-9.66872 -2.20083,-13.28862 -0.22343,-3.73603 -0.69583,-6.54091 -1.12157,-6.65935 -5.97152,-1.66123 -8.67191,-2.96104 -11.24075,-5.41066 -7.90911,-7.54203 -9.5366,-19.80403 -3.90531,-29.42362 l 1.8497,-3.15974 -3.11433,-4.25435 -3.11434,-4.25435 -0.18312,13.76742 c -0.14951,11.24012 -0.36508,13.87775 -1.17434,14.36838 -1.28892,0.78141 -1.27875,3.36268 0.0154,3.90066 1.43926,0.59832 1.43578,10.60359 -0.004,11.8982 -0.5559,0.49979 -0.94692,1.81581 -0.86894,2.92449 0.078,1.10867 -0.25586,2.53481 -0.74185,3.1692 -1.17528,1.53413 -0.41915,4.58665 1.28095,5.17121 1.06687,0.36683 1.34055,1.10062 1.34055,3.59431 0,1.92139 -0.3959,3.48932 -1.02351,4.0536 -0.9092,0.81745 -0.91135,1.05448 -0.0193,2.12239 0.77314,0.9255 1.04729,3.61399 1.19127,11.68241 l 0.18702,10.48026 24.15789,21.67025 c 13.28685,11.91863 28.47968,25.47046 33.76186,30.11516 5.28219,4.64471 10.468,9.38097 11.52405,10.52501 1.05604,1.14405 2.19467,2.08008 2.53028,2.08008 0.33562,0 1.67594,1.3254 2.9785,2.94533 1.30255,1.61994 3.39149,3.53981 4.64207,4.2664 2.55267,1.4831 3.08793,3.93162 0.93167,4.262 -1.45391,0.22276 -2.04392,-0.2279 -11.68043,-8.92176 -3.541,-3.19452 -6.89107,-6.20533 -7.44468,-6.69069 C 57.2614,510.58865 33.80316,489.66935 32.2083,488.2252 18.02948,475.38628 -1.99111,457.84374 -2.46484,457.84374 c -0.34164,0 -0.53126,2.04462 -0.42138,4.54359 l 0.19978,4.54358 34.98887,31.62336 c 19.24387,17.39284 36.55991,33.13719 38.48006,34.98744 l 3.49118,3.36409 -10.19631,0.11671 c -6.8984,0.0789 -10.49981,-0.15618 -11.13466,-0.72696 -0.68501,-0.61589 -1.17851,-0.62774 -1.82787,-0.0439 -0.92001,0.82717 -109.75564,1.14998 -111.84732,0.33174 z M 68.6376,534.07128 c 0.11801,-0.65854 -13.50353,-13.44243 -35.18042,-33.01706 -19.45514,-17.56833 -35.64512,-32.05986 -35.97774,-32.2034 -0.33262,-0.14353 -0.50603,0.62739 -0.38537,1.71316 0.17931,1.61348 6.59436,7.72491 35.11413,33.45222 19.1921,17.31295 35.19672,31.39971 35.5658,31.3039 0.36908,-0.0958 0.7577,-0.65778 0.8636,-1.24882 z M 5.70162,516.0445 c 0,-9.92117 0.54832,-13.51007 1.60732,-10.52039 0.22321,0.63016 0.40584,5.71964 0.40584,11.30998 l 0,10.16423 2.18092,-0.2278 2.18092,-0.22781 0.19389,-6.36102 c 0.25642,-8.41251 1.48374,-8.26218 1.48374,0.18175 l 0,6.54276 2.01316,0 2.01316,0 0,-4.72533 c 0,-4.67753 0.8087,-6.24878 1.5902,-3.08964 0.22254,0.89963 0.40875,3.02603 0.41379,4.72533 l 0.009,3.08964 5.32385,0 c 5.30899,0 5.32444,-0.006 5.53619,-1.99918 0.26146,-2.46171 1.47696,-2.35223 1.76677,0.15914 l 0.21234,1.84004 9.82949,0 c 8.37231,0 9.68382,-0.14829 8.84687,-1.00031 -1.58577,-1.61434 -52.57174,-46.64706 -53.49248,-47.24656 -0.55369,-0.36052 -0.83882,-0.0764 -0.83882,0.83581 0,0.93199 6.54003,7.15955 20.0856,19.12596 18.50678,16.34922 21.41593,19.18915 20.58218,20.09237 -0.24078,0.26085 -26.02097,-22.273 -36.93001,-32.27963 -1.45048,-1.3305 -2.88486,-2.41909 -3.1875,-2.41909 -0.30265,0 -0.55027,8.69067 -0.55027,19.3126 0,23.06872 0.11873,23.54526 5.87172,23.56772 l 2.85197,0.0111 0,-10.8617 z m -18.11503,5.03904 c 0.6189,-1.25279 0.46336,-1.56721 -1.09224,-2.20794 -2.71081,-1.11653 -3.79495,0.40425 -1.59536,2.2379 2.05744,1.71515 1.8242,1.71776 2.6876,-0.0299 z m 5.23778,-18.65651 c -0.26624,-3.41298 -1.51951,-3.87647 -2.47265,-0.91444 -0.8619,2.6785 -0.52376,3.5844 1.3379,3.5844 1.13734,0 1.31112,-0.40889 1.13475,-2.66996 z m 2.58301,-8.558 c -0.22026,-0.62182 -0.69158,-1.13059 -1.04738,-1.13059 -1.10753,0 -1.5684,2.91353 -0.6504,4.11182 0.77532,1.01205 0.93504,0.97349 1.48356,-0.35823 0.33808,-0.82081 0.43448,-2.00116 0.21422,-2.623 z m -5.26106,-12.16 c -0.26587,-1.95738 -1.58144,-2.52769 -2.1471,-0.93078 -0.52557,1.48377 0.0254,2.50953 1.34789,2.50953 0.65881,0 0.93858,-0.55265 0.79921,-1.57875 z M -6.49589,477.23 c 0.12843,-0.71735 -0.2139,-1.21196 -0.83882,-1.21196 -0.62248,0 -1.05578,0.62157 -1.05578,1.51453 0,1.77167 1.5681,1.52124 1.8946,-0.30257 z m -12.07894,-15.99342 c 0.12553,-0.70121 -0.21127,-1.21196 -0.79922,-1.21196 -1.24664,0 -1.99903,1.18508 -1.40902,2.2193 0.60699,1.06397 1.94685,0.45277 2.20824,-1.00734 z m 49.1054,-26.27243 c 5.49892,-1.56898 13.92237,-6.467 18.28618,-10.63295 2.1222,-2.02598 3.85855,-3.93411 3.85855,-4.2403 0,-0.30618 -4.22645,-4.0551 -9.39213,-8.33092 l -9.39213,-7.77423 -1.51248,1.54821 c -1.9179,1.96322 -5.58672,4.00638 -8.35687,4.65395 l -2.14704,0.5019 0.40991,7.76527 c 1.0109,19.15002 0.76392,17.58043 2.76489,17.57078 0.98468,-0.005 3.45118,-0.48251 5.48112,-1.06171 z m 46.12771,-13.62361 c 4.88615,-10.27434 7.54802,-21.90641 7.55381,-33.00934 0.003,-5.64531 -1.35429,-15.12548 -3.04144,-21.24423 -1.22583,-4.44567 -1.28832,-4.45469 -7.95556,-1.14797 -2.67296,1.3257 -3.74082,2.22926 -3.48573,2.94942 3.03607,8.57118 3.73353,24.77878 1.46609,34.06877 -1.38416,5.6711 -4.30692,13.10983 -6.40543,16.30251 -0.75783,1.15295 -1.37787,2.28296 -1.37787,2.51113 0,0.22816 1.88734,2.0479 4.19408,4.04384 l 4.19408,3.62901 1.34211,-1.76614 c 0.73816,-0.97138 2.32029,-3.82303 3.51586,-6.337 z M 58.54056,410.90923 c 3.02943,-6.01457 4.8038,-12.54905 5.29109,-19.48554 0.40609,-5.78066 -0.42468,-14.46303 -1.74346,-18.22072 l -0.65525,-1.86706 -3.86598,1.85219 c -2.26053,1.08302 -4.4858,1.68366 -5.35854,1.44636 -1.03565,-0.28159 -1.69958,0.0132 -2.16874,0.96286 -0.37188,0.75277 -2.72426,2.28864 -5.2275,3.41301 -6.18557,2.77837 -6.13495,2.72041 -5.52326,6.3247 0.57587,3.39327 -0.30806,9.95503 -1.74715,12.96984 -0.91364,1.91402 -0.88879,1.94277 8.28291,9.58519 5.05962,4.21598 9.50128,7.59137 9.87036,7.50087 0.36908,-0.0905 1.64957,-2.10726 2.84552,-4.4817 z m -75.54168,1.52014 c 0.89243,-2.12189 -0.16021,-4.01988 -2.22944,-4.01988 -1.66013,0 -2.13693,1.43946 -1.28287,3.87299 0.8541,2.43366 2.52121,2.50339 3.51231,0.14689 z m 40.49689,-15.00843 c 3.17818,-1.71953 4.35059,-4.46433 4.35059,-10.18546 0,-6.82879 -7.65733,-11.35517 -13.83614,-8.17879 -3.1371,1.6127 -4.90282,4.55809 -5.62859,9.389 -0.61102,4.06709 -0.61071,4.06821 1.78244,6.38176 4.59663,4.44372 8.50622,5.20428 13.3317,2.59349 z m 17.2504,-21.71178 c 1.57845,-0.79227 6.19163,-2.94277 10.2515,-4.7789 4.05987,-1.83613 7.6538,-3.62558 7.98651,-3.97655 0.98805,-1.04226 -3.58628,-8.53662 -8.38074,-13.73062 -4.99166,-5.40764 -10.01349,-8.90559 -16.37859,-11.40853 l -4.347,-1.70937 -0.35327,1.62008 c -0.19429,0.89104 -1.35886,6.88325 -2.58792,13.31602 l -2.23465,11.69594 3.29751,1.69601 c 1.81362,0.93281 4.55942,3.26087 6.10177,5.17347 1.54235,1.9126 3.02268,3.49218 3.28961,3.51018 0.26694,0.018 1.77681,-0.61548 3.35527,-1.40773 z m -24.28785,-9.27251 3.80781,-0.37405 1.8445,-9.49672 c 1.01449,-5.22319 2.28348,-10.22249 2.82,-11.10956 0.54776,-0.90564 0.70472,-1.79414 0.35797,-2.0263 -0.33963,-0.2274 -0.47557,-1.21789 -0.30208,-2.20109 0.27985,-1.58591 0.0236,-1.84746 -2.27091,-2.3178 -5.08775,-1.0429 -16.64639,1.36761 -23.44587,4.88955 -1.88374,0.97573 -1.96357,1.22333 -2.1529,6.67766 -0.21747,6.2654 -0.38259,5.9021 7.07888,15.57526 l 2.93651,3.80692 2.75914,-1.5249 c 1.51753,-0.83871 4.47266,-1.69324 6.56695,-1.89897 z m 58.52949,-6.50869 c 1.38405,-0.6108 2.51645,-1.50319 2.51645,-1.98309 0,-1.20799 -4.23971,-8.72667 -7.52213,-13.33972 -5.17464,-7.27234 -13.82039,-14.95386 -21.67331,-19.2562 -3.80984,-2.08728 -13.77498,-5.8476 -14.21974,-5.36578 -0.39284,0.42557 -2.16232,8.50916 -2.19251,10.0161 -0.0142,0.70881 0.72545,1.39344 1.8215,1.68604 3.98959,1.06506 14.14832,6.88608 18.28618,10.47811 5.25372,4.5607 10.24404,10.76996 13.40942,16.68484 l 2.33705,4.36704 2.36032,-1.08839 c 1.29818,-0.59862 3.49273,-1.58814 4.87677,-2.19895 z M 5.03057,331.24953 c 3.7387,-1.11345 7.26911,-1.52689 13.72916,-1.60778 l 8.69627,-0.1089 0.83695,-4.36184 c 1.35507,-7.06211 1.60622,-6.67099 -4.64067,-7.22732 -6.47446,-0.57659 -16.39006,0.57316 -22.46054,2.60439 l -4.21381,1.40997 0,5.87137 c 0,5.74527 0.0324,5.86114 1.50987,5.39518 0.83043,-0.26191 3.77467,-1.15069 6.54277,-1.97507 z m 64.42106,-13.73456 c 0,-0.87031 -1.89279,-1.80386 -2.44482,-1.20582 -0.58765,0.63662 0.40911,1.95561 1.47784,1.95561 0.53184,0 0.96698,-0.3374 0.96698,-0.74979 z m 90.57505,215.41558 0.017,-6.02435 3.72129,0 c 3.05627,0 4.01565,-0.31889 5.36842,-1.78439 1.62078,-1.75584 1.64713,-1.98391 1.64713,-14.25479 l 0,-12.47042 1.7347,0.47167 c 2.71365,0.73784 4.25652,-0.18112 6.37235,-3.79545 l 1.95874,-3.34601 0,15.36824 c 0,15.1942 0.0183,15.39133 1.61837,17.40795 l 1.61836,2.03971 12.56648,0.24087 c 11.96142,0.22927 12.54247,0.17677 12.06767,-1.09046 -0.27435,-0.73223 -2.85607,-8.03766 -5.73716,-16.23429 -2.8811,-8.19663 -8.29336,-23.57212 -12.02725,-34.16776 -6.03426,-17.12337 -6.6962,-19.45352 -5.95497,-20.96251 1.55915,-3.17408 7.51831,-5.04165 9.08081,-2.84588 0.35565,0.4998 1.42749,3.19869 2.38187,5.99754 2.79609,8.19988 22.41201,63.80358 23.54519,66.74164 l 1.03531,2.68434 14.7974,0 c 9.1672,0 14.7974,-0.26976 14.7974,-0.70898 0,-0.46066 0.60289,-0.46066 1.72131,0 2.24463,0.92452 8.75362,0.91199 10.36102,-0.0199 0.84044,-0.48728 1.39514,-0.48728 1.67313,0 0.4542,0.79615 25.16559,1.0578 25.16559,0.26645 0,-0.25437 -2.37127,-5.24323 -5.26948,-11.08635 -2.89821,-5.84312 -6.72968,-13.65664 -8.51437,-17.36337 -1.78469,-3.70673 -3.44786,-6.65098 -3.69594,-6.54277 -0.24807,0.10821 -2.17301,2.40494 -4.27765,5.10383 -2.10463,2.69888 -4.04294,4.90707 -4.30734,4.90707 -0.56627,0 -0.54075,-4.86045 0.0287,-5.47742 0.619,-0.67057 -0.21256,-3.24511 -1.0521,-3.2574 -0.4183,-0.006 -0.32201,-0.31167 0.21398,-0.679 0.536,-0.36734 1.18776,-0.52513 1.44836,-0.35065 0.26059,0.17449 5.18208,-5.73705 10.93664,-13.13674 8.2842,-10.65251 10.46286,-13.89648 10.46286,-15.57892 0,-2.99554 -2.69624,-5.13833 -6.46549,-5.13833 l -2.92924,0 0,-3.27138 0,-3.27138 15.43421,0 15.43421,0 0,3.27138 c 0,3.17929 -0.0591,3.27138 -2.09701,3.27138 -1.15336,0 -3.88947,0.87145 -6.08026,1.93654 -3.53345,1.71786 -4.84712,3.04996 -11.63335,11.79656 l -7.65011,9.86002 4.76715,9.83091 c 2.62194,5.407 5.58484,11.46659 6.58422,13.46577 0.99939,1.99918 3.84772,7.80588 6.32961,12.90378 l 4.51255,9.26892 3.64018,0 c 3.0665,0 3.64018,-0.20753 3.64018,-1.31687 0,-1.15921 2.24826,-4.49892 3.02864,-4.49892 0.35792,0 2.6081,4.50267 2.64717,5.29707 0.0155,0.31447 0.48109,0.88194 1.03471,1.26108 0.55362,0.37913 0.70461,0.70428 0.33553,0.72256 -0.36908,0.0183 -0.1426,0.36668 0.50329,0.77423 0.75311,0.47519 1.17434,1.62532 1.17434,3.20637 0,1.35596 0.30197,2.66756 0.67105,2.91468 0.36908,0.24711 0.67105,0.7521 0.67105,1.1222 0,0.40869 -31.2237,0.67935 -79.51973,0.6893 l -79.51974,0.0163 -0.017,-4.16372 z m 135.94471,-8.52879 c 1.26923,-1.02358 1.23861,-1.18657 -1.19497,-6.36102 -4.68276,-9.95681 -14.60981,-29.95011 -15.17459,-30.56195 -0.78249,-0.8477 -3.86499,0.53513 -4.36983,1.96034 -0.36189,1.02167 5.32148,13.45695 14.54885,31.83302 2.23419,4.44934 3.66017,5.17025 6.19054,3.12961 z m -10.90427,-16.57862 c -4.12273,-8.4965 -7.59236,-15.91946 -7.71029,-16.49548 -0.11793,-0.57601 0.28018,-1.16541 0.88468,-1.30981 0.83016,-0.19828 3.01174,3.66643 8.916,15.79487 4.29931,8.83157 7.63707,16.37266 7.41724,16.758 -1.07036,1.87619 -2.57012,-0.45012 -9.50763,-14.74758 z m -92.16856,-45.94616 c 1.77673,-2.31923 -0.84476,-5.96472 -2.93674,-4.08385 -1.26601,1.13826 -1.41034,4.13934 -0.22401,4.65793 1.49676,0.65428 2.33657,0.50175 3.16075,-0.57408 z m 127.52675,74.05581 c 0,-1.28378 1.44462,-1.06021 1.85937,0.28776 0.1461,0.4748 -0.21249,0.86328 -0.79687,0.86328 -0.58437,0 -1.0625,-0.51797 -1.0625,-1.15104 z m 26.24643,-0.72495 c -14.87048,-4.33244 -25.71261,-18.90565 -26.72101,-35.91643 -1.49551,-25.22802 19.56281,-45.68482 42.67982,-41.4607 20.76716,3.79475 34.50509,26.7998 29.21392,48.92065 -3.30521,13.81818 -13.53839,24.93343 -26.25946,28.52297 -4.79809,1.35388 -14.15087,1.32101 -18.91327,-0.0665 z M 364.83451,520.085 c 7.59905,-3.38595 12.32039,-9.27451 14.36798,-17.92008 4.0278,-17.00656 -10.82348,-33.89779 -26.83268,-30.51838 -7.71295,1.62814 -13.8039,6.70382 -17.31771,14.43111 -1.29805,2.85455 -1.54034,4.53658 -1.53541,10.65914 0.005,6.20348 0.23663,7.74956 1.57924,10.54112 1.85044,3.84744 6.96332,9.80589 9.8228,11.44731 6.11646,3.51102 13.89574,4.04216 19.91578,1.35978 z m -16.71615,-2.60399 c -4.17522,-2.05327 -9.18747,-7.47597 -10.967,-11.86514 -4.71583,-11.63139 0.92607,-25.82993 12.07596,-30.39068 9.88087,-4.04166 21.24642,1.0136 26.03656,11.58075 2.4784,5.46742 2.63758,13.96122 0.35639,19.01802 -2.34689,5.20248 -5.24565,8.45245 -9.68023,10.8531 -3.59609,1.94674 -4.8186,2.23039 -9.55283,2.21646 -3.89665,-0.0115 -6.23056,-0.41015 -8.26885,-1.41251 z m 16.07685,-1.31633 c 7.00164,-3.35525 11.92592,-11.29017 11.92694,-19.21888 0.003,-18.45977 -19.87973,-28.49198 -32.54006,-16.41925 -4.6694,4.45269 -6.64205,9.15608 -6.6463,15.84676 -0.004,6.6311 1.54724,10.83884 5.62541,15.25685 5.76923,6.25001 14.31596,8.04141 21.63401,4.53452 z m -8.87516,-1.25355 c 0,-0.59975 0.30197,-1.09046 0.67105,-1.09046 0.36908,0 0.67105,0.49071 0.67105,1.09046 0,0.59976 -0.30197,1.09046 -0.67105,1.09046 -0.36908,0 -0.67105,-0.4907 -0.67105,-1.09046 z m -8.72369,-4.04126 c 0,-0.42343 0.30198,-0.56769 0.67106,-0.32058 0.36907,0.24711 0.67105,0.59356 0.67105,0.76988 0,0.17632 -0.30198,0.32058 -0.67105,0.32058 -0.36908,0 -0.67106,-0.34644 -0.67106,-0.76988 z m 19.125,0.0429 c 0.22811,-0.39984 0.5479,-0.72698 0.71066,-0.72698 0.16276,0 0.29592,0.32714 0.29592,0.72698 0,0.39983 -0.3198,0.72697 -0.71066,0.72697 -0.39086,0 -0.52402,-0.32714 -0.29592,-0.72697 z m -15.43421,-1.04255 c -2.82551,-1.49197 -3.93288,-2.56994 -5.95328,-5.79527 -1.44994,-2.31466 -1.76382,-3.64373 -1.76382,-7.46857 0,-7.418 3.19831,-12.44916 9.3271,-14.67216 8.82624,-3.2014 18.18914,4.42387 18.17575,14.80256 -0.005,3.80892 -2.95245,9.51213 -6.07189,11.74849 -3.42323,2.45418 -10.3619,3.15491 -13.71386,1.38495 z m 11.85067,-4.129 c 4.86976,-3.75654 5.66868,-11.73135 1.65549,-16.52499 -4.68832,-5.60006 -12.95094,-4.84206 -16.52952,1.51637 -1.74393,3.09864 -1.7878,8.88628 -0.0885,11.67826 3.31201,5.44173 10.22951,6.98144 14.96253,3.33036 z m -9.22337,-0.95059 c -3.0474,-1.43741 -4.97598,-4.47001 -4.97598,-7.8245 0,-5.73415 3.19652,-9.31652 8.31306,-9.31652 3.77305,0 6.75907,2.52048 7.9081,6.67515 0.72894,2.63575 0.65511,3.25187 -0.72824,6.07681 -1.12169,2.29059 -2.25271,3.45286 -4.16792,4.28303 -3.14249,1.36216 -3.66735,1.37092 -6.34902,0.10603 z m 5.05421,-7.28041 c 1.18887,-1.55187 -0.2915,-4.20042 -2.18388,-3.90719 -2.48419,0.38493 -2.38912,4.95119 0.10309,4.95119 0.70455,0 1.64091,-0.4698 2.08079,-1.044 z m -2.64861,-1.50041 c 0,-0.6664 0.32462,-1.0944 0.72138,-0.95112 0.39676,0.14327 0.72138,0.57127 0.72138,0.95112 0,0.37984 -0.32462,0.80785 -0.72138,0.95112 -0.39676,0.14328 -0.72138,-0.28473 -0.72138,-0.95112 z m -14.76316,7.9538 c 0,-0.62335 0.30197,-0.93118 0.67105,-0.68407 0.36908,0.24712 0.67105,0.75713 0.67105,1.13337 0,0.37624 -0.30197,0.68407 -0.67105,0.68407 -0.36908,0 -0.67105,-0.51002 -0.67105,-1.13337 z m -1.67763,-8.31729 c -0.26785,-0.46951 -0.18504,-1.18079 0.18404,-1.58063 0.44737,-0.48465 0.83339,-0.44242 1.15806,0.12668 0.26785,0.46952 0.18504,1.1808 -0.18404,1.58063 -0.44737,0.48466 -0.83339,0.44243 -1.15806,-0.12668 z m 33.2171,0 c 0,-0.39983 0.30198,-0.72697 0.67105,-0.72697 0.36908,0 0.67106,0.32714 0.67106,0.72697 0,0.39984 -0.30198,0.72698 -0.67106,0.72698 -0.36907,0 -0.67105,-0.32714 -0.67105,-0.72698 z m -1.67763,-7.99671 c -0.2281,-0.39983 -0.0949,-0.72697 0.29592,-0.72697 0.39086,0 0.71066,0.32714 0.71066,0.72697 0,0.39984 -0.13316,0.72698 -0.29592,0.72698 -0.16276,0 -0.48256,-0.32714 -0.71066,-0.72698 z m -29.19079,-0.72697 c 0,-0.39984 0.3198,-0.72698 0.71066,-0.72698 0.39086,0 0.52402,0.32714 0.29592,0.72698 -0.2281,0.39983 -0.5479,0.72697 -0.71066,0.72697 -0.16275,0 -0.29592,-0.32714 -0.29592,-0.72697 z m 23.15132,-5.81579 c -0.22811,-0.39984 -0.0949,-0.72698 0.29592,-0.72698 0.39086,0 0.71066,0.32714 0.71066,0.72698 0,0.39983 -0.13317,0.72697 -0.29592,0.72697 -0.16276,0 -0.48256,-0.32714 -0.71066,-0.72697 z m -16.44079,-0.72698 c 0,-0.39983 0.30197,-0.72697 0.67105,-0.72697 0.36908,0 0.67105,0.32714 0.67105,0.72697 0,0.39984 -0.30197,0.72698 -0.67105,0.72698 -0.36908,0 -0.67105,-0.32714 -0.67105,-0.72698 z m 8.05263,-1.81743 c 0,-0.59975 0.30197,-1.09046 0.67105,-1.09046 0.36908,0 0.67105,0.49071 0.67105,1.09046 0,0.59975 -0.30197,1.09046 -0.67105,1.09046 -0.36908,0 -0.67105,-0.49071 -0.67105,-1.09046 z m -32.54605,50.52467 c -1.13279,-1.35603 -1.1397,-1.5436 -0.10255,-2.78515 1.40009,-1.67599 0.60778,-2.6954 -0.92611,-1.19156 -1.03323,1.01298 -1.23523,0.95381 -2.20231,-0.64513 -0.97891,-1.61851 -0.97273,-1.84589 0.0765,-2.82055 2.27723,-2.11534 2.68339,-1.97134 5.3888,1.91056 l 2.72062,3.90372 -1.51416,1.54103 c -1.85573,1.88864 -1.9342,1.89062 -3.44083,0.0871 z m 62.84998,-0.24061 -1.4695,-1.69455 1.40301,-1.37551 c 0.77166,-0.75654 1.889,-2.26677 2.48297,-3.35609 1.0582,-1.94069 1.11802,-1.95623 2.96925,-0.77155 1.03911,0.66497 1.88929,1.58914 1.88929,2.05373 0,1.43247 -1.66977,2.43785 -3.28764,1.97951 -1.41302,-0.4003 -1.46887,-0.31265 -0.67651,1.06185 0.70602,1.22473 0.70293,1.70799 -0.017,2.64768 -1.16663,1.52283 -1.55664,1.45829 -3.29393,-0.54507 z m -133.98156,-4.81158 c -0.77402,-0.3392 0.54929,-0.43155 3.12635,-0.21818 2.45764,0.20349 5.40188,0.0175 6.54276,-0.41339 1.14087,-0.43085 2.07431,-0.51414 2.07431,-0.18508 0,1.3818 -9.02214,2.00921 -11.74342,0.81665 z m 3.85855,-1.9917 c 0.64589,-0.18285 1.7028,-0.18285 2.34869,0 0.64588,0.18286 0.11743,0.33247 -1.17435,0.33247 -1.29177,0 -1.82023,-0.14961 -1.17434,-0.33247 z m -95.16741,-1.03294 c -0.25325,-0.44391 -0.37623,-6.74131 -0.27329,-13.99424 0.20347,-14.3368 0.20179,-14.80553 -0.34606,-96.5859 l -0.37364,-55.77374 2.19698,0.0691 c 1.20833,0.038 3.40487,-0.43641 4.88119,-1.05417 2.49996,-1.0461 6.3752,-2.04666 11.5629,-2.98543 l 2.16817,-0.39237 0.0174,57.50613 0.0174,57.50612 -3.46562,6.26488 c -1.90608,3.44568 -4.16783,7.39584 -5.02611,8.77814 l -1.5605,2.51326 -0.17915,-60.82712 c -0.16607,-56.38762 -0.26333,-60.91832 -1.3326,-62.07652 -1.09051,-1.18119 -1.228,-1.1763 -2.51928,0.0897 -0.75121,0.73649 -1.66046,2.5244 -2.02056,3.97317 -0.3783,1.52198 -0.62817,14.59451 -0.59183,30.96267 0.0613,27.60275 -0.17876,92.23104 -0.41845,112.65752 -0.11765,10.02716 -0.62038,14.17598 -1.71773,14.17598 -0.30729,0 -0.7659,-0.36319 -1.01914,-0.80709 z m 99.08188,0.54588 c 0.15379,-0.14367 1.18553,-0.48075 2.29277,-0.74906 1.47022,-0.35627 1.74169,-0.28883 1.00658,0.25008 -0.90617,0.66432 -3.97274,1.12809 -3.29935,0.49898 z m 132.69385,-1.2729 -1.79209,-1.41423 1.45866,-3.63682 c 1.42625,-3.556 1.51085,-3.6268 3.80735,-3.18632 2.92765,0.56154 2.95533,0.59458 2.04392,2.43948 -0.41198,0.83392 -1.40275,1.51621 -2.20174,1.51621 -1.12989,0 -1.27376,0.19387 -0.64745,0.87237 1.04625,1.13343 1.02892,3.11037 -0.0356,4.0675 -0.60211,0.54135 -1.34982,0.35444 -2.63301,-0.65819 z m -75.39271,-0.70806 c -0.248,-0.84648 -0.11893,-1.89869 0.28681,-2.33824 1.15253,-1.24858 0.87169,-1.96137 -0.69819,-1.77204 -2.23754,0.26986 -2.22635,-1.43494 0.0177,-2.69207 1.11245,-0.62321 2.15583,-1.13311 2.31862,-1.13311 0.27244,0 2.45488,5.4626 2.45488,6.14449 0,0.1646 -0.884,0.98119 -1.96445,1.81464 l -1.96444,1.51538 -0.4509,-1.53905 z m -57.52482,-0.42021 c 0.46135,-0.20167 1.21628,-0.20167 1.67763,0 0.46135,0.20167 0.0839,0.36668 -0.83881,0.36668 -0.9227,0 -1.30017,-0.16501 -0.83882,-0.36668 z m 3.31108,-0.0637 c -0.16014,-0.29988 -0.0482,-1.19951 0.24875,-1.99918 0.47135,-1.2693 0.54591,-1.20005 0.58708,0.54523 0.0465,1.97228 -0.26741,2.51839 -0.83583,1.45395 z m -7.99643,-1.43558 c 1.20612,-0.1618 3.01796,-0.15846 4.02632,0.007 1.00835,0.16589 0.0215,0.29826 -2.19294,0.29418 -2.21448,-0.004 -3.0395,-0.1398 -1.83338,-0.30159 z m -4.20135,-0.91876 c -0.23509,-0.4121 0.0343,-0.53397 0.63145,-0.28571 1.16255,0.48328 1.37525,1.00436 0.40999,1.00436 -0.3473,0 -0.81595,-0.3234 -1.04144,-0.71865 z m 2.21812,-1.2319 c 0.48441,-0.21001 1.0632,-0.18418 1.28618,0.0573 0.22299,0.24157 -0.17336,0.41339 -0.88075,0.38182 -0.78175,-0.0349 -0.94075,-0.20714 -0.40543,-0.4392 z m 8.51398,-0.4595 c 1.10723,-0.56022 2.13898,-0.90142 2.29276,-0.75822 0.48397,0.45066 -0.21561,0.85409 -2.29414,1.32297 l -2.01178,0.45382 z m -8.38816,-1.24921 c -1.11522,-0.40312 -0.52149,-0.47288 1.77102,-0.20806 1.93472,0.22349 4.51388,0.0175 5.87519,-0.46919 2.0512,-0.73337 2.38097,-1.13978 2.13196,-2.62738 -0.162,-0.9679 -0.0126,-1.75981 0.33205,-1.75981 0.34464,0 0.62662,0.92963 0.62662,2.06585 0,1.76837 -0.37358,2.1871 -2.5943,2.90789 -2.93095,0.95131 -5.67707,0.9819 -8.14254,0.0907 z m -0.53246,-2.04837 c -0.48441,-0.33291 0.85003,-0.46426 3.01974,-0.29722 5.30103,0.40812 5.99745,0.79161 1.53903,0.84749 -2.02993,0.0254 -4.08138,-0.22218 -4.55877,-0.55027 z m 61.20811,-0.93088 c -0.25814,-0.45248 0.026,-1.12301 0.63145,-1.49007 1.51439,-0.91812 1.3908,-2.24676 -0.15941,-1.71375 -0.96334,0.33123 -1.33636,10e-4 -1.58351,-1.39893 -0.28082,-1.59144 -0.01,-1.926 2.06128,-2.54554 1.31153,-0.3923 2.42374,-0.64037 2.47158,-0.55125 0.0478,0.0891 0.39431,1.68713 0.76992,3.55111 0.64574,3.20447 0.59565,3.43215 -0.91964,4.1801 -2.02965,1.00184 -2.68569,0.99549 -3.27167,-0.0317 z m -58.15921,-0.38573 c 0.46135,-0.20167 1.21629,-0.20167 1.67764,0 0.46135,0.20167 0.0839,0.36668 -0.83882,0.36668 -0.9227,0 -1.30016,-0.16501 -0.83882,-0.36668 z m 140.18774,-0.75962 c -0.89627,-0.25039 -1.12771,-0.77738 -0.84093,-1.91485 0.21761,-0.86317 0.58736,-3.27008 0.82165,-5.3487 0.42461,-3.767 0.4328,-3.77792 2.51857,-3.35699 2.75526,0.55604 3.06392,0.94508 2.63378,3.31968 -0.24172,1.33442 -0.7824,1.99918 -1.62601,1.99918 -1.54873,0 -1.65054,1.14728 -0.18087,2.03828 0.73921,0.44816 0.93788,1.15194 0.62583,2.21705 -0.44352,1.51384 -1.38562,1.76328 -3.95202,1.04635 z m -141.52984,-1.4213 c 0.46135,-0.20167 1.21628,-0.20167 1.67763,0 0.46135,0.20167 0.0839,0.36668 -0.83881,0.36668 -0.9227,0 -1.30017,-0.16501 -0.83882,-0.36668 z m 4.02632,0 c 0.46134,-0.20167 1.21628,-0.20167 1.67763,0 0.46135,0.20167 0.0839,0.36668 -0.83882,0.36668 -0.9227,0 -1.30016,-0.16501 -0.83881,-0.36668 z m -6.66859,-0.74212 c 0.48441,-0.21 1.0632,-0.18418 1.28619,0.0574 0.22298,0.24157 -0.17336,0.41339 -0.88076,0.38182 -0.78174,-0.0349 -0.94075,-0.20714 -0.40543,-0.43922 z m 7.33964,-3.61972 c 0.46135,-0.20167 1.21628,-0.20167 1.67763,0 0.46135,0.20167 0.0839,0.36667 -0.83882,0.36667 -0.92269,0 -1.30016,-0.165 -0.83881,-0.36667 z m 3.85855,-0.97249 c 0.2281,-0.39984 0.5479,-0.72698 0.71066,-0.72698 0.16276,0 0.29592,0.32714 0.29592,0.72698 0,0.39983 -0.3198,0.72697 -0.71066,0.72697 -0.39086,0 -0.52402,-0.32714 -0.29592,-0.72697 z m -6.86552,-0.50379 c 0.65292,-0.18431 1.55884,-0.1722 2.01316,0.027 0.45432,0.19914 -0.0799,0.34995 -1.18711,0.33513 -1.10724,-0.0148 -1.47896,-0.17774 -0.82605,-0.36206 z m 56.18789,-2.33749 c 0,-1.52645 0.40073,-2.20679 1.50987,-2.56336 l 1.50987,-0.48539 -1.50987,-0.66643 c -1.82046,-0.80352 -2.0827,-3.62601 -0.33553,-3.61125 3.33407,0.0282 3.86195,0.64679 3.77269,4.42105 -0.0472,1.99684 -0.19822,3.7326 -0.33553,3.85725 -0.13731,0.12464 -1.23107,0.429 -2.43058,0.67635 -2.04869,0.42247 -2.18092,0.32374 -2.18092,-1.62822 z m -59.01776,-0.0279 c -0.62863,-0.43084 0.0822,-0.51993 2.01316,-0.25233 1.64168,0.2275 3.11068,0.5322 3.26447,0.67711 0.62946,0.59312 -4.38082,0.18986 -5.27763,-0.42478 z m -1.75201,-3.35022 c -1.28176,-1.11247 -1.28113,-1.11986 0.0395,-0.46172 0.73815,0.36787 1.79506,0.85079 2.34868,1.07318 0.86951,0.34926 0.86413,0.41214 -0.0395,0.46171 -0.57535,0.0315 -1.63226,-0.45135 -2.34868,-1.07317 z m 8.97289,0.63396 c 0.48442,-0.21 1.06321,-0.18418 1.28619,0.0574 0.22298,0.24157 -0.17336,0.41339 -0.88076,0.38182 -0.78174,-0.0349 -0.94074,-0.20714 -0.40543,-0.43922 z m -90.79236,-1.97145 c -0.92789,-1.00521 -1.68708,-2.41005 -1.68708,-3.12187 0,-1.36407 15.44975,-29.95171 16.21429,-30.00232 0.2445,-0.0162 1.38381,2.63522 2.5318,5.89202 l 2.08725,5.92145 -6.33928,11.34418 c -6.1312,10.97181 -6.41774,11.35156 -8.72959,11.56919 -1.83139,0.1724 -2.78481,-0.20235 -4.07739,-1.60265 z m 7.30761,-5.75109 c 0.73675,-0.58363 1.10937,-1.63402 0.96707,-2.72615 -0.18681,-1.43374 -0.62011,-1.77671 -2.24465,-1.77671 -1.59117,0 -2.05912,0.35126 -2.23243,1.67571 -0.20838,1.59244 0.86202,3.7766 1.85082,3.7766 0.25334,0 0.99998,-0.42725 1.65919,-0.94945 z m 220.76134,6.93202 c -1.17762,-0.20117 -1.49419,-0.91192 -1.84454,-4.14132 -0.23262,-2.14416 -0.58191,-4.34723 -0.77619,-4.89572 -0.24062,-0.6793 0.49804,-1.2434 2.31681,-1.76932 2.64174,-0.76388 2.67483,-0.74848 3.12096,1.45196 0.3622,1.78653 0.1703,2.42586 -0.97556,3.25008 -1.95014,1.40275 -1.80471,2.56313 0.25118,2.00414 1.50085,-0.40808 1.67763,-0.2338 1.67763,1.65384 0,2.21656 -1.06608,2.90827 -3.77029,2.44634 z M 254.66215,495.6463 c -0.55362,-0.38759 -0.7046,-0.7047 -0.33552,-0.7047 0.36908,0 1.12401,0.31711 1.67763,0.7047 0.55362,0.38759 0.7046,0.70471 0.33552,0.70471 -0.36907,0 -1.12401,-0.31712 -1.67763,-0.70471 z m -0.12582,-2.67752 c 0.48441,-0.21 1.0632,-0.18418 1.28619,0.0574 0.22298,0.24156 -0.17336,0.41338 -0.88076,0.38182 -0.78174,-0.0349 -0.94075,-0.20715 -0.40543,-0.43922 z m 3.66162,-0.007 c 0.65291,-0.18432 1.55883,-0.1722 2.01316,0.027 0.45432,0.19914 -0.0799,0.34994 -1.18712,0.33513 -1.10723,-0.0148 -1.47895,-0.17775 -0.82604,-0.36207 z m 54.185,-2.94925 c 0.016,-1.97875 1.08968,-3.34586 2.2492,-2.86384 0.57905,0.24072 1.24385,0.1028 1.47735,-0.30648 0.23349,-0.40929 -0.2098,-0.92386 -0.98509,-1.1435 -1.31038,-0.37123 -1.91559,-2.34721 -1.01705,-3.32063 0.31253,-0.33857 4.06075,0.65109 4.81946,1.27251 0.0985,0.0807 -0.17983,1.83139 -0.61855,3.89043 -0.78933,3.70453 -0.82456,3.74371 -3.36663,3.74371 -2.00318,0 -2.5667,-0.28019 -2.55869,-1.2722 z m -51.80715,0.0486 c 0.48442,-0.21 1.06321,-0.18418 1.28619,0.0574 0.22298,0.24156 -0.17336,0.41338 -0.88076,0.38182 -0.78174,-0.0349 -0.94074,-0.20714 -0.40543,-0.43922 z m 2.50317,-0.18014 c -0.21235,-0.37221 -0.0792,-0.88222 0.29592,-1.13336 0.3751,-0.25114 0.682,0.0534 0.682,0.67674 0,1.27695 -0.40267,1.46497 -0.97792,0.45662 z m 0.30687,-3.68511 c 0,-0.79967 -0.37747,-1.45895 -0.83882,-1.46507 -0.58301,-0.008 -0.61278,-0.17401 -0.0976,-0.54523 0.40766,-0.29376 0.76581,-1.6309 0.79589,-2.97143 0.10387,-4.62887 0.81159,-3.24307 0.81159,1.58919 0,2.66557 -0.15099,4.84649 -0.33553,4.84649 -0.18454,0 -0.33552,-0.65427 -0.33552,-1.45395 z m 129.51405,-6.17689 -1.4971,-3.99599 1.58692,-1.43213 c 0.8728,-0.78768 1.93208,-1.44302 2.35394,-1.45633 1.29067,-0.0407 1.67504,2.29396 0.59126,3.59132 -1.82892,2.18935 -1.16442,3.69147 0.9825,2.22096 0.73442,-0.50303 1.21644,-0.25964 1.82161,0.91985 1.17297,2.28608 1.10748,2.46262 -1.24279,3.3502 -3.021,1.14089 -2.95314,1.1881 -4.59634,-3.19788 z m -137.73445,2.75595 c 0.83043,-0.17328 2.18931,-0.17328 3.01974,0 0.83043,0.17328 0.15099,0.31505 -1.50987,0.31505 -1.66085,0 -2.3403,-0.14177 -1.50987,-0.31505 z m 61.06579,-2.169 c -1.34131,-0.37972 -1.46639,-1.18421 -0.49105,-3.1585 0.54899,-1.1113 1.00427,-1.25091 2.31656,-0.71041 1.28222,0.52814 1.55691,0.45714 1.27799,-0.3303 -0.19541,-0.55167 -0.78307,-1.18086 -1.30591,-1.39821 -0.7656,-0.31828 -0.79984,-0.75369 -0.17593,-2.23713 0.94461,-2.24597 1.08317,-2.25317 3.47407,-0.18046 l 1.90822,1.65427 -1.53865,3.43094 c -1.54501,3.4451 -2.27081,3.83418 -5.4653,2.9298 z m -64.92434,-1.67979 c -0.55362,-0.3876 -0.70461,-0.70471 -0.33553,-0.70471 0.36908,0 1.12402,0.31711 1.67763,0.70471 0.55362,0.38759 0.70461,0.7047 0.33553,0.7047 -0.36908,0 -1.12401,-0.31711 -1.67763,-0.7047 z m 10.73684,-2.46663 c 0,-0.15714 0.45296,-0.47401 1.00658,-0.70416 0.55362,-0.23015 1.00658,-0.10158 1.00658,0.28571 0,0.38728 -0.45296,0.70416 -1.00658,0.70416 -0.55362,0 -1.00658,-0.12858 -1.00658,-0.28571 z m -1.83262,-2.399 c 0.65291,-0.18432 1.55883,-0.1722 2.01316,0.027 0.45432,0.19914 -0.0799,0.34994 -1.18712,0.33513 -1.10723,-0.0148 -1.47896,-0.17775 -0.82604,-0.36206 z m 126.84088,-4.12035 -2.80959,-3.89716 2.03217,-2.10037 2.03217,-2.10037 1.31634,1.75206 c 0.91124,1.21288 1.10158,1.98472 0.61849,2.50806 -0.38381,0.4158 -0.69784,1.23197 -0.69784,1.81373 0,0.86536 0.22751,0.83469 1.25088,-0.16862 1.18464,-1.16143 1.31402,-1.12197 2.44339,0.74532 1.1763,1.94486 1.16791,1.99461 -0.61724,3.65809 -0.99537,0.92753 -2.02338,1.68642 -2.28448,1.68642 -0.26108,0 -1.73902,-1.75372 -3.28429,-3.89716 z m -134.403,1.27678 c -0.92269,-0.6132 -1.07368,-0.84745 -0.33552,-0.52055 2.1327,0.94447 9.46769,0.64714 10.66847,-0.43246 0.90391,-0.81269 1.07495,-0.79453 1.07495,0.11418 0,2.0129 -8.68078,2.6512 -11.4079,0.83883 z m 69.48607,-0.55795 c -1.94781,-1.68836 -1.96162,-1.74927 -0.82334,-3.63126 1.32433,-2.18961 1.9635,-2.35923 3.13377,-0.83164 1.28055,1.67154 2.13253,0.50757 0.99959,-1.36562 -0.92039,-1.52174 -0.88599,-1.77777 0.40946,-3.04783 1.40123,-1.37376 1.42906,-1.36649 3.02185,0.79049 0.88418,1.19736 1.53371,2.38663 1.44339,2.64282 -0.18069,0.51256 -5.80248,7.16961 -6.04974,7.16381 -0.0847,-0.002 -1.04541,-0.77633 -2.13498,-1.72077 z m -69.15054,-2.57055 c -0.80662,-0.36223 0.53209,-0.47045 3.35526,-0.27125 3.70175,0.26119 4.98184,0.0772 6.03948,-0.86823 0.9526,-0.85152 1.09745,-1.30995 0.49911,-1.57959 -0.46365,-0.20896 -0.63355,-0.74706 -0.37755,-1.19579 0.256,-0.44873 0.53718,-1.54468 0.62484,-2.43544 0.15383,-1.56305 -0.009,-1.60975 -4.65534,-1.33816 -4.77547,0.27913 -4.78334,0.27657 -0.96512,-0.31331 2.1173,-0.32711 4.33387,-1.03013 4.92573,-1.56226 0.98694,-0.88734 0.98605,-1.03883 -0.0108,-1.82849 -0.96082,-0.76111 -0.96785,-0.91048 -0.0606,-1.28763 2.4754,-1.02906 0.62628,-1.69153 -4.17436,-1.49553 l -5.20066,0.21234 4.49921,-0.62175 c 4.7306,-0.65373 5.90211,-1.10433 5.90211,-2.27015 0,-0.41834 -1.44464,-0.55556 -3.52303,-0.33465 -3.37986,0.35925 -3.41608,0.3449 -0.89136,-0.35302 2.79251,-0.77194 4.70333,-2.08159 4.05766,-2.78107 -0.21405,-0.23188 -2.60371,-0.32148 -5.31036,-0.19911 -2.70665,0.12237 -5.07676,-0.0502 -5.26691,-0.38352 -0.19016,-0.33331 1.87513,-0.60602 4.58953,-0.60602 5.32662,0 7.19909,-0.91638 5.7466,-2.81236 -0.57375,-0.74894 -0.5966,-1.19904 -0.0785,-1.54594 0.40201,-0.26916 0.55538,-1.0886 0.34081,-1.82098 -0.21457,-0.73237 -0.0759,-1.54199 0.30823,-1.79915 0.47524,-0.31819 0.69836,4.37446 0.69836,14.68794 l 0,15.15552 -4.86513,0.12514 c -2.67582,0.0688 -5.46908,-0.14607 -6.20724,-0.47754 z m -2.43428,-4.24701 c -0.85191,-1.17679 -0.82033,-1.19222 0.42112,-0.20571 0.73816,0.58658 1.46793,1.15907 1.62172,1.27221 0.15377,0.11314 -0.0357,0.20571 -0.42113,0.20571 -0.3854,0 -1.11517,-0.57249 -1.62171,-1.27221 z m 129.00441,-1.30959 c -1.61867,-1.37886 -3.20403,-2.50702 -3.52303,-2.50702 -0.89395,0 -0.68905,-2.02466 0.44543,-4.40132 1.0027,-2.1006 1.0632,-2.12139 2.73005,-0.93821 1.27625,0.90591 1.60817,1.62633 1.3208,2.86672 -0.51483,2.22216 0.6991,2.91182 1.66913,0.94826 l 0.77327,-1.56527 1.68546,1.82592 1.68547,1.82592 -1.54469,2.2634 c -0.84957,1.24487 -1.71437,2.24657 -1.92177,2.226 -0.2074,-0.0206 -1.70145,-1.16555 -3.32012,-2.5444 z m -127.28069,-0.003 c -1.22823,-1.06602 -1.20682,-1.08115 0.37503,-0.26501 2.05412,1.05979 2.43481,1.39557 1.58221,1.39557 -0.36005,0 -1.24081,-0.50875 -1.95724,-1.13056 z m 7.75661,0.40379 c 0.55362,-0.3876 1.30856,-0.70471 1.67764,-0.70471 0.36907,0 0.21809,0.31711 -0.33553,0.70471 -0.55362,0.38759 -1.30855,0.7047 -1.67763,0.7047 -0.36908,0 -0.21809,-0.31711 0.33552,-0.7047 z m 70.59679,-2.13674 -1.45823,-2.13673 1.83532,-1.56749 c 1.50555,-1.28583 1.87234,-1.37021 2.0413,-0.46957 0.11328,0.60386 0.67777,1.29405 1.25442,1.53377 0.83692,0.34792 0.9779,0.0361 0.69877,-1.54586 -0.32797,-1.85864 0.86888,-3.76584 2.40469,-3.8319 0.44152,-0.019 2.48221,4.33596 2.48221,5.29718 0,0.39866 -6.70082,4.85734 -7.29998,4.85734 -0.27514,0 -1.15647,-0.96153 -1.9585,-2.13674 z m -79.6955,-1.90172 c -1.22824,-1.06602 -1.20682,-1.08115 0.37503,-0.26502 2.05411,1.05979 2.43481,1.39558 1.58221,1.39558 -0.36006,0 -1.24081,-0.50875 -1.95724,-1.13056 z m 117.98677,-2.06752 -4.18431,-1.52725 -0.01,-3.18051 c -0.01,-3.176 -0.007,-3.17986 2.08728,-2.72615 1.15337,0.2499 2.36126,0.45436 2.68421,0.45436 0.32294,0 0.58717,0.98142 0.58717,2.18092 0,1.19951 0.30197,2.18092 0.67105,2.18092 0.36908,0 0.67105,-0.65427 0.67105,-1.45394 0,-1.66522 0.59515,-1.79148 2.95464,-0.62684 l 1.67569,0.82712 -1.32223,2.80775 c -0.72722,1.54427 -1.39157,2.75895 -1.47634,2.69931 -0.0848,-0.0596 -2.03707,-0.79571 -4.33844,-1.63569 z m -116.10187,-0.0667 c -1.19951,-0.5648 -2.18092,-1.18958 -2.18092,-1.3884 0,-0.19882 0.98141,0.07 2.18092,0.59744 1.1995,0.52742 2.63388,1.13918 3.1875,1.35947 0.89473,0.35602 0.89473,0.40374 0,0.42946 -0.55362,0.0159 -1.988,-0.43317 -3.1875,-0.99797 z m 88.05573,-1.40011 c -1.30662,-3.38778 -1.25542,-3.81122 0.52321,-4.3276 2.46506,-0.71566 3.0739,-0.53726 3.53475,1.03576 0.60715,2.07234 2.04713,1.33521 1.79683,-0.91979 -0.16832,-1.51638 0.12926,-1.91284 1.67763,-2.23503 1.03523,-0.21542 1.91571,-0.33878 1.95662,-0.27413 0.0409,0.0646 0.26697,1.48087 0.50236,3.14716 l 0.42798,3.02962 -3.40586,0.7913 c -1.87323,0.43521 -3.99559,1.1332 -4.71636,1.55109 -1.13465,0.65785 -1.44289,0.41653 -2.29716,-1.79838 z m -143.95366,-0.96919 c -0.9714,-3.27773 -2.34666,-5.11128 -4.05904,-5.41169 -1.08819,-0.19091 -0.55623,-1.49695 3.76087,-9.2335 2.76559,-4.95612 5.02834,-9.7373 5.02834,-10.62482 0,-2.8312 -2.36449,-5.2276 -5.69122,-5.76805 l -3.03247,-0.49264 0,-3.95381 0,-3.95381 15.76974,0 15.76973,0 0,3.98788 0,3.98789 -2.95245,0.80539 c -1.62385,0.44297 -3.88925,1.67444 -5.03422,2.73662 -1.7354,1.60991 -11.20448,17.67405 -16.45434,27.91454 -0.76698,1.49608 -1.59757,2.72285 -1.84576,2.72615 -0.24818,0.004 -0.81482,-1.22077 -1.25918,-2.72015 z m 61.27912,2.22236 c 0.65291,-0.18431 1.55883,-0.1722 2.01316,0.027 0.45432,0.19914 -0.0799,0.34995 -1.18712,0.33513 -1.10723,-0.0148 -1.47895,-0.17774 -0.82604,-0.36206 z m 94.81967,-3.49457 c -0.1999,-0.79967 -0.36758,-2.21073 -0.37262,-3.1357 -0.008,-1.46102 0.27707,-1.65185 2.17176,-1.45394 1.68965,0.17648 2.23036,0.60569 2.40042,1.90539 0.26819,2.04966 1.71205,1.71723 2.00809,-0.46233 0.16413,-1.20834 0.67582,-1.57875 2.18092,-1.57875 2.07462,0 2.45975,1.20472 1.55437,4.86219 -0.36095,1.45812 -0.77683,1.57938 -4.98663,1.45394 -3.96614,-0.11817 -4.64244,-0.33524 -4.95631,-1.5908 z m -102.38178,-0.36348 c -0.55362,-0.3876 -0.70461,-0.70471 -0.33553,-0.70471 0.36908,0 1.12401,0.31711 1.67763,0.70471 0.55362,0.38759 0.70461,0.7047 0.33553,0.7047 -0.36908,0 -1.12401,-0.31711 -1.67763,-0.7047 z m 0.33552,-2.9079 c -0.2281,-0.39983 -0.11275,-0.72697 0.25633,-0.72697 0.36907,0 0.85767,0.32714 1.08578,0.72697 0.2281,0.39984 0.11276,0.72698 -0.25632,0.72698 -0.36908,0 -0.85768,-0.32714 -1.08579,-0.72698 z m 1.15546,-6.29654 c -1.20989,-0.64603 -2.06618,-1.31937 -1.90286,-1.49629 0.16331,-0.17692 1.00224,0.0958 1.86427,0.60612 0.86204,0.51029 2.77524,1.15013 4.25155,1.42185 l 2.68421,0.49406 -2.34868,0.0744 c -1.29178,0.0409 -3.33859,-0.45414 -4.54849,-1.10018 z m -0.4844,-4.30965 -2.01316,-1.8753 2.34868,1.42462 c 1.29178,0.78354 2.80165,1.60322 3.35527,1.82151 0.71732,0.28284 0.6209,0.41234 -0.33553,0.45068 -0.73816,0.0296 -2.24803,-0.79011 -3.35526,-1.82151 z m 6.87829,1.40105 c 0.46134,-0.20167 1.21628,-0.20167 1.67763,0 0.46135,0.20167 0.0839,0.36668 -0.83882,0.36668 -0.9227,0 -1.30016,-0.16501 -0.83881,-0.36668 z m -5.53619,-3.61521 c -1.29898,-1.10582 -1.2882,-1.1226 0.33553,-0.52211 2.90002,1.07248 7.16481,0.69481 8.65531,-0.7665 1.66495,-1.63232 1.18939,-2.92346 -0.67802,-1.84077 -0.7348,0.42602 -1.90492,0.67226 -2.60026,0.54719 -0.76311,-0.13725 0.0486,-0.68168 2.04778,-1.37347 l 3.31203,-1.14608 0,1.8833 c 0,3.48204 -8.02321,5.81418 -11.07237,3.21844 z m 1.55181,-2.9427 c 0.48441,-0.21 1.0632,-0.18418 1.28619,0.0574 0.22298,0.24157 -0.17336,0.41339 -0.88076,0.38182 -0.78174,-0.0349 -0.94075,-0.20714 -0.40543,-0.43922 z m -0.54523,-3.90334 c -0.72123,-0.53224 -0.24565,-0.60478 1.67763,-0.25591 3.32891,0.60383 3.8647,1.02452 1.28619,1.00986 -1.07648,-0.006 -2.4102,-0.3454 -2.96382,-0.75395 z m 7.65183,0.12415 -2.07844,-0.44953 2.2462,-1.18027 c 2.22267,-1.1679 2.2462,-1.16219 2.2462,0.54523 0,0.94902 -0.0755,1.68243 -0.16776,1.6298 -0.0923,-0.0526 -1.10306,-0.29799 -2.2462,-0.54523 z m -9.66499,-3.71349 c -0.67242,-0.4658 0.21866,-0.54896 2.68421,-0.25049 2.02994,0.24573 3.81661,0.56451 3.9704,0.70841 0.6572,0.61495 -5.74147,0.17464 -6.65461,-0.45792 z m 9.94464,-0.77573 c 1.13356,-0.49243 1.44523,-1.05588 1.14704,-2.07366 -0.22518,-0.76864 -0.0952,-1.60792 0.28892,-1.86509 0.4338,-0.29044 0.69835,0.51257 0.69835,2.11974 0,2.34905 -0.16994,2.58307 -1.8454,2.54123 -1.81281,-0.0453 -1.81791,-0.058 -0.28891,-0.72222 z m -5.06674,-1.9164 c 0.65292,-0.18432 1.55884,-0.1722 2.01316,0.027 0.45432,0.19914 -0.0799,0.34994 -1.18711,0.33513 -1.10724,-0.0148 -1.47896,-0.17775 -0.82605,-0.36207 z m -2.36145,-2.91716 c 0.83043,-0.17328 2.18931,-0.17328 3.01974,0 0.83042,0.17328 0.15098,0.31505 -1.50987,0.31505 -1.66086,0 -2.3403,-0.14177 -1.50987,-0.31505 z m 8.22039,-0.95219 c -0.66891,-0.4608 -0.72518,-0.69715 -0.16776,-0.70455 0.46135,-0.006 0.83882,-0.33827 0.83882,-0.73811 0,-0.43618 -2.68421,-0.72697 -6.71053,-0.72697 l -6.71053,0 0,-6.40815 0,-6.40815 6.87829,0.17682 6.87829,0.17683 0.20198,3.66037 c 0.1111,2.01321 0.1111,5.4615 0,7.66286 -0.1692,3.353 -0.36531,3.88995 -1.20856,3.30905 z m 3.11137,-6.67927 c -0.88038,-9.12487 -0.91537,-9.01494 3.66706,-11.52091 2.25183,-1.23145 4.19157,-2.13354 4.31054,-2.00465 0.34974,0.37889 0.62095,12.13717 0.28758,12.46833 -0.1673,0.16618 -1.9993,1.4682 -4.0711,2.89336 l -3.76693,2.5912 z m -22.40413,1.91984 -3.52302,-1.7437 0,-6.8866 0,-6.88662 1.84539,1.03753 c 1.01497,0.57064 2.9031,1.53572 4.19586,2.14461 l 2.35045,1.10709 0.21914,6.54525 c 0.24986,7.46277 0.34771,7.37272 -5.08782,4.68244 z m 8.89145,-11.94454 c -3.67651,-0.48131 -11.52522,-4.21667 -10.62711,-5.05765 0.30873,-0.28908 2.12717,-1.23335 4.04098,-2.09839 4.94424,-2.23475 16.40855,-2.24592 22.66172,-0.0221 2.39819,0.85288 4.19437,1.84162 3.99152,2.19719 -0.20285,0.35558 -2.14916,1.62011 -4.32512,2.81006 -4.23483,2.31588 -9.2995,3.01432 -15.74199,2.17088 z m -0.33553,-3.64 c -1.75178,-1.17288 0.0404,-1.81879 4.80092,-1.73028 5.26721,0.0979 8.18346,1.66647 3.38592,1.82115 -3.71994,0.11994 -3.95372,0.16572 -4.60789,0.90218 -0.31397,0.35347 1.42644,0.49783 3.96853,0.32916 8.35166,-0.5541 7.52551,-3.54484 -1.17248,-4.24443 -2.58355,-0.20779 -5.75103,-0.20281 -7.03882,0.0111 -2.99886,0.49805 -3.50537,2.48756 -0.88216,3.46499 2.09886,0.78207 3.03848,0.44546 1.54598,-0.55382 z m -91.93421,-51.36233 0,-2.08368 8.89145,-1.98525 c 4.8903,-1.09189 9.57089,-2.19022 10.40132,-2.44074 1.28822,-0.38861 1.50986,-0.17623 1.50986,1.44676 0,1.73628 -0.64411,2.28543 -2.28718,1.94993 -0.33526,-0.0685 -0.78822,0.15872 -1.00658,0.50485 -0.21836,0.34612 -3.86972,1.39357 -8.11413,2.32766 -4.24441,0.93409 -8.09457,1.84816 -8.55592,2.03125 -0.54743,0.21725 -0.83882,-0.39094 -0.83882,-1.75078 z m 0,-7.80351 c 0,-0.96821 0.5857,-1.40339 1.50987,-1.12187 0.0923,0.0281 1.07065,-0.32077 2.17416,-0.77529 1.10352,-0.45452 4.27424,-1.26803 7.04605,-1.80779 10.66376,-2.07658 10.07255,-2.05445 10.07255,-0.37699 0,0.83532 -0.37746,1.45282 -0.83881,1.37223 -0.46135,-0.0806 -1.29178,0.0347 -1.8454,0.25614 -0.8395,0.33584 -6.64395,1.50786 -16.27302,3.2858 -1.38064,0.25492 -1.8454,0.0453 -1.8454,-0.83223 z"
       style="fill:none;"/>
  </g>
</svg>
