<?xml version="1.0" standalone="no"?>
<!DOCTYPE svg PUBLIC "-//W3C//DTD SVG 20010904//EN"
 "http://www.w3.org/TR/2001/REC-SVG-20010904/DTD/svg10.dtd">
<svg version="1.0" xmlns="http://www.w3.org/2000/svg"
 width="700.000000pt" height="700.000000pt" viewBox="0 0 700.000000 700.000000"
 preserveAspectRatio="xMidYMid meet">
<metadata>
Created by potrace 1.11, written by Peter Selinger 2001-2013
</metadata>
<g transform="translate(0.000000,700.000000) scale(0.100000,-0.100000)"
fill="#000000" stroke="none">
<path d="M671 6990 c-10 -6 -10 -12 0 -28 10 -16 10 -26 2 -44 -6 -13 -14 -41
-17 -63 -3 -24 -14 -48 -28 -60 -22 -19 -22 -23 -11 -70 l13 -50 -53 -52 c-28
-29 -57 -52 -63 -53 -6 0 -28 13 -49 29 l-38 28 -63 -85 -63 -85 30 -43 c16
-23 29 -46 29 -51 0 -5 -15 -38 -34 -73 l-34 -65 -50 0 -50 1 -21 -71 c-38
-132 -38 -125 2 -159 34 -29 41 -44 46 -108 1 -13 33 -9 85 9 58 21 89 63 132
177 15 39 42 100 62 136 36 67 142 219 153 220 4 0 5 -49 3 -110 -2 -101 -5
-115 -35 -172 -63 -124 -94 -253 -66 -277 13 -11 23 -6 59 28 l44 40 2 -145
c1 -107 6 -152 17 -174 19 -38 19 -77 -1 -88 -21 -12 -21 -108 0 -177 20 -63
20 -85 1 -121 -23 -44 -19 -92 11 -126 31 -37 29 -79 -3 -93 -27 -12 -31 -55
-8 -79 14 -14 14 -18 0 -40 -14 -21 -16 -61 -16 -273 0 -247 3 -290 21 -324
14 -25 12 -51 -4 -85 -9 -19 -16 -80 -19 -181 -4 -153 -15 -199 -41 -173 -9 9
-13 48 -15 169 -1 30 -4 51 -8 48 -6 -6 -9 -51 -12 -179 -2 -75 -71 -67 -71 8
0 21 -4 33 -10 29 -6 -3 -10 -22 -10 -41 0 -30 -3 -34 -27 -35 -256 -9 -302
-19 -314 -62 -6 -21 -2 -34 15 -54 l22 -26 565 0 c310 0 672 1 804 2 132 1
282 1 333 -1 51 -2 100 -1 108 2 12 4 -11 31 -82 95 -54 50 -110 101 -125 115
-15 14 -42 38 -60 55 -39 34 -345 312 -369 335 -17 16 -63 57 -206 185 -49 44
-111 100 -137 125 l-48 45 3 60 3 60 115 -100 c63 -54 117 -102 120 -105 3 -3
43 -39 90 -80 47 -41 87 -77 90 -80 3 -3 43 -39 90 -80 47 -41 87 -77 90 -80
3 -3 66 -59 140 -125 74 -66 140 -124 146 -130 59 -55 161 -143 179 -154 26
-16 60 -8 48 12 -8 13 -93 93 -253 237 -52 47 -104 94 -116 105 -12 11 -37 33
-55 49 -31 27 -248 221 -343 306 -22 19 -49 44 -61 55 -137 122 -187 167 -231
210 l-53 50 -6 145 c-3 80 -6 154 -7 165 0 11 2 36 6 56 6 30 3 42 -17 64 -22
26 -23 30 -11 85 6 32 15 64 19 70 15 25 14 132 -1 156 -13 19 -13 27 -3 46 8
15 14 83 17 198 2 96 4 179 6 184 1 5 19 -17 41 -48 l39 -56 -27 -58 c-15 -31
-31 -77 -35 -102 -24 -144 60 -298 185 -337 30 -9 58 -24 63 -33 4 -8 11 -45
14 -82 4 -37 9 -77 12 -90 2 -13 6 -34 9 -48 3 -14 11 -50 18 -80 12 -50 12
-57 -5 -74 -24 -26 -23 -45 8 -105 14 -28 26 -60 27 -71 1 -11 5 -20 10 -20 5
0 6 20 3 45 -8 49 -10 47 76 59 100 13 243 93 347 194 49 47 80 71 87 65 74
-55 103 -80 104 -88 0 -14 -148 -156 -201 -192 -126 -86 -240 -129 -418 -157
-21 -4 -23 -17 -9 -58 16 -45 78 -95 136 -111 30 -8 48 -20 57 -38 28 -54 47
-54 173 -4 l44 18 -6 51 -6 51 56 33 c60 35 79 39 91 20 4 -7 16 -19 25 -26
22 -17 53 -1 127 66 l54 48 -26 39 -26 39 22 30 c13 17 36 48 51 69 l29 37 43
-25 44 -26 40 62 c22 35 45 79 51 99 10 34 9 38 -26 73 -30 30 -34 39 -26 56
6 11 11 33 11 50 0 46 33 73 89 75 l46 1 13 50 c7 28 15 69 17 93 3 23 6 48 8
55 1 7 -19 23 -45 36 l-48 23 0 94 c0 87 2 94 20 94 10 0 31 5 45 12 25 11 26
15 21 72 -7 91 -17 146 -30 154 -6 4 -33 7 -61 7 l-49 0 -28 75 c-15 41 -28
78 -28 81 0 3 14 21 30 39 17 18 30 40 30 48 0 15 -58 122 -83 155 -18 22 -32
22 -72 -3 l-33 -20 -51 57 c-60 69 -82 121 -57 135 32 18 17 47 -56 108 -40
33 -77 60 -83 60 -5 0 -23 -18 -38 -39 l-28 -38 -72 38 c-72 38 -72 38 -77 85
l-5 47 -60 23 c-33 12 -76 24 -95 26 -31 3 -36 -1 -54 -37 -21 -38 -23 -40
-71 -40 -101 -1 -118 6 -131 50 l-11 40 -54 0 c-69 1 -141 -12 -150 -26 -4 -7
-10 -29 -13 -50 -7 -41 -25 -54 -27 -19 -6 94 -59 120 -204 99 -5 0 -26 1 -46
4 -20 3 -42 2 -48 -3z m1277 -289 c3 -8 -1 -12 -9 -9 -7 2 -15 10 -17 17 -3 8
1 12 9 9 7 -2 15 -10 17 -17z m-574 -9 l29 -2 -7 -67 c-4 -38 -10 -71 -14 -75
-4 -3 -61 -9 -127 -12 -71 -3 -150 -14 -195 -25 -41 -11 -79 -21 -83 -21 -4 0
-7 35 -5 77 l3 77 57 18 c31 9 76 20 100 23 24 4 44 8 45 9 3 2 155 1 197 -2z
m220 -65 c169 -71 308 -195 414 -369 60 -98 62 -111 15 -133 -21 -10 -50 -24
-65 -31 -26 -13 -27 -13 -59 44 -93 165 -228 286 -402 361 -25 11 -47 25 -49
33 -4 12 0 40 17 116 6 27 24 24 129 -21z m-243 -252 c3 -16 1 -41 -4 -55 -10
-27 -44 -174 -53 -230 -8 -47 -7 -46 -60 -54 -25 -3 -65 -14 -89 -25 l-43 -19
-63 85 c-55 75 -63 92 -67 139 -2 29 -1 69 2 87 6 31 13 37 59 56 47 19 140
45 192 53 10 2 42 1 70 -2 46 -5 50 -7 56 -35z m165 -25 c44 -22 105 -62 136
-90 58 -51 158 -189 158 -217 0 -9 -54 -40 -145 -84 l-145 -69 -36 40 c-20 22
-59 55 -86 72 -58 38 -57 21 -12 246 17 86 33 142 40 142 6 0 47 -18 90 -40z
m593 -312 c5 -18 15 -62 22 -98 46 -251 9 -490 -107 -697 -41 -73 -30 -73
-116 6 l-37 35 24 41 c95 172 125 422 75 630 -14 61 -14 63 38 89 66 35 88 34
101 -6z m-244 -139 c14 -81 14 -215 -1 -288 -17 -82 -55 -184 -82 -218 l-17
-23 -65 49 c-36 27 -93 76 -128 108 l-63 59 17 40 c10 23 17 69 18 114 0 41 4
80 9 87 4 6 28 21 53 33 25 13 57 32 72 44 15 12 40 23 55 25 16 1 47 11 70
21 47 21 48 20 62 -51z m-547 -38 c44 -23 61 -49 67 -101 14 -146 -121 -213
-229 -114 -37 34 -38 37 -33 86 8 64 33 106 77 129 44 24 71 24 118 0z m234
-402 c135 -114 170 -148 162 -161 -49 -80 -223 -183 -340 -202 l-41 -7 -6 38
c-4 21 -9 99 -13 174 l-6 135 39 12 c22 7 57 25 79 41 21 16 42 30 46 30 3 1
39 -27 80 -60z m-772 -27 c0 -26 -16 -46 -33 -39 -18 7 -28 52 -14 66 14 14
47 -5 47 -27z m-25 -681 c7 -12 -12 -24 -25 -16 -11 7 -4 25 10 25 5 0 11 -4
15 -9z m269 -151 c39 -35 73 -66 126 -114 25 -22 86 -77 135 -121 50 -44 92
-82 95 -85 3 -3 28 -25 55 -49 28 -24 75 -67 105 -96 30 -28 104 -96 165 -151
155 -140 235 -219 235 -233 0 -20 -37 9 -195 149 -28 25 -84 74 -124 110 -41
36 -79 70 -85 75 -6 6 -60 55 -121 110 -60 54 -117 106 -126 114 -8 9 -55 52
-104 96 -134 121 -215 204 -215 221 0 17 11 12 54 -26z m-112 -82 c-9 -9 -12
-7 -12 12 0 19 3 21 12 12 9 -9 9 -15 0 -24z m208 -132 c69 -61 130 -115 136
-121 6 -5 39 -35 74 -65 35 -30 68 -60 74 -66 6 -5 67 -59 136 -119 187 -163
175 -151 153 -156 -10 -3 -67 -4 -128 -4 -106 0 -110 1 -113 23 -4 24 -22 31
-22 8 0 -22 -17 -28 -86 -31 l-64 -3 -1 29 c-1 16 -3 38 -4 49 -1 11 -3 27 -4
36 0 8 -5 12 -11 9 -5 -3 -10 -33 -10 -65 0 -58 0 -59 -27 -56 -27 3 -27 4
-28 79 -1 73 -14 122 -16 61 -1 -16 -2 -51 -3 -77 -2 -49 -13 -64 -46 -63 -12
1 -15 25 -18 145 -1 80 -5 147 -7 150 -12 11 -15 -15 -19 -145 -2 -76 -4 -142
-5 -147 -1 -11 -68 -2 -85 12 -7 6 -16 30 -20 52 -8 48 -9 500 -1 507 8 8 91
-60 204 -168 9 -8 68 -60 131 -114 63 -54 132 -114 153 -132 52 -45 61 -51 49
-28 -9 16 -66 71 -166 157 -78 68 -299 271 -343 315 -33 33 -45 60 -20 46 6
-5 68 -58 137 -118z m-247 89 c8 -19 -13 -31 -23 -14 -9 14 -4 29 10 29 4 0
10 -7 13 -15z m71 -199 c-3 -9 -10 -16 -15 -16 -11 0 -12 43 -2 54 10 10 24
-20 17 -38z m-36 -94 c2 -23 -1 -32 -12 -32 -20 0 -25 10 -19 43 7 36 27 29
31 -11z m-74 -234 c5 -9 7 -20 4 -23 -10 -10 -48 14 -48 31 0 20 29 14 44 -8z"/>
<path d="M3380 6449 c-88 -16 -184 -45 -188 -57 -2 -7 5 -12 15 -12 16 0 131
22 241 46 12 2 22 11 22 19 0 16 -19 17 -90 4z"/>
<path d="M3325 6344 c-55 -13 -110 -26 -123 -29 -19 -5 -22 -10 -16 -28 3 -12
7 -23 8 -24 1 -1 19 2 41 8 22 5 56 12 75 15 19 3 55 13 80 21 25 9 52 16 60
18 8 1 16 12 18 23 4 28 -13 28 -143 -4z"/>
<path d="M3420 6247 c-25 -5 -75 -17 -111 -28 -36 -10 -78 -20 -93 -21 -20 -2
-26 -8 -27 -28 -1 -46 2 -849 6 -1318 2 -255 2 -462 0 -460 -1 2 -5 23 -8 48
-9 72 -19 110 -28 111 -5 1 -27 3 -49 4 -22 1 -45 3 -50 4 -6 0 -27 34 -47 75
l-36 74 32 51 c31 47 32 52 17 73 -22 30 -117 128 -125 128 -4 0 -25 -18 -46
-40 -21 -22 -47 -40 -56 -40 -9 0 -42 11 -73 25 -48 21 -56 29 -57 52 -3 54
-6 74 -15 83 -10 10 -194 20 -195 11 -12 -105 -16 -111 -92 -136 l-66 -23 -42
39 c-23 22 -45 39 -48 39 -17 0 -131 -103 -131 -118 0 -9 9 -36 20 -60 l20
-43 -43 -74 -42 -74 -61 6 c-69 6 -64 12 -84 -82 -28 -125 -23 -146 30 -153
35 -4 57 -34 70 -95 20 -97 20 -116 0 -130 -10 -7 -19 -26 -21 -42 -2 -24 6
-39 44 -76 28 -28 47 -55 47 -69 0 -19 4 -22 28 -17 24 5 39 -3 90 -44 34 -27
63 -55 63 -62 1 -7 3 -30 4 -52 1 -22 3 -46 4 -53 1 -18 78 -50 134 -57 l45
-6 14 43 15 43 80 3 81 3 28 -51 c15 -27 33 -50 39 -50 20 0 127 39 143 52 11
9 13 27 9 74 -5 59 -4 62 26 91 76 69 69 66 121 37 35 -20 50 -23 60 -15 22
18 86 128 86 146 0 10 -18 37 -40 61 -43 47 -43 44 -16 154 10 42 13 45 56 53
25 5 50 15 56 22 7 10 10 -44 11 -185 0 -108 3 -206 7 -216 7 -17 9 -17 18 6
11 26 15 327 21 1475 3 584 5 653 20 682 23 43 34 48 49 21 10 -18 13 -193 16
-818 1 -437 3 -806 5 -820 2 -20 17 1 70 92 l67 118 -2 783 -3 783 -45 -9z
m-714 -1487 c103 -50 184 -150 220 -270 19 -64 21 -186 4 -250 -30 -112 -122
-236 -208 -279 -161 -81 -353 -52 -466 69 -93 99 -135 209 -131 342 8 321 307
521 581 388z m-781 -320 c3 -5 1 -10 -4 -10 -6 0 -11 5 -11 10 0 6 2 10 4 10
3 0 8 -4 11 -10z m75 -344 c0 -3 -4 -8 -10 -11 -5 -3 -10 -1 -10 4 0 6 5 11
10 11 6 0 10 -2 10 -4z"/>
<path d="M2510 4579 c-81 -15 -129 -54 -166 -132 -84 -181 94 -387 271 -313
89 38 134 111 135 219 0 93 -38 164 -115 209 -24 15 -91 24 -125 17z m77 -57
c13 -8 2 -50 -28 -106 l-16 -29 -25 34 c-14 19 -33 46 -43 61 -17 27 -17 28 6
37 29 12 90 13 106 3z m82 -69 c48 -72 44 -83 -34 -83 -36 0 -65 2 -65 5 0 9
60 125 64 125 2 0 18 -21 35 -47z m-209 5 c29 -31 52 -76 45 -88 -7 -11 -118
-14 -128 -4 -12 13 35 114 54 114 4 0 18 -10 29 -22z m238 -135 c3 -22 -23
-83 -36 -83 -12 0 -26 14 -56 54 -34 45 -27 54 43 52 39 -1 46 -4 49 -23z
m-184 6 c2 -2 -9 -32 -26 -66 -25 -55 -32 -62 -48 -53 -26 14 -73 112 -58 121
12 7 124 6 132 -2z m85 -68 l40 -59 -39 -16 c-60 -24 -110 -19 -110 11 0 21
50 123 60 123 5 0 27 -27 49 -59z"/>
<path d="M4420 5648 c-53 -8 -120 -35 -120 -49 0 -10 82 -47 135 -60 83 -21
226 9 265 56 31 37 -150 72 -280 53z m158 -32 c50 -11 50 -36 0 -42 -13 -1
-35 -5 -50 -8 -15 -2 -30 0 -33 5 -4 5 6 9 22 10 15 0 37 4 48 8 18 7 17 8 -5
14 -21 4 -94 4 -122 -2 -4 0 -5 -8 -2 -16 5 -11 2 -14 -12 -8 -87 32 39 64
154 39z"/>
<path d="M4272 5503 c0 -43 2 -86 4 -95 6 -19 91 -61 105 -52 5 3 9 42 9 88
l0 82 -55 27 c-31 15 -57 27 -59 27 -2 0 -4 -35 -4 -77z"/>
<path d="M4678 5554 c-25 -13 -49 -32 -53 -43 -5 -17 2 -162 9 -168 1 -2 26
14 55 34 l52 37 -2 78 c-1 43 -5 80 -8 82 -3 2 -27 -7 -53 -20z"/>
<path d="M4410 5425 c0 -47 3 -85 8 -86 4 0 41 -2 82 -4 93 -3 92 -3 85 -15
-3 -5 -1 -10 5 -10 7 0 10 32 8 98 l-3 97 -92 3 -93 3 0 -86z"/>
<path d="M3636 5371 c-2 -3 -3 -27 -3 -53 l-1 -46 44 -11 c44 -11 74 -41 74
-73 0 -9 -27 -70 -60 -135 -33 -65 -60 -123 -60 -129 0 -7 7 -15 16 -18 8 -3
24 -27 35 -52 26 -58 25 -59 119 111 111 199 152 259 193 278 19 9 42 17 51
17 15 0 18 10 18 60 0 62 18 57 -213 57 -115 0 -211 -3 -213 -6z"/>
<path d="M4590 5260 c0 -10 -8 -24 -17 -29 -16 -9 -16 -10 5 -11 18 0 22 5 22
30 0 17 -2 30 -5 30 -3 0 -5 -9 -5 -20z"/>
<path d="M4478 5213 c6 -2 18 -2 25 0 6 3 1 5 -13 5 -14 0 -19 -2 -12 -5z"/>
<path d="M4570 5188 l-25 -10 24 -9 c27 -11 34 -7 29 14 -2 11 -9 12 -28 5z"/>
<path d="M4488 5163 c6 -2 18 -2 25 0 6 3 1 5 -13 5 -14 0 -19 -2 -12 -5z"/>
<path d="M4539 5123 c-23 -12 -22 -13 16 -7 l40 6 -20 -21 c-21 -21 -90 -32
-113 -17 -7 4 -12 3 -12 -3 0 -15 34 -22 70 -16 35 6 80 32 80 46 0 5 0 12 0
17 0 12 -36 10 -61 -5z"/>
<path d="M4430 5052 c0 -5 11 -14 25 -20 14 -6 25 -10 25 -8 0 2 -11 11 -25
20 -14 9 -25 13 -25 8z"/>
<path d="M4587 5020 c-4 -16 -4 -37 -1 -45 7 -17 -35 -29 -93 -29 -18 0 -33
-3 -33 -7 0 -5 10 -8 23 -7 12 0 42 0 67 -1 47 -2 46 -5 -7 -37 -15 -9 -13
-10 15 -6 18 2 32 0 32 -6 0 -12 -24 -22 -52 -22 -28 0 -19 -8 16 -14 30 -5
48 -16 27 -16 -8 0 -9 -5 -1 -19 11 -22 6 -28 -38 -41 -25 -8 -25 -8 10 -9 36
-1 36 -1 33 -42 -1 -22 -7 -45 -11 -49 -5 -5 -34 -11 -64 -13 -51 -3 -49 -3
18 -5 l72 -2 1 33 c2 77 -2 361 -5 364 -2 2 -6 -10 -9 -27z"/>
<path d="M4431 4996 c8 -8 29 -16 48 -20 44 -8 38 -2 -18 18 -33 11 -40 11
-30 2z"/>
<path d="M5743 4913 c-7 -2 -13 -13 -13 -23 0 -26 -17 -34 -28 -14 -7 12 -17
15 -36 10 -29 -7 -35 -39 -13 -70 12 -17 16 -17 60 -2 26 9 55 16 63 16 12 0
14 8 9 36 -8 53 -13 59 -42 47z"/>
<path d="M5810 4886 c0 -42 7 -47 70 -49 62 -1 76 13 71 71 -2 21 -48 14 -54
-8 -6 -23 -27 -27 -27 -6 0 14 -21 26 -46 26 -9 0 -14 -11 -14 -34z"/>
<path d="M5974 4896 c-3 -8 -4 -26 -2 -41 2 -23 12 -31 57 -47 59 -22 74 -17
86 33 5 22 2 27 -16 32 -27 7 -39 1 -40 -21 0 -9 -6 -2 -13 17 -9 26 -19 35
-39 38 -17 2 -29 -2 -33 -11z"/>
<path d="M3548 4861 l-33 -29 56 -169 c31 -92 84 -247 119 -343 34 -96 84
-237 111 -313 27 -77 47 -142 45 -146 -6 -8 -311 -5 -333 3 -34 13 -43 71 -44
268 0 153 -3 189 -12 174 -34 -54 -55 -70 -90 -70 l-36 0 -3 -174 c-3 -169 -4
-174 -27 -191 -14 -11 -37 -17 -56 -15 -17 1 -38 -1 -45 -6 -11 -7 -15 -56
-11 -120 1 -14 105 -15 954 -14 523 1 1007 3 1075 5 112 2 147 9 123 23 -4 3
-9 16 -9 28 -1 26 -69 158 -82 158 -4 0 -15 -15 -24 -34 -18 -38 -27 -43 -76
-41 -40 1 -20 -33 -219 374 l-119 245 29 35 c139 173 176 218 194 233 20 18
80 42 125 52 21 4 25 11 26 46 1 34 -1 40 -20 41 -128 4 -374 3 -386 -2 -14
-6 -18 -41 -11 -80 1 -3 17 -6 37 -7 51 -2 84 -26 84 -61 0 -32 -28 -76 -142
-222 -105 -134 -145 -179 -158 -179 -6 0 -8 -5 -4 -11 4 -7 6 -37 5 -68 l-2
-56 48 54 c27 30 52 60 56 68 4 7 12 13 18 13 5 0 61 -105 123 -232 108 -220
113 -233 93 -239 -12 -3 -87 -4 -167 -1 -80 2 -156 3 -170 2 -47 -2 -105 -3
-140 -1 -19 1 -121 0 -227 -2 -105 -2 -196 -1 -202 2 -5 4 -65 162 -131 351
-186 528 -231 654 -242 668 -18 22 -66 14 -100 -17z m82 -76 c19 -23 8 -50
-20 -50 -16 0 -26 6 -28 18 -4 18 14 47 28 47 4 0 13 -7 20 -15z m1288 -606
c142 -288 137 -275 111 -293 -41 -29 -50 -15 -211 321 -56 118 -68 161 -47
174 34 21 45 6 147 -202z"/>
<path d="M4780 4346 c0 -15 189 -394 208 -416 39 -47 31 -14 -26 111 -84 185
-149 304 -166 307 -9 2 -16 1 -16 -2z"/>
<path d="M5577 4853 c-4 -3 -7 -19 -7 -35 0 -30 -14 -37 -27 -14 -7 13 -12 12
-32 -3 -24 -18 -24 -18 -5 -44 24 -33 31 -33 82 0 45 29 48 38 30 78 -11 24
-28 32 -41 18z"/>
<path d="M6131 4819 c-16 -48 -15 -51 40 -88 l50 -34 24 29 24 29 -24 25 c-24
24 -25 24 -40 5 -15 -21 -17 -19 -19 16 0 12 -11 28 -22 36 -20 13 -22 12 -33
-18z"/>
<path d="M4450 4810 c8 -5 20 -10 25 -10 6 0 3 5 -5 10 -8 5 -19 10 -25 10 -5
0 -3 -5 5 -10z"/>
<path d="M5717 4775 c-218 -70 -363 -291 -352 -537 9 -202 123 -385 291 -468
178 -87 404 -43 545 108 165 175 200 417 92 639 -108 223 -350 332 -576 258z
m268 -197 c70 -37 120 -90 157 -167 27 -56 31 -77 31 -141 -1 -303 -331 -457
-532 -248 -23 24 -53 66 -67 95 -24 48 -26 60 -22 161 3 105 4 111 39 168 40
65 112 126 174 147 64 22 161 15 220 -15z"/>
<path d="M5795 4565 c-93 -28 -149 -78 -192 -172 -19 -40 -24 -70 -25 -127 0
-90 24 -152 85 -214 71 -73 98 -85 191 -86 71 0 87 3 134 29 54 29 94 71 128
135 29 54 27 209 -4 272 -63 127 -201 198 -317 163z m169 -35 c141 -67 202
-249 131 -393 -82 -167 -269 -211 -401 -95 -70 62 -97 123 -99 228 -3 203 194
342 369 260z"/>
<path d="M5850 4510 c0 -5 5 -10 10 -10 6 0 10 5 10 10 0 6 -4 10 -10 10 -5 0
-10 -4 -10 -10z"/>
<path d="M5810 4467 c-81 -21 -126 -82 -136 -187 -13 -125 74 -214 196 -204
65 5 112 38 148 103 80 141 -55 328 -208 288z m120 -76 c105 -76 67 -260 -57
-275 -36 -4 -100 22 -125 51 -25 27 -36 100 -24 143 16 53 28 68 70 90 45 22
97 19 136 -9z"/>
<path d="M5829 4383 c-87 -13 -112 -161 -37 -215 60 -42 130 -19 164 55 14 31
15 43 5 77 -18 61 -67 92 -132 83z m54 -103 c6 -23 -17 -45 -38 -36 -8 3 -15
16 -15 30 0 39 43 44 53 6z"/>
<path d="M5845 4281 c-3 -5 -1 -12 5 -16 5 -3 10 1 10 9 0 18 -6 21 -15 7z"/>
<path d="M5620 4284 c0 -8 5 -12 10 -9 6 3 10 10 10 16 0 5 -4 9 -10 9 -5 0
-10 -7 -10 -16z"/>
<path d="M6075 4280 c-3 -5 -1 -10 4 -10 6 0 11 5 11 10 0 6 -2 10 -4 10 -3 0
-8 -4 -11 -10z"/>
<path d="M5645 4160 c3 -5 8 -10 11 -10 2 0 4 5 4 10 0 6 -5 10 -11 10 -5 0
-7 -4 -4 -10z"/>
<path d="M5845 4021 c-3 -5 -1 -12 5 -16 5 -3 10 1 10 9 0 18 -6 21 -15 7z"/>
<path d="M5441 4736 c-7 -8 -9 -25 -5 -41 6 -25 5 -26 -14 -14 -19 12 -23 11
-36 -6 -20 -26 -20 -28 10 -56 l26 -24 39 45 c43 51 45 57 23 88 -18 26 -27
27 -43 8z"/>
<path d="M4555 4730 c-3 -5 -1 -10 4 -10 6 0 11 5 11 10 0 6 -2 10 -4 10 -3 0
-8 -4 -11 -10z"/>
<path d="M6265 4710 l-28 -29 29 -38 c15 -21 34 -44 40 -50 28 -29 77 24 53
55 -8 9 -15 19 -16 21 -1 2 -10 -2 -18 -9 -14 -12 -15 -10 -10 13 4 16 1 34
-7 46 -14 20 -15 20 -43 -9z"/>
<path d="M3487 4688 c-90 -154 -187 -344 -187 -365 0 -25 40 -63 68 -63 27 0
52 27 91 98 18 32 36 64 41 72 5 8 25 43 44 78 l35 62 -25 73 c-14 39 -30 76
-34 80 -4 5 -19 -11 -33 -35z m-59 -294 c4 -29 -23 -51 -43 -34 -16 13 -20 42
-8 54 14 14 48 1 51 -20z"/>
<path d="M4440 4726 c0 -2 7 -7 16 -10 8 -3 12 -2 9 4 -6 10 -25 14 -25 6z"/>
<path d="M4580 4620 c-8 -4 -41 -7 -72 -6 -58 1 -69 -11 -13 -14 49 -3 79 0
95 10 19 12 10 21 -10 10z"/>
<path d="M5335 4589 c-4 -12 -2 -26 4 -32 17 -17 13 -26 -8 -20 -22 6 -40 -32
-23 -49 22 -22 57 -3 79 41 l22 44 -23 18 c-31 24 -43 24 -51 -2z"/>
<path d="M6358 4566 c-23 -17 -22 -31 2 -83 20 -45 34 -52 64 -30 28 20 13 59
-19 51 -20 -5 -23 -3 -18 15 3 12 9 24 14 26 11 8 0 35 -15 35 -6 0 -19 -7
-28 -14z"/>
<path d="M4427 4509 c7 -7 15 -10 18 -7 3 3 -2 9 -12 12 -14 6 -15 5 -6 -5z"/>
<path d="M4587 4468 c-2 -18 -1 -42 4 -53 5 -14 8 -4 8 33 1 59 -4 68 -12 20z"/>
<path d="M5280 4442 c0 -11 7 -23 16 -26 9 -4 14 -10 10 -14 -4 -4 -9 -5 -10
-2 -6 11 -36 -24 -36 -41 0 -15 7 -19 34 -19 33 0 35 2 45 48 11 52 8 58 -31
67 -24 6 -28 4 -28 -13z"/>
<path d="M6408 4409 c-20 -11 -23 -47 -8 -98 11 -40 24 -51 51 -44 13 4 19 14
19 34 0 22 -4 27 -20 24 -24 -5 -26 8 -4 25 19 16 15 64 -6 67 -8 2 -23 -2
-32 -8z"/>
<path d="M5267 4313 c-11 -10 -8 -20 10 -38 16 -16 16 -18 0 -27 -9 -5 -17
-19 -17 -32 0 -19 4 -22 30 -18 17 2 31 7 31 11 1 3 2 25 3 49 2 32 -2 46 -15
53 -21 11 -33 11 -42 2z"/>
<path d="M4440 4260 c8 -5 20 -10 25 -10 6 0 3 5 -5 10 -8 5 -19 10 -25 10 -5
0 -3 -5 5 -10z"/>
<path d="M6405 4216 c-18 -75 -22 -118 -11 -121 6 -2 19 -6 29 -9 23 -7 34 20
19 45 -16 24 -15 29 3 29 15 0 31 42 21 58 -3 5 -17 12 -31 14 -20 4 -26 1
-30 -16z"/>
<path d="M4465 4221 c-2 -4 10 -8 26 -9 16 -1 29 -1 29 2 0 7 -50 13 -55 7z"/>
<path d="M5303 4172 c-34 -5 -47 -27 -28 -46 9 -9 22 -13 28 -9 7 3 3 -4 -8
-16 -16 -18 -17 -24 -5 -31 24 -15 50 7 49 43 -1 46 -11 62 -36 59z"/>
<path d="M4590 4081 c0 -28 -24 -42 -74 -44 -25 -1 -41 -4 -35 -8 14 -8 78 0
102 12 15 9 26 59 12 59 -3 0 -5 -8 -5 -19z"/>
<path d="M4497 4073 c-14 -13 -7 -23 16 -22 17 1 18 2 4 6 -9 2 -15 9 -12 14
7 10 1 12 -8 2z"/>
<path d="M5322 4044 c-27 -19 -28 -34 -3 -34 17 0 18 -5 14 -42 l-6 -43 31 28
c30 28 30 29 14 68 -17 44 -19 45 -50 23z"/>
<path d="M6349 4012 l-20 -47 22 -18 c29 -23 44 -17 43 18 0 17 10 38 24 52
28 28 28 28 -16 36 -32 6 -34 5 -53 -41z"/>
<path d="M4568 4013 c7 -3 16 -2 19 1 4 3 -2 6 -13 5 -11 0 -14 -3 -6 -6z"/>
<path d="M4592 3970 c0 -14 2 -19 5 -12 2 6 2 18 0 25 -3 6 -5 1 -5 -13z"/>
<path d="M4560 3930 c-9 -6 -10 -10 -3 -10 6 0 15 5 18 10 8 12 4 12 -15 0z"/>
<path d="M5372 3928 c-16 -16 -15 -33 1 -47 10 -8 17 -7 26 2 10 10 12 5 9
-22 -4 -46 23 -65 50 -35 19 20 19 21 -14 67 -35 48 -51 56 -72 35z"/>
<path d="M6277 3889 c-27 -39 -27 -42 -11 -60 30 -34 49 -24 45 24 -2 11 5 17
19 17 25 0 37 25 20 45 -21 25 -43 16 -73 -26z"/>
<path d="M4573 3903 c-13 -2 -23 -8 -23 -13 0 -10 38 -1 46 11 3 5 4 8 2 8 -2
-1 -13 -4 -25 -6z"/>
<path d="M4451 3895 c9 -8 78 -14 83 -7 2 4 -16 8 -41 9 -25 1 -44 0 -42 -2z"/>
<path d="M5470 3809 c-17 -31 -5 -52 25 -45 22 6 25 3 25 -18 0 -14 8 -30 19
-35 15 -8 20 -5 30 16 11 23 8 29 -29 64 -47 45 -55 47 -70 18z"/>
<path d="M6190 3794 c-38 -36 -41 -43 -31 -63 16 -28 44 -23 51 9 4 18 11 25
29 25 32 0 36 16 13 45 l-19 24 -43 -40z"/>
<path d="M5370 3730 c0 -5 5 -10 10 -10 6 0 10 5 10 10 0 6 -4 10 -10 10 -5 0
-10 -4 -10 -10z"/>
<path d="M5584 3717 c-9 -36 3 -49 37 -42 23 5 29 3 29 -10 0 -21 27 -30 44
-16 31 26 -7 69 -76 86 -23 6 -28 3 -34 -18z"/>
<path d="M6067 3719 c-32 -17 -38 -25 -35 -47 4 -35 41 -38 46 -5 3 20 6 21
24 12 30 -16 55 10 39 40 -14 26 -25 26 -74 0z"/>
<path d="M5930 3676 c-25 -6 -44 -14 -42 -18 1 -5 2 -17 2 -28 0 -27 36 -27
50 0 10 18 13 19 26 5 28 -28 50 -12 40 29 -6 26 -14 27 -76 12z"/>
<path d="M2447 3659 c-4 -13 -7 -34 -7 -46 0 -18 -7 -22 -52 -28 -29 -3 -65
-8 -80 -11 -22 -4 -31 1 -58 42 -30 43 -35 46 -66 41 -18 -3 -61 -18 -95 -33
l-61 -28 7 -52 6 -53 -68 -45 -68 -44 -39 34 c-31 26 -43 31 -57 23 -20 -10
-119 -125 -119 -137 0 -4 9 -22 20 -40 11 -18 20 -36 20 -40 0 -12 -81 -117
-88 -115 -4 0 -31 8 -60 17 l-52 15 -34 -67 c-19 -37 -38 -84 -44 -105 -10
-37 -10 -39 20 -55 72 -40 73 -41 53 -108 -9 -32 -19 -67 -21 -78 -5 -25 0
-23 -69 -31 -33 -3 -62 -9 -65 -11 -7 -8 -6 -232 2 -240 4 -4 30 -9 58 -12 50
-5 62 -13 67 -42 2 -17 10 -69 18 -122 6 -34 4 -38 -41 -68 -43 -31 -46 -35
-41 -69 6 -47 42 -140 65 -169 l18 -23 47 27 c27 14 49 25 51 23 2 -2 24 -35
50 -74 48 -73 55 -95 33 -114 -8 -6 -22 -29 -32 -50 -17 -40 -17 -40 6 -68 43
-51 126 -123 140 -123 8 1 29 21 47 45 18 25 36 45 41 45 4 0 40 -21 80 -46
60 -39 72 -50 67 -68 -3 -11 -8 -39 -11 -61 l-7 -41 49 -22 c62 -28 163 -56
171 -47 4 3 14 30 23 58 l15 52 90 -3 c49 -2 92 -6 95 -10 4 -4 14 -31 24 -59
9 -29 19 -53 23 -53 3 0 48 7 99 17 l93 16 1 36 c2 89 -2 83 77 112 l74 28 48
-35 47 -34 44 25 c24 13 59 37 77 52 l33 28 -26 47 -25 47 52 57 c72 77 80 80
125 50 35 -24 38 -25 56 -8 11 9 41 46 67 81 l49 65 -44 48 -44 49 33 92 34
92 53 5 54 5 12 60 c7 33 13 82 15 110 l3 49 -50 16 -50 15 -3 102 -3 102 39
20 39 20 -8 48 c-5 26 -15 71 -23 98 l-13 50 -51 -1 c-44 -1 -52 2 -58 20 -4
11 -20 49 -36 84 l-30 64 31 32 c17 18 31 35 31 39 0 15 -91 148 -105 153 -8
3 -28 -4 -44 -15 -16 -12 -35 -21 -41 -21 -7 0 -41 24 -76 53 -55 45 -63 56
-58 77 3 14 7 40 7 59 2 33 -1 36 -68 72 -38 21 -75 39 -81 39 -6 0 -20 -18
-32 -39 l-22 -39 -80 27 c-43 15 -82 30 -85 33 -4 4 -7 22 -7 41 0 19 -3 39
-7 46 -5 7 -45 14 -98 17 -88 6 -90 6 -96 -17z m98 -184 c332 -28 634 -296
741 -660 22 -76 27 -114 30 -240 3 -155 -3 -212 -38 -329 -58 -199 -198 -392
-362 -501 -118 -78 -303 -145 -402 -145 -41 0 -43 1 -40 28 2 15 4 29 5 32 0
3 12 7 26 8 51 4 179 34 228 53 216 85 397 281 476 516 11 33 23 73 25 89 3
16 9 50 14 75 10 51 8 229 -3 294 -29 179 -118 350 -249 481 -157 156 -328
227 -541 226 -170 0 -306 -46 -445 -148 -89 -66 -159 -141 -221 -239 -58 -92
-109 -232 -124 -338 -7 -53 -8 -227 -1 -267 3 -14 7 -42 10 -63 19 -122 112
-310 206 -413 121 -133 269 -217 439 -250 47 -9 91 -18 97 -19 6 -2 11 -16 10
-32 -1 -26 -4 -28 -46 -29 -143 -4 -377 105 -509 237 -184 184 -281 413 -286
680 -5 234 60 441 191 609 47 61 147 160 209 207 97 74 251 131 380 140 44 3
82 7 83 9 2 1 9 1 15 -1 7 -2 44 -6 82 -10z m105 -151 c114 -34 197 -82 282
-162 221 -209 310 -489 252 -792 -12 -59 -16 -75 -40 -138 -89 -238 -278 -413
-521 -483 -69 -19 -142 -25 -144 -11 -3 33 -11 57 -22 64 -16 10 -25 -1 -29
-37 -3 -28 -6 -30 -49 -31 -61 -2 -216 50 -296 99 -53 32 -175 142 -208 188
-88 120 -146 256 -164 381 -9 64 -7 235 4 296 4 23 6 43 6 44 -3 6 38 116 60
163 39 85 90 157 158 226 199 200 455 269 711 193z"/>
<path d="M2323 3220 c-132 -27 -292 -136 -382 -260 -17 -24 -44 -71 -60 -105
-51 -108 -64 -168 -66 -313 -1 -125 1 -140 30 -226 48 -144 107 -235 209 -324
120 -103 260 -153 418 -147 233 9 430 140 541 360 59 117 80 210 79 345 -2
304 -204 583 -477 658 -75 21 -220 27 -292 12z m234 -199 c2 -90 9 -110 36
-111 5 0 39 29 76 65 l68 65 37 -32 38 -33 -38 -70 c-40 -75 -42 -120 -6 -127
17 -4 93 16 124 33 21 11 51 -18 67 -62 11 -32 3 -40 -83 -91 -34 -21 -46 -34
-46 -52 0 -32 16 -43 81 -57 74 -16 80 -21 73 -83 -8 -81 -5 -78 -88 -71 -68
5 -76 4 -86 -15 -12 -22 0 -46 57 -114 18 -22 33 -42 33 -46 0 -13 -64 -90
-75 -90 -6 0 -34 18 -63 39 -29 22 -62 43 -73 46 -46 15 -53 -34 -20 -130 12
-33 21 -61 21 -63 0 -6 -86 -42 -103 -42 -11 0 -26 19 -43 58 -33 70 -61 112
-78 112 -16 0 -41 -53 -56 -123 -7 -31 -18 -57 -24 -58 -62 -6 -107 18 -101
54 5 26 9 114 7 143 -4 51 -71 29 -126 -40 -33 -42 -49 -44 -79 -13 -52 53
-52 51 -9 114 57 85 64 135 19 128 -12 -2 -44 -6 -71 -10 -27 -4 -54 -9 -62
-12 -17 -6 -48 95 -34 112 5 6 35 22 67 34 64 27 93 47 93 67 0 15 -67 67
-117 92 -43 21 -47 37 -24 108 18 57 20 59 52 58 19 0 62 -9 97 -18 51 -14 66
-15 78 -5 19 16 13 40 -32 137 -26 58 -31 76 -21 86 14 13 111 76 118 76 3 0
23 -27 45 -61 21 -34 51 -67 65 -75 43 -22 59 -1 71 94 l11 83 61 -3 61 -3 2
-94z"/>
<path d="M2407 2736 c-83 -22 -136 -93 -138 -183 -3 -99 31 -157 116 -202 22
-12 41 -26 41 -31 1 -6 2 -41 3 -80 1 -63 3 -70 21 -70 15 0 20 7 21 30 2 33
6 102 8 124 0 8 11 16 24 20 40 10 104 73 120 118 33 99 -1 209 -78 253 -55
31 -82 35 -138 21z m95 -143 c11 -11 20 -34 20 -53 2 -66 -75 -100 -122 -54
-23 22 -17 94 9 115 26 21 67 18 93 -8z"/>
<path d="M5737 3674 c-4 -4 -7 -18 -7 -31 0 -19 5 -23 29 -23 16 0 31 6 34 13
3 9 8 7 18 -5 8 -9 23 -18 34 -20 16 -2 20 3 21 25 1 16 -6 31 -15 36 -21 10
-105 14 -114 5z"/>
<path d="M3581 3210 c-12 -8 -8 -743 4 -746 6 -2 41 61 80 138 l70 141 -2 81
c0 45 -1 151 -2 236 l-1 156 -70 0 c-39 0 -74 -3 -79 -6z"/>
<path d="M5419 3206 c-2 -2 -73 -6 -156 -9 -136 -5 -157 -8 -190 -28 -21 -13
-44 -30 -51 -39 -114 -134 -146 -334 -77 -470 54 -105 110 -146 315 -229 80
-33 155 -90 201 -154 29 -40 29 -40 29 -12 0 38 -55 138 -101 182 -27 26 -72
50 -159 85 -166 66 -181 77 -221 152 -28 51 -34 170 -14 241 20 68 75 132 120
141 140 26 221 -86 289 -398 5 -23 12 -28 35 -28 29 0 29 1 26 53 -2 28 -6
113 -10 187 -12 259 -16 315 -23 322 -5 5 -10 7 -13 4z m-11 -103 c4 -28 -32
-50 -54 -32 -15 12 -19 41 -7 53 16 15 58 1 61 -21z"/>
<path d="M5365 3100 c-3 -5 1 -10 9 -10 9 0 16 5 16 10 0 6 -4 10 -9 10 -6 0
-13 -4 -16 -10z"/>
<path d="M4041 3183 c37 -50 70 -76 81 -65 8 8 1 21 -24 47 -38 37 -83 51 -57
18z"/>
<path d="M3946 3161 c-43 -28 -68 -71 -61 -105 4 -22 68 -112 105 -146 3 -3
32 -36 65 -75 33 -38 62 -72 65 -75 3 -3 43 -49 89 -102 46 -53 94 -104 108
-113 31 -21 61 -14 100 24 46 43 49 65 19 112 -24 36 -158 197 -250 300 -23
25 -72 80 -109 122 -38 42 -76 77 -85 77 -10 0 -30 -9 -46 -19z m78 -87 c19
-18 19 -20 6 -44 -12 -22 -46 -16 -53 10 -5 19 9 50 23 50 5 0 16 -7 24 -16z
m366 -433 c0 -34 -12 -45 -40 -36 -12 4 -20 15 -20 29 0 29 7 36 37 36 19 0
23 -5 23 -29z"/>
<path d="M4357 2653 c-12 -12 -7 -33 8 -33 17 0 19 9 7 28 -5 7 -11 9 -15 5z"/>
<path d="M3862 2937 c-93 -168 -307 -590 -317 -625 -5 -17 1 -29 24 -52 16
-17 37 -31 45 -31 9 -1 24 -2 33 -3 10 0 22 8 28 19 5 11 34 65 64 120 185
342 262 496 254 509 -11 18 -96 106 -102 106 -3 0 -17 -19 -29 -43z m-174
-519 c27 -27 7 -78 -30 -78 -39 0 -44 68 -6 83 20 8 23 8 36 -5z"/>
<path d="M5699 2840 c0 -8 0 -275 -1 -592 -1 -524 -2 -578 -17 -579 -9 0 -35
0 -58 1 l-43 2 0 -41 0 -41 63 -1 c34 0 176 -1 314 -2 160 -1 253 -6 254 -12
0 -5 3 -66 5 -135 l4 -125 38 -32 c20 -18 39 -32 42 -33 6 0 7 46 9 248 l1 92
279 0 279 0 -2 33 c-2 17 -4 35 -5 40 0 4 -19 7 -41 7 l-40 0 -1 48 c0 26 -2
92 -4 147 -1 55 -4 141 -5 191 -3 101 -6 110 -35 115 -18 4 -20 13 -21 91 -1
70 2 91 16 106 50 53 52 100 9 137 -18 14 -38 24 -46 21 -8 -4 -19 -6 -23 -6
-5 0 -18 -10 -30 -22 -27 -30 -22 -69 15 -117 21 -26 30 -48 29 -67 -1 -16 -3
-54 -3 -85 -1 -47 -4 -56 -18 -56 -57 0 -53 19 -53 -253 l0 -250 -150 0 -150
0 -1 153 c-1 381 -3 397 -32 457 -15 30 -35 65 -45 76 -46 54 -149 75 -225 46
-92 -37 -127 -72 -221 -224 -27 -43 -51 -78 -55 -78 -5 0 -7 686 -2 711 0 3
13 5 29 4 l27 -1 5 -295 c4 -256 7 -291 19 -270 10 19 14 89 16 313 1 158 -1
289 -4 289 -3 1 -32 2 -63 3 -46 1 -58 -2 -59 -14z m409 -577 c21 -11 52 -41
72 -71 l35 -52 -2 -227 c-1 -126 -2 -231 -2 -235 -1 -5 -88 -8 -194 -8 l-193
0 1 200 c1 110 -2 200 -6 200 -6 0 -18 -22 -24 -42 -2 -5 -3 -82 -4 -173 l-1
-165 -33 0 -32 0 0 200 c0 110 3 200 7 200 5 0 8 -4 8 -10 0 -5 8 -14 19 -19
16 -9 27 2 85 84 62 87 96 122 136 138 25 10 88 0 128 -20z m-298 -143 c0 -13
-29 -32 -40 -25 -16 10 7 45 25 39 8 -4 15 -10 15 -14z m903 -12 c6 -19 -3
-38 -18 -38 -18 0 -28 17 -21 35 7 18 33 20 39 3z m0 -120 c6 -19 -3 -38 -18
-38 -13 0 -27 35 -17 44 10 10 30 6 35 -6z m2 -128 c8 -13 -14 -42 -26 -34 -5
3 -9 14 -9 25 0 20 24 26 35 9z m-1 -116 c7 -19 -1 -34 -18 -34 -14 0 -28 35
-18 44 11 11 30 6 36 -10z"/>
<path d="M5750 2025 c-5 -38 -6 -290 -2 -302 2 -7 8 -10 14 -7 10 7 8 264 -3
304 -6 21 -7 22 -9 5z"/>
<path d="M5749 2693 c0 -43 -1 -168 -3 -278 -1 -110 0 -211 3 -225 l4 -25 8
27 c12 44 11 578 -1 578 -6 0 -10 -31 -11 -77z"/>
<path d="M4154 2574 c-15 -16 -64 -78 -109 -139 l-83 -110 2 -200 1 -201 80
-69 c189 -164 203 -178 211 -210 10 -40 38 -29 42 17 3 31 -6 47 -64 124 -110
145 -106 131 -106 315 l-1 161 31 36 c17 21 47 54 66 75 19 20 46 52 60 70
l24 32 -22 25 c-13 14 -41 42 -64 64 l-41 39 -27 -29z m58 -71 c15 -15 28 -31
28 -36 0 -7 -59 -86 -80 -107 -3 -3 -20 -22 -38 -44 l-33 -38 2 -172 c3 -167
3 -172 31 -222 15 -28 28 -54 28 -58 0 -10 -18 -7 -32 7 -7 7 -29 24 -48 37
-67 46 -65 40 -68 246 -2 166 0 192 15 216 39 59 149 197 157 198 6 0 23 -12
38 -27z"/>
<path d="M4152 2472 c-12 -15 -48 -58 -79 -95 l-56 -68 1 -190 c1 -185 1 -190
24 -210 13 -10 32 -24 42 -30 16 -10 18 -9 11 7 -18 46 -22 79 -23 231 l-2
162 70 85 c73 88 82 109 52 125 -13 7 -22 3 -40 -17z"/>
<path d="M4482 2537 l-62 -62 44 -55 c25 -30 67 -80 95 -110 l51 -55 0 -161 0
-161 -37 -49 c-20 -27 -39 -51 -42 -54 -4 -3 -26 -32 -50 -64 -31 -42 -45 -71
-49 -102 -4 -39 -2 -44 16 -44 13 0 24 10 30 28 14 37 100 121 241 233 l48 38
0 203 0 203 -66 90 c-36 50 -68 92 -71 95 -3 3 -20 24 -39 48 -18 23 -36 42
-40 42 -3 0 -35 -28 -69 -63z m103 -36 c11 -16 48 -65 83 -110 l62 -82 0 -197
-1 -197 -69 -47 c-37 -27 -71 -48 -74 -48 -4 0 6 24 21 53 25 49 27 61 31 228
l4 175 -54 64 c-29 35 -63 75 -75 89 -29 30 -29 33 3 70 32 38 44 39 69 2z"/>
<path d="M4526 2478 c-14 -20 -14 -24 2 -43 10 -11 45 -51 79 -90 l60 -70 -4
-165 c-3 -133 -8 -173 -23 -207 -10 -24 -17 -43 -14 -43 3 0 23 15 44 33 l40
32 0 193 0 193 -62 78 c-35 43 -73 85 -85 94 -21 16 -23 16 -37 -5z"/>
<path d="M4915 2530 c14 -70 48 -131 96 -174 47 -42 61 -50 164 -96 180 -79
199 -94 224 -172 14 -44 12 -176 -3 -227 -36 -119 -131 -175 -231 -137 -87 34
-152 146 -201 346 -15 63 -32 121 -37 128 -5 6 -20 12 -32 12 -21 0 -23 -4
-20 -42 2 -24 7 -149 11 -278 7 -213 9 -263 13 -296 0 -5 16 -9 34 -8 17 2
104 4 192 4 181 2 190 5 256 78 84 93 119 192 116 327 -2 82 -5 98 -37 160
-49 98 -102 145 -219 195 -223 97 -257 117 -310 185 l-23 30 7 -35z m79 -836
c16 -42 -4 -71 -39 -58 -20 8 -29 42 -15 59 16 20 46 19 54 -1z"/>
<path d="M4966 1681 c-4 -7 -5 -15 -2 -18 9 -9 19 4 14 18 -4 11 -6 11 -12 0z"/>
<path d="M3707 2255 c-19 -40 -47 -54 -94 -49 -17 2 -34 0 -37 -4 -3 -5 -6
-110 -7 -234 -2 -251 -4 -274 -28 -284 -9 -3 -59 -9 -111 -13 l-95 -6 -3 -37
-3 -38 239 0 c220 0 239 1 240 18 1 27 -8 62 -16 61 -4 -1 -18 -1 -32 0 l-25
1 -3 307 c-2 169 -4 309 -6 310 -1 2 -10 -13 -19 -32z"/>
<path d="M365 1928 c-23 -47 -32 -75 -26 -81 7 -7 16 1 28 23 10 18 28 48 41
67 22 34 23 63 3 63 -5 0 -26 -32 -46 -72z"/>
<path d="M510 1905 c25 -35 63 -65 89 -71 14 -3 36 -9 49 -14 46 -19 20 1 -40
30 -34 17 -73 40 -87 53 -22 19 -23 19 -11 2z"/>
<path d="M4310 1690 c0 -74 4 -120 12 -128 8 -8 12 -113 15 -354 2 -189 5
-349 8 -355 2 -7 11 -10 18 -7 11 4 15 47 17 217 5 445 6 471 22 497 12 19 17
54 18 135 l1 110 -56 1 -55 1 0 -117z"/>
<path d="M354 1767 c6 -38 66 -200 72 -194 5 5 -65 227 -72 227 -3 0 -3 -15 0
-33z"/>
<path d="M967 1735 c58 -39 89 -77 123 -150 13 -27 55 -104 93 -170 66 -115
107 -169 233 -315 78 -90 163 -219 218 -329 50 -99 69 -116 38 -33 -40 105
-123 232 -220 336 -94 102 -194 235 -250 333 -83 147 -143 265 -138 270 2 2
21 -3 41 -11 21 -9 46 -16 56 -16 21 0 25 -20 7 -38 -7 -7 -8 -12 -4 -12 8 0
45 41 46 51 0 12 -55 28 -108 32 -28 2 -60 11 -70 19 -23 20 -100 68 -109 68
-4 0 16 -16 44 -35z"/>
<path d="M870 1746 c0 -3 15 -13 33 -22 45 -23 104 -88 155 -169 47 -75 47
-60 1 43 -16 35 -39 72 -51 83 -39 33 -138 80 -138 65z"/>
<path d="M600 1681 c13 -25 33 -28 28 -4 -2 10 -11 19 -21 21 -16 3 -17 1 -7
-17z"/>
<path d="M860 1674 c0 -4 13 -19 29 -35 24 -22 101 -140 101 -154 0 -5 133
-281 203 -421 63 -127 88 -173 130 -233 17 -24 43 -74 58 -110 31 -72 35 -66
17 25 -12 62 -40 111 -127 224 -68 86 -203 359 -250 503 -30 89 -118 207 -155
207 -3 0 -6 -3 -6 -6z"/>
<path d="M875 1515 c4 -22 12 -46 17 -53 7 -8 7 -16 2 -22 -13 -12 -66 -16
-84 -5 -13 8 -13 6 -2 -8 10 -11 24 -15 48 -11 20 2 44 -1 55 -6 17 -10 17 -5
-7 62 -31 86 -39 98 -29 43z"/>
<path d="M830 1496 c0 -2 7 -7 16 -10 8 -3 12 -2 9 4 -6 10 -25 14 -25 6z"/>
<path d="M2437 1431 c-2 -11 -3 -301 -1 -645 2 -344 0 -626 -4 -627 -26 -3
-111 -8 -272 -14 -102 -4 -213 -8 -247 -10 -35 -1 -63 1 -63 5 0 3 13 19 30
35 42 40 30 42 -25 3 -43 -30 -52 -33 -118 -32 -40 1 -256 4 -482 6 l-410 5 1
29 c2 54 11 109 29 168 13 44 14 60 5 66 -16 10 -26 62 -29 145 -2 75 -7 89
-18 59 -3 -10 -11 -22 -16 -26 -7 -4 -1 -37 14 -90 27 -97 28 -133 3 -250 -14
-68 -20 -83 -29 -72 -6 8 -19 17 -30 19 -11 2 -21 4 -23 4 -2 1 6 17 19 37 19
31 21 44 15 102 -9 95 -15 129 -37 202 -11 36 -17 50 -14 32 3 -20 1 -31 -5
-27 -10 6 -15 24 -56 203 -15 67 -31 122 -35 122 -10 0 0 -66 21 -140 10 -36
28 -96 38 -135 11 -38 30 -97 42 -130 33 -90 37 -164 11 -224 -11 -28 -21 -61
-21 -76 0 -15 -7 -28 -17 -32 -20 -8 -203 -7 -258 2 -37 5 -39 4 -20 -9 11 -8
29 -22 40 -31 20 -16 20 -16 -3 -10 -19 6 -23 4 -20 -12 3 -15 16 -19 83 -24
44 -3 90 -9 102 -13 43 -14 71 -16 243 -23 164 -6 1857 -10 2255 -6 99 1 421
0 715 -3 939 -10 1375 -7 1465 11 43 9 378 9 530 1 251 -14 313 -15 579 -18
213 -1 269 1 276 11 6 10 24 12 71 8 l64 -6 -25 19 c-14 11 -31 20 -37 20 -7
0 -13 5 -13 10 0 6 11 8 25 6 13 -3 27 -1 30 4 10 15 -41 20 -265 24 -87 1
-95 -1 -95 -18 0 -17 8 -19 63 -19 65 0 99 -16 40 -18 -18 -1 -44 -3 -58 -6
-40 -6 -331 -6 -375 1 -21 4 -42 10 -45 14 -3 4 -45 16 -95 26 -100 20 -164
22 -1075 31 -300 2 -572 8 -605 12 -63 8 -397 8 -1169 1 -468 -5 -610 2 -639
31 -7 7 -12 93 -13 223 -10 849 -14 1050 -19 1058 -10 16 -22 11 -28 -9z
m-1457 -1304 c-6 -5 -70 -13 -205 -23 -63 -4 -87 -3 -80 4 6 6 28 12 50 14 78
6 240 9 235 5z m44 -35 c3 -5 -25 -9 -62 -9 l-67 0 60 7 c33 4 61 7 62 8 1 1
4 -2 7 -6z m116 2 c-35 -7 -98 -9 -94 -2 3 5 29 7 57 7 29 -1 45 -3 37 -5z
m475 -14 c-30 -7 -267 -6 -315 0 -14 2 18 6 70 9 118 7 288 1 245 -9z m2519 0
c15 -15 -68 -17 -188 -5 -135 14 -115 26 34 20 79 -3 149 -10 154 -15z m-1850
2 c2 -4 -12 -8 -32 -9 -36 -1 -36 -1 -7 7 17 4 31 8 32 9 1 0 4 -3 7 -7z m225
4 c-7 -7 -129 -10 -136 -3 -3 4 27 7 67 7 40 0 71 -2 69 -4z m-311 -13 c-10
-2 -26 -2 -35 0 -10 3 -2 5 17 5 19 0 27 -2 18 -5z m-938 -13 c-18 -12 -183
-13 -176 -1 3 5 47 9 98 10 65 1 88 -2 78 -9z m2415 -6 c98 -12 96 -12 -90 -8
-260 6 -408 13 -414 20 -10 10 403 0 504 -12z m-829 -7 c3 -3 -84 -5 -193 -5
-130 1 -170 3 -118 7 97 7 303 6 311 -2z m41 -3 c-3 -3 -12 -4 -19 -1 -8 3 -5
6 6 6 11 1 17 -2 13 -5z m1790 -10 c-3 -3 -12 -4 -19 -1 -8 3 -5 6 6 6 11 1
17 -2 13 -5z m61 -1 c-10 -2 -26 -2 -35 0 -10 3 -2 5 17 5 19 0 27 -2 18 -5z
m430 0 c-10 -2 -28 -2 -40 0 -13 2 -5 4 17 4 22 1 32 -1 23 -4z"/>
<path d="M510 1407 c0 -4 13 -28 29 -54 16 -27 39 -84 51 -128 37 -133 40
-137 34 -40 -3 49 -12 103 -20 120 -14 30 -94 117 -94 102z"/>
<path d="M1165 1349 c15 -22 77 -109 139 -192 170 -230 227 -324 242 -402 3
-19 13 -51 20 -72 l15 -38 -6 50 c-11 88 -44 204 -71 250 -36 63 -95 137 -191
241 -45 50 -101 116 -123 147 -48 66 -62 76 -25 16z"/>
<path d="M6220 1231 c0 -42 4 -53 28 -71 15 -12 55 -48 90 -81 l62 -59 0 -63
c0 -35 2 -66 4 -68 3 -3 23 -3 45 -1 l41 4 0 82 -1 81 -95 85 c-137 122 -158
140 -166 140 -5 0 -8 -22 -8 -49z m51 -24 c-1 -12 -15 -9 -19 4 -3 6 1 10 8 8
6 -3 11 -8 11 -12z"/>
<path d="M1090 1046 c0 -2 16 -42 36 -88 20 -45 49 -121 66 -168 16 -47 37
-92 45 -100 14 -13 15 -10 10 35 -7 60 -46 154 -105 253 -39 64 -52 81 -52 68z"/>
<path d="M3501 996 c-5 -6 -13 -43 -16 -82 -5 -62 -12 -121 -20 -165 -2 -9 -6
-34 -9 -55 -4 -22 -9 -53 -12 -71 -7 -36 5 -45 71 -58 22 -5 45 -9 50 -11 6
-1 46 -9 90 -18 44 -9 136 -32 205 -51 159 -43 196 -48 430 -60 156 -9 198
-14 270 -34 77 -22 104 -29 156 -37 21 -3 68 -12 104 -20 36 -9 72 -17 80 -19
8 -2 53 -12 100 -23 81 -19 111 -24 205 -37 23 -3 50 -7 60 -9 11 -2 58 -11
105 -20 47 -9 96 -18 110 -21 14 -3 41 -8 60 -11 19 -3 42 -7 52 -10 9 -3 42
-9 75 -15 131 -22 169 -29 193 -34 160 -33 314 -54 447 -61 98 -6 101 -6 116
17 8 13 17 44 21 69 9 66 16 107 32 183 8 38 14 73 14 78 0 15 -78 46 -150 59
-36 7 -144 35 -240 62 -201 57 -368 89 -490 92 -59 2 -119 12 -195 34 -94 26
-246 56 -385 76 -151 20 -201 29 -240 43 -44 15 -126 29 -225 39 -27 3 -74 10
-103 15 -30 6 -55 9 -56 7 -1 -1 -7 -18 -12 -37 -18 -68 -63 -65 -64 4 0 41
-13 58 -47 61 -15 2 -48 6 -73 9 -105 14 -89 11 -470 89 -162 33 -225 39 -239
22z m90 -93 c2 -37 11 -128 13 -130 1 -1 26 14 55 33 30 18 57 32 60 29 7 -7
-39 -53 -76 -76 -18 -12 -33 -26 -33 -32 0 -7 16 -36 35 -64 33 -49 44 -83 28
-83 -5 0 -24 23 -43 51 l-35 52 -11 -39 c-17 -56 -23 -26 -20 86 2 52 4 114 5
138 0 23 6 42 11 42 6 0 10 -3 11 -7z m254 -158 c6 -69 13 -85 39 -85 31 0 46
-18 46 -57 0 -35 -37 -70 -64 -60 -19 8 -33 77 -35 178 -2 88 8 104 14 24z
m-45 -101 c15 -37 2 -73 -28 -81 -45 -11 -70 51 -35 89 23 26 52 23 63 -8z
m224 -20 c12 -12 13 -20 6 -35 -6 -10 -15 -19 -20 -19 -6 0 -10 -4 -10 -10 0
-5 11 -10 25 -10 16 0 25 -6 25 -15 0 -21 -48 -20 -72 2 -22 20 -23 61 -1 85
20 22 27 22 47 2z m391 -13 c-9 -16 -25 -3 -18 15 4 10 9 12 15 6 6 -6 7 -15
3 -21z m-239 -78 c6 -2 16 8 24 21 16 31 30 25 30 -13 0 -21 -6 -30 -22 -34
-55 -15 -87 17 -73 71 l7 27 12 -34 c7 -19 17 -36 22 -38z m88 35 c-6 -9 11
-6 53 9 13 5 20 -28 14 -69 -5 -38 -21 -36 -21 2 0 39 -15 38 -40 -2 -20 -33
-22 -31 -22 22 0 48 3 61 12 55 6 -4 7 -11 4 -17z m938 13 c39 -15 68 -47 68
-74 0 -43 -55 -82 -99 -70 -28 7 -27 2 15 -48 39 -47 31 -64 -13 -29 l-28 22
-3 -24 c-6 -39 -22 -45 -23 -8 -2 43 -2 32 5 118 11 116 23 134 78 113z m-803
-53 c0 -18 -4 -42 -8 -52 -7 -17 -8 -17 -14 -3 -8 21 3 87 14 87 5 0 9 -15 8
-32z m55 -32 c-3 -6 6 2 20 17 34 37 35 9 1 -30 -21 -24 -26 -26 -35 -13 -5 8
-10 29 -10 45 1 28 1 29 15 11 8 -10 12 -24 9 -30z m136 19 c11 -13 9 -19 -10
-32 l-23 -16 24 -9 c19 -7 21 -11 9 -18 -8 -5 -18 -10 -22 -10 -13 0 -38 32
-38 50 0 19 25 50 39 50 5 0 14 -7 21 -15z m242 -7 c-7 -7 -12 -8 -12 -2 0 14
12 26 19 19 2 -3 -1 -11 -7 -17z m-156 -18 c13 0 24 -4 24 -10 0 -5 -6 -10
-14 -10 -8 0 -24 -12 -35 -26 l-21 -27 0 31 c0 36 12 72 18 54 2 -7 15 -12 28
-12z m739 -55 c-4 -43 -3 -75 2 -75 21 0 44 -26 37 -43 -6 -16 -52 -47 -70
-47 -7 0 1 145 9 170 3 8 8 27 11 43 12 51 17 27 11 -48z m-520 38 c-1 -10 1
-25 5 -33 5 -10 1 -25 -11 -40 -15 -21 -19 -22 -20 -7 -1 9 -2 23 -3 30 -2 12
21 67 28 67 2 0 3 -8 1 -17z m-120 -3 c3 -6 -5 -10 -19 -10 -25 0 -25 0 -8
-30 15 -26 15 -32 3 -39 -9 -6 -22 -6 -33 0 -23 12 -14 31 10 22 16 -7 16 -6
0 19 -12 19 -14 28 -5 37 14 14 44 14 52 1z m55 -50 c0 -16 -5 -30 -10 -30 -6
0 -9 14 -8 30 1 17 6 30 10 30 4 0 8 -13 8 -30z m110 10 c0 -18 3 -19 20 -10
32 17 23 -3 -20 -45 -27 -26 -40 -34 -40 -23 0 8 7 21 15 28 10 8 13 23 10 41
-3 16 -1 29 5 29 5 0 10 -9 10 -20z m932 -7 c27 -32 33 -50 10 -30 -20 18 -21
18 -46 0 -44 -32 -59 -68 -46 -108 13 -40 33 -53 73 -49 33 3 35 -9 3 -29 -22
-15 -27 -14 -67 6 -35 18 -45 29 -50 55 -20 98 72 213 123 155z m-530 -57 c4
-62 -10 -80 -51 -64 -44 16 -53 46 -22 77 25 25 70 17 73 -13z m318 -32 c10
-29 9 -38 -3 -52 -8 -9 -17 -26 -18 -36 -2 -11 -10 -21 -17 -24 -10 -3 -12 4
-8 31 5 30 2 39 -16 52 l-22 15 22 0 c14 0 27 9 34 25 6 14 12 25 14 25 1 0 8
-16 14 -36z m544 -26 c-4 -29 -7 -86 -7 -125 0 -57 -4 -73 -15 -73 -12 0 -14
13 -9 73 6 75 25 177 34 177 2 0 1 -24 -3 -52z m-644 13 c12 -24 -3 -71 -24
-71 -48 0 -60 31 -26 68 25 27 36 28 50 3z m408 -3 c-5 -15 -23 -11 -26 6 -2
11 2 14 13 10 9 -4 14 -11 13 -16z m-26 -109 c-2 -16 -8 -29 -13 -29 -11 0
-12 74 -2 84 11 11 20 -23 15 -55z m58 31 c0 -5 9 -10 20 -10 29 0 24 -12 -15
-37 l-35 -22 0 24 c0 13 3 30 6 39 7 18 24 22 24 6z m125 -29 c3 -6 -4 -15
-15 -21 -27 -14 -26 -37 2 -46 l23 -7 -24 -9 c-31 -11 -52 7 -46 39 7 43 44
69 60 44z m202 -48 c3 -7 -8 -18 -24 -24 -27 -10 -27 -11 -9 -25 11 -8 27 -14
35 -14 13 0 14 -2 2 -9 -40 -26 -93 48 -55 76 21 16 45 14 51 -4z"/>
<path d="M3880 615 c-13 -16 -6 -50 9 -41 12 8 21 45 11 51 -4 3 -13 -2 -20
-10z"/>
<path d="M3756 624 c-12 -12 -14 -20 -7 -27 15 -15 43 13 32 31 -6 11 -11 10
-25 -4z"/>
<path d="M3990 605 c0 -9 5 -15 11 -13 6 2 11 8 11 13 0 5 -5 11 -11 13 -6 2
-11 -4 -11 -13z"/>
<path d="M5180 507 c0 -19 10 -27 25 -20 17 6 8 33 -11 33 -8 0 -14 -6 -14
-13z"/>
<path d="M5415 320 c3 -5 8 -10 11 -10 2 0 4 5 4 10 0 6 -5 10 -11 10 -5 0 -7
-4 -4 -10z"/>
<path d="M5300 340 c0 -5 5 -10 10 -10 6 0 10 5 10 10 0 6 -4 10 -10 10 -5 0
-10 -4 -10 -10z"/>
<path d="M5520 300 c0 -5 5 -10 10 -10 6 0 10 5 10 10 0 6 -4 10 -10 10 -5 0
-10 -4 -10 -10z"/>
<path d="M1090 835 c19 -49 51 -105 60 -105 12 0 -1 35 -32 90 -26 44 -43 54
-28 15z"/>
<path d="M6090 833 c0 -13 3 -23 8 -24 10 -1 353 -1 375 0 11 1 17 9 17 24 l0
24 -200 -1 -200 0 0 -23z"/>
<path d="M4347 809 c6 -22 23 -26 23 -5 0 8 -6 16 -14 19 -10 4 -12 0 -9 -14z"/>
<path d="M835 700 c3 -5 10 -10 16 -10 5 0 9 5 9 10 0 6 -7 10 -16 10 -8 0
-12 -4 -9 -10z"/>
<path d="M1706 518 c4 -18 23 -80 43 -137 36 -104 74 -161 106 -161 13 0 9 9
-18 39 -41 46 -76 118 -107 220 -23 75 -33 92 -24 39z"/>
<path d="M920 444 c0 -8 5 -12 10 -9 6 4 8 11 5 16 -9 14 -15 11 -15 -7z"/>
<path d="M1760 264 c0 -8 5 -12 10 -9 6 4 8 11 5 16 -9 14 -15 11 -15 -7z"/>
</g>
</svg>
